<svg width="20" height="20" viewBox="0 0 20 20" fill="none" xmlns="http://www.w3.org/2000/svg">
    <mask id="mask0_115_21341" style="mask-type:alpha" maskUnits="userSpaceOnUse" x="0" y="-1" width="20" height="21">
    <rect y="-0.000976562" width="20" height="20" fill="#D9D9D9"/>
    </mask>
    <g mask="url(#mask0_115_21341)">
    <path d="M4.64128 17.3995C4.07183 17.3995 3.58919 17.2015 3.19336 16.8057C2.79753 16.4099 2.59961 15.9272 2.59961 15.3578V4.6403C2.59961 4.07086 2.79753 3.58822 3.19336 3.19238C3.58919 2.79655 4.07183 2.59863 4.64128 2.59863H15.3588C15.9282 2.59863 16.4109 2.79655 16.8067 3.19238C17.2025 3.58822 17.4004 4.07086 17.4004 4.6403V15.3578C17.4004 15.9272 17.2025 16.4099 16.8067 16.8057C16.4109 17.2015 15.9282 17.3995 15.3588 17.3995H4.64128ZM6.82065 13.9284H11.3207C11.5332 13.9284 11.7113 13.857 11.855 13.714C11.9988 13.5711 12.0707 13.394 12.0707 13.1828C12.0707 12.9715 11.9988 12.793 11.855 12.6472C11.7113 12.5013 11.5332 12.4284 11.3207 12.4284H6.82065C6.60815 12.4284 6.43003 12.4999 6.28628 12.6428C6.14253 12.7857 6.07065 12.9628 6.07065 13.174C6.07065 13.3853 6.14253 13.5638 6.28628 13.7097C6.43003 13.8555 6.60815 13.9284 6.82065 13.9284ZM6.82065 10.749H13.1794C13.3919 10.749 13.57 10.6776 13.7138 10.5347C13.8575 10.3918 13.9294 10.2147 13.9294 10.0034C13.9294 9.79217 13.8575 9.61363 13.7138 9.4678C13.57 9.32197 13.3919 9.24905 13.1794 9.24905H6.82065C6.60815 9.24905 6.43003 9.32051 6.28628 9.46342C6.14253 9.60634 6.07065 9.78342 6.07065 9.99467C6.07065 10.2059 6.14253 10.3845 6.28628 10.5303C6.43003 10.6761 6.60815 10.749 6.82065 10.749ZM6.82065 7.56967H13.1794C13.3919 7.56967 13.57 7.49822 13.7138 7.3553C13.8575 7.21238 13.9294 7.0353 13.9294 6.82405C13.9294 6.6128 13.8575 6.43426 13.7138 6.28842C13.57 6.14259 13.3919 6.06967 13.1794 6.06967H6.82065C6.60815 6.06967 6.43003 6.14113 6.28628 6.28405C6.14253 6.42697 6.07065 6.60405 6.07065 6.8153C6.07065 7.02655 6.14253 7.20509 6.28628 7.35092C6.43003 7.49676 6.60815 7.56967 6.82065 7.56967Z" fill="#231F20"/>
    </g>
    </svg>
    