<svg width="20" height="20" viewBox="0 0 20 20" fill="none" xmlns="http://www.w3.org/2000/svg">
    <g clip-path="url(#clip0_3001_316)">
    <g clip-path="url(#clip1_3001_316)">
    <rect width="20" height="20" rx="3.22581" fill="#F0B4FE"/>
    <path d="M10.0013 12.1003C12.4981 12.1003 14.5221 10.0762 14.5221 7.57943C14.5221 5.08265 12.4981 3.05859 10.0013 3.05859C7.50452 3.05859 5.48047 5.08265 5.48047 7.57943C5.48047 10.0762 7.50452 12.1003 10.0013 12.1003Z" fill="url(#paint0_radial_3001_316)"/>
    <path d="M10.0004 30.0927C14.6324 30.0927 18.3875 26.3376 18.3875 21.7056C18.3875 17.0735 14.6324 13.3185 10.0004 13.3185C5.36832 13.3185 1.61328 17.0735 1.61328 21.7056C1.61328 26.3376 5.36832 30.0927 10.0004 30.0927Z" fill="url(#paint1_radial_3001_316)"/>
    </g>
    </g>
    <defs>
    <radialGradient id="paint0_radial_3001_316" cx="0" cy="0" r="1" gradientUnits="userSpaceOnUse" gradientTransform="translate(9.34246 5.60185) rotate(66.8014) scale(4.71901)">
    <stop stop-color="#E9BAFF"/>
    <stop offset="1" stop-color="#8A00AD"/>
    </radialGradient>
    <radialGradient id="paint1_radial_3001_316" cx="0" cy="0" r="1" gradientUnits="userSpaceOnUse" gradientTransform="translate(8.77812 18.0367) rotate(66.8014) scale(8.75475)">
    <stop stop-color="#FEBAFF"/>
    <stop offset="1" stop-color="#9F00AD"/>
    </radialGradient>
    <clipPath id="clip0_3001_316">
    <rect width="20" height="20" rx="10" fill="white"/>
    </clipPath>
    <clipPath id="clip1_3001_316">
    <rect width="20" height="20" rx="3.22581" fill="white"/>
    </clipPath>
    </defs>
    </svg>
    