<svg width="24" height="24" viewBox="0 0 24 24" fill="none" xmlns="http://www.w3.org/2000/svg">
    <mask id="mask0_105_51409" style="mask-type:alpha" maskUnits="userSpaceOnUse" x="0" y="0" width="24" height="24">
    <rect width="24" height="24" fill="#D9D9D9"/>
    </mask>
    <g mask="url(#mask0_105_51409)">
    <path d="M5.64143 18.8028C5.35076 18.8028 5.10393 18.7031 4.90093 18.5038C4.6981 18.3043 4.59668 18.0599 4.59668 17.7705C4.59668 17.4812 4.69685 17.235 4.89718 17.032C5.09768 16.8292 5.34335 16.7278 5.63418 16.7278H5.72493V10.931C5.72493 9.42921 6.18176 8.10337 7.09543 6.95354C8.00893 5.80371 9.19793 5.08954 10.6624 4.81104V3.53379C10.6624 3.16229 10.7924 2.84646 11.0524 2.58629C11.3126 2.32629 11.6284 2.19629 11.9999 2.19629C12.3714 2.19629 12.6873 2.32629 12.9474 2.58629C13.2074 2.84646 13.3374 3.16229 13.3374 3.53379V4.81104C14.8059 5.08954 15.9959 5.80271 16.9074 6.95054C17.8191 8.09837 18.2749 9.42521 18.2749 10.931V16.7278H18.3657C18.6565 16.7278 18.9022 16.8275 19.1027 17.0268C19.303 17.2263 19.4032 17.4707 19.4032 17.76C19.4032 18.0494 19.303 18.2955 19.1027 18.4985C18.9023 18.7014 18.6568 18.8028 18.3662 18.8028H5.64143ZM12.0007 21.8685C11.4845 21.8685 11.0443 21.6859 10.6802 21.3205C10.3162 20.9552 10.1342 20.516 10.1342 20.0028H13.8717C13.8717 20.5228 13.6884 20.9637 13.3219 21.3255C12.9556 21.6875 12.5152 21.8685 12.0007 21.8685ZM7.79993 16.7278H16.1999V10.931C16.1999 9.76437 15.7916 8.77271 14.9749 7.95604C14.1583 7.13937 13.1666 6.73104 11.9999 6.73104C10.8333 6.73104 9.8416 7.13937 9.02493 7.95604C8.20826 8.77271 7.79993 9.76437 7.79993 10.931V16.7278Z" fill="#918F8F"/>
    </g>
    </svg>
    