<svg width="16" height="16" viewBox="0 0 16 16" fill="none" xmlns="http://www.w3.org/2000/svg">
    <mask id="mask0_1046_7784" style="mask-type:alpha" maskUnits="userSpaceOnUse" x="0" y="0" width="16" height="16">
    <rect width="16" height="16" fill="white"/>
    </mask>
    <g mask="url(#mask0_1046_7784)">
    <path d="M8.00158 8.9533L9.78425 10.7358C9.92525 10.8769 10.0841 10.9431 10.2609 10.9345C10.4378 10.9257 10.5968 10.8508 10.7378 10.7098C10.8789 10.5687 10.9494 10.4097 10.9494 10.233C10.9494 10.0562 10.8789 9.89746 10.7378 9.7568L8.95525 7.9913L10.7378 6.2163C10.8789 6.07574 10.9494 5.91707 10.9494 5.7403C10.9494 5.56341 10.8789 5.40446 10.7378 5.26346C10.5968 5.12235 10.4378 5.0518 10.2609 5.0518C10.0841 5.0518 9.92525 5.12235 9.78425 5.26346L8.00158 7.04596L6.21892 5.26346C6.07792 5.12235 5.92336 5.0518 5.75525 5.0518C5.58714 5.0518 5.43253 5.12235 5.29142 5.26346C5.15042 5.40446 5.07992 5.56341 5.07992 5.7403C5.07992 5.91707 5.14992 6.07596 5.28992 6.21696L7.04792 7.99963L5.26542 9.7823C5.12431 9.9233 5.05808 10.0779 5.06675 10.246C5.07553 10.4141 5.15042 10.5687 5.29142 10.7098C5.43253 10.8508 5.59147 10.9213 5.76825 10.9213C5.94503 10.9213 6.10347 10.8513 6.24358 10.7113L8.00158 8.9533ZM8.00625 14.72C7.07514 14.72 6.20186 14.5455 5.38642 14.1965C4.57097 13.8474 3.85742 13.367 3.24575 12.7555C2.63419 12.1438 2.15386 11.4305 1.80475 10.6156C1.45575 9.80063 1.28125 8.92607 1.28125 7.99196C1.28125 7.05796 1.45575 6.18602 1.80475 5.37613C2.15386 4.56624 2.63419 3.85546 3.24575 3.2438C3.85742 2.63224 4.57069 2.15191 5.38558 1.8028C6.20058 1.4538 7.07514 1.2793 8.00925 1.2793C8.94325 1.2793 9.8152 1.4538 10.6251 1.8028C11.435 2.15191 12.1457 2.63224 12.7574 3.2438C13.369 3.85546 13.8493 4.56746 14.1984 5.3798C14.5474 6.19224 14.7219 7.06396 14.7219 7.99496C14.7219 8.92607 14.5474 9.79935 14.1984 10.6148C13.8493 11.4302 13.369 12.1438 12.7574 12.7555C12.1457 13.367 11.4338 13.8474 10.6214 14.1965C9.80897 14.5455 8.93725 14.72 8.00625 14.72Z" fill="#ED254E"/>
    </g>
    </svg>
    