<svg width="20" height="20" viewBox="0 0 20 20" fill="none" xmlns="http://www.w3.org/2000/svg">
    <mask id="mask0_105_38982" style="mask-type:alpha" maskUnits="userSpaceOnUse" x="0" y="0" width="20" height="20">
    <rect width="20" height="20" fill="#D9D9D9"/>
    </mask>
    <g mask="url(#mask0_105_38982)">
    <path d="M8.10463 11.9118L14.1219 5.89467C14.3283 5.6869 14.5718 5.58301 14.8523 5.58301C15.1329 5.58301 15.377 5.6869 15.5846 5.89467C15.7924 6.10231 15.8963 6.34467 15.8963 6.62176C15.8963 6.89898 15.7952 7.1387 15.593 7.34092L8.8465 14.093C8.63997 14.3008 8.3965 14.4047 8.11608 14.4047C7.83553 14.4047 7.59136 14.3008 7.38358 14.093L4.42796 11.1374C4.22018 10.9296 4.11435 10.6877 4.11046 10.4118C4.10657 10.1358 4.20851 9.89398 4.41629 9.68634C4.62393 9.47856 4.86692 9.37467 5.14525 9.37467C5.42358 9.37467 5.66428 9.47856 5.86733 9.68634L8.10463 11.9118Z" fill="white"/>
    </g>
    </svg>
    