<svg width="28" height="28" viewBox="0 0 28 28" fill="none" xmlns="http://www.w3.org/2000/svg">
    <mask id="mask0_115_21355" style="mask-type:alpha" maskUnits="userSpaceOnUse" x="4" y="4" width="20" height="20">
    <rect x="4" y="4" width="20" height="20" fill="#D9D9D9"/>
    </mask>
    <g mask="url(#mask0_115_21355)">
    <path d="M14.7153 13.9997L11.3782 10.6628C11.2022 10.4867 11.1143 10.283 11.1143 10.0518C11.1143 9.82051 11.2022 9.61683 11.3782 9.44072C11.5543 9.26474 11.758 9.17676 11.9893 9.17676C12.2205 9.17676 12.4265 9.26711 12.6072 9.4478L16.5536 13.394C16.6329 13.479 16.6941 13.5736 16.7372 13.6778C16.7802 13.7818 16.8018 13.8905 16.8018 14.0038C16.8018 14.1172 16.7802 14.2259 16.7372 14.3299C16.6941 14.434 16.6329 14.5259 16.5536 14.6053L12.6072 18.5515C12.4265 18.7322 12.224 18.8191 11.9997 18.8122C11.7754 18.8052 11.5752 18.7138 11.399 18.5378C11.2231 18.3617 11.1351 18.158 11.1351 17.9268C11.1351 17.6955 11.2231 17.4918 11.399 17.3157L14.7153 13.9997Z" fill="#1C1B1F"/>
    </g>
    </svg>
    