<svg width="21" height="20" viewBox="0 0 21 20" fill="none" xmlns="http://www.w3.org/2000/svg">
    <rect x="0.136719" width="20" height="20" rx="10" fill="#9199AA"/>
    <path d="M10.1332 11.0163L7.86158 13.2878C7.71548 13.434 7.54915 13.5046 7.36259 13.4998C7.17602 13.4949 7.00969 13.4193 6.86359 13.2731C6.71739 13.127 6.64429 12.9583 6.64429 12.7668C6.64429 12.5754 6.71739 12.4066 6.86359 12.2605L9.12037 10.0035L6.84893 7.73196C6.70273 7.58585 6.63207 7.41708 6.63696 7.22563C6.64184 7.03418 6.71739 6.86541 6.86359 6.7193C7.00969 6.5731 7.17847 6.5 7.36992 6.5C7.56136 6.5 7.73014 6.5731 7.87624 6.7193L10.1332 8.99074L12.4048 6.7193C12.5509 6.5731 12.7196 6.5 12.9111 6.5C13.1025 6.5 13.2713 6.5731 13.4174 6.7193C13.5636 6.86541 13.6367 7.03418 13.6367 7.22563C13.6367 7.41708 13.5636 7.58585 13.4174 7.73196L11.146 10.0035L13.4174 12.2751C13.5636 12.4212 13.6367 12.5876 13.6367 12.7741C13.6367 12.9607 13.5636 13.127 13.4174 13.2731C13.2713 13.4193 13.1025 13.4924 12.9111 13.4924C12.7196 13.4924 12.5509 13.4193 12.4048 13.2731L10.1332 11.0163Z" fill="white"/>
    </svg>
    