<svg width="26" height="26" viewBox="0 0 26 26" fill="none" xmlns="http://www.w3.org/2000/svg">
    <rect x="0.53125" y="0.521484" width="24.9483" height="24.9483" rx="12.4741" fill="white"/>
    <rect x="0.53125" y="0.521484" width="24.9483" height="24.9483" rx="12.4741" stroke="#B5C0D4"/>
    <path d="M13.0003 14.44L9.772 17.6682C9.56437 17.8759 9.32798 17.9763 9.06284 17.9694C8.7977 17.9625 8.56131 17.8551 8.35367 17.6473C8.14589 17.4397 8.042 17.1998 8.042 16.9277C8.042 16.6557 8.14589 16.4158 8.35367 16.2082L11.561 13.0007L8.33284 9.77232C8.12506 9.56468 8.02464 9.32482 8.03159 9.05273C8.03853 8.78065 8.14589 8.54079 8.35367 8.33315C8.56131 8.12537 8.80117 8.02148 9.07325 8.02148C9.34534 8.02148 9.5852 8.12537 9.79284 8.33315L13.0003 11.5613L16.2287 8.33315C16.4363 8.12537 16.6762 8.02148 16.9483 8.02148C17.2203 8.02148 17.4602 8.12537 17.6678 8.33315C17.8756 8.54079 17.9795 8.78065 17.9795 9.05273C17.9795 9.32482 17.8756 9.56468 17.6678 9.77232L14.4397 13.0007L17.6678 16.229C17.8756 16.4366 17.9795 16.673 17.9795 16.9382C17.9795 17.2033 17.8756 17.4397 17.6678 17.6473C17.4602 17.8551 17.2203 17.959 16.9483 17.959C16.6762 17.959 16.4363 17.8551 16.2287 17.6473L13.0003 14.44Z" fill="#6D7380"/>
    </svg>
    