<svg width="17" height="16" viewBox="0 0 17 16" fill="none" xmlns="http://www.w3.org/2000/svg">
    <mask id="mask0_105_39452" style="mask-type:alpha" maskUnits="userSpaceOnUse" x="0" y="0" width="17" height="16">
    <rect x="0.117188" width="16" height="16" fill="#D9D9D9"/>
    </mask>
    <g mask="url(#mask0_105_39452)">
    <path d="M7.23848 8.36996L6.48348 7.63146C6.3236 7.47157 6.14076 7.39163 5.93498 7.39163C5.72921 7.39163 5.54632 7.47157 5.38632 7.63146C5.22643 7.79135 5.14804 7.97702 5.15115 8.18846C5.15437 8.3998 5.23593 8.58541 5.39582 8.7453L6.66182 10.0113C6.83026 10.1774 7.0231 10.2605 7.24032 10.2605C7.45754 10.2605 7.64921 10.1774 7.81532 10.0113L10.7907 7.0358C10.9507 6.87591 11.0307 6.69185 11.0307 6.48363C11.0307 6.27541 10.9507 6.09135 10.7907 5.93146C10.6308 5.77157 10.4479 5.69163 10.2422 5.69163C10.0364 5.69163 9.85354 5.77157 9.69365 5.93146L7.23848 8.36996ZM8.11682 14.72C7.18882 14.72 6.3171 14.5452 5.50165 14.1956C4.68632 13.8461 3.9731 13.3657 3.36198 12.7545C2.75076 12.1434 2.27037 11.4301 1.92082 10.6148C1.57126 9.79935 1.39648 8.92763 1.39648 7.99963C1.39648 7.06052 1.57126 6.18602 1.92082 5.37613C2.27037 4.56635 2.75076 3.85591 3.36198 3.2448C3.9731 2.63357 4.68632 2.15319 5.50165 1.80363C6.3171 1.45407 7.18882 1.2793 8.11682 1.2793C9.05593 1.2793 9.93043 1.45407 10.7403 1.80363C11.5501 2.15319 12.2605 2.63357 12.8717 3.2448C13.4829 3.85591 13.9633 4.56635 14.3128 5.37613C14.6624 6.18602 14.8372 7.06052 14.8372 7.99963C14.8372 8.92763 14.6624 9.79935 14.3128 10.6148C13.9633 11.4301 13.4829 12.1434 12.8717 12.7545C12.2605 13.3657 11.5501 13.8461 10.7403 14.1956C9.93043 14.5452 9.05593 14.72 8.11682 14.72Z" fill="#2BA667"/>
    </g>
    </svg>
    