<svg width="21" height="20" viewBox="0 0 21 20" fill="none" xmlns="http://www.w3.org/2000/svg">
    <mask id="mask0_109_16463" style="mask-type:alpha" maskUnits="userSpaceOnUse" x="0" y="0" width="21" height="20">
    <rect x="0.136719" width="20" height="20" fill="#D9D9D9"/>
    </mask>
    <g mask="url(#mask0_109_16463)">
    <path d="M6.50684 17.4007C5.93739 17.4007 5.45475 17.2028 5.05892 16.807C4.66309 16.4111 4.46517 15.9285 4.46517 15.359V5.62988H4.21517C3.93197 5.62988 3.69107 5.53092 3.49246 5.33301C3.29371 5.13523 3.19434 4.89537 3.19434 4.61343C3.19434 4.33148 3.29371 4.09009 3.49246 3.88926C3.69107 3.68856 3.93197 3.58822 4.21517 3.58822H7.86559V3.33822C7.86559 3.05502 7.96496 2.81405 8.16371 2.6153C8.36232 2.41669 8.60322 2.31738 8.88642 2.31738H11.3629C11.6461 2.31738 11.887 2.41669 12.0856 2.6153C12.2843 2.81405 12.3837 3.05502 12.3837 3.33822V3.58822H16.0577C16.3409 3.58822 16.5818 3.68711 16.7804 3.88488C16.9791 4.0828 17.0785 4.32273 17.0785 4.60468C17.0785 4.88648 16.9791 5.1278 16.7804 5.32863C16.5818 5.52947 16.3409 5.62988 16.0577 5.62988H15.8077V15.3499C15.8077 15.9296 15.6098 16.4163 15.2139 16.8101C14.8181 17.2038 14.3354 17.4007 13.766 17.4007H6.50684ZM8.81142 13.9884C9.05406 13.9884 9.26204 13.9029 9.43538 13.7318C9.60871 13.5605 9.69538 13.3529 9.69538 13.109V7.86801C9.69538 7.62412 9.61017 7.41655 9.43975 7.2453C9.26934 7.07405 9.06281 6.98843 8.82017 6.98843C8.57753 6.98843 8.3676 7.07405 8.19038 7.2453C8.01316 7.41655 7.92454 7.62412 7.92454 7.86801V13.109C7.92454 13.3529 8.0117 13.5605 8.186 13.7318C8.36031 13.9029 8.56878 13.9884 8.81142 13.9884ZM11.4645 13.9884C11.7072 13.9884 11.9152 13.9029 12.0885 13.7318C12.2617 13.5605 12.3483 13.3529 12.3483 13.109V7.86801C12.3483 7.62412 12.2632 7.41655 12.0929 7.2453C11.9225 7.07405 11.7159 6.98843 11.4733 6.98843C11.2307 6.98843 11.0207 7.07405 10.8433 7.2453C10.6661 7.41655 10.5775 7.62412 10.5775 7.86801V13.109C10.5775 13.3529 10.6646 13.5605 10.8389 13.7318C11.0132 13.9029 11.2218 13.9884 11.4645 13.9884Z" fill="#9199AA"/>
    </g>
    </svg>
    