<svg width="546" height="299" viewBox="0 0 546 299" fill="none" xmlns="http://www.w3.org/2000/svg">
    <path d="M148.037 198.873L148.157 225.287L155.326 254.67C155.326 254.67 156.086 259.79 162.199 261.765C168.312 263.74 272.391 297.261 272.391 297.261C272.391 297.261 277.75 299.451 285.267 296.294C292.783 293.138 346.346 270.592 346.346 270.592C346.346 270.592 350.84 269.443 351.061 264.473C351.283 259.503 352.049 240.607 352.049 240.607L148.037 198.873Z" fill="#364C50"/>
    <path d="M148.037 198.872L155.328 227.965C156.154 231.262 158.623 233.905 161.86 234.949L270.575 270.053C275.539 271.657 280.915 271.423 285.724 269.401L350.872 241.98C352.509 241.292 352.605 239.009 351.031 238.186L280.595 201.302C278.911 200.419 277.118 199.764 275.263 199.351L205.064 183.75C203.556 183.415 201.994 183.382 200.474 183.651L152.363 192.191C149.257 192.741 147.268 195.811 148.034 198.872H148.037Z" fill="#99A3B6"/>
    <path d="M148.037 198.872L155.328 227.965C156.154 231.262 158.623 233.905 161.86 234.949L270.575 270.053C275.539 271.657 280.916 271.423 285.724 269.401L350.872 241.98C352.509 241.292 352.605 239.009 351.031 238.186L280.595 201.302C278.911 200.419 277.118 199.764 275.263 199.351L205.064 183.75C203.556 183.415 201.994 183.382 200.474 183.651L152.363 192.191C149.257 192.741 147.268 195.811 148.034 198.872H148.037Z" stroke="black" stroke-width="2" stroke-linecap="round" stroke-linejoin="round"/>
    <path d="M352.133 240.368L351.061 264.476C350.948 267.049 349.362 269.326 346.986 270.325L285.724 296.109C280.913 298.135 275.539 298.365 270.572 296.761L161.858 261.657C158.62 260.613 156.152 257.974 155.326 254.673L148.633 227.956C148.238 226.38 148.037 224.761 148.037 223.136V198.873" stroke="black" stroke-width="2" stroke-linecap="round" stroke-linejoin="round"/>
    <path d="M2.38368 26.6562C2.38368 26.6562 1.15225 27.0061 1.00475 28.6182C0.857257 30.2304 4.19137 126.875 4.19137 126.875C4.19137 126.875 4.17422 128.552 5.22384 129.019C6.27347 129.485 10.5131 131.368 10.5131 131.368L77.8059 17.9402L70.6369 14.5786L68.6028 14.6301L55.4619 16.6641L43.2162 18.6982L31.7458 20.5437L19.7162 23.0545L8.00226 25.3562L2.38368 26.6562Z" fill="#0F5AA0"/>
    <path d="M7.68715 29.6679C7.68715 29.6679 6.15044 29.6473 6.32195 32.436C6.49346 35.2247 10.5136 131.372 10.5136 131.372L12.4756 130.669L23.9083 127.009L29.8562 125.287L33.9175 124.169L41.5256 122.183L48.945 120.368L51.5348 119.761L60.9643 117.662L68.3769 116.128L77.9024 114.297L80.8249 113.765C80.8249 113.765 81.8951 113.37 81.8334 112.046C81.7716 110.722 78.7565 18.904 78.7565 18.904C78.7565 18.904 78.6296 17.8476 77.8029 17.947C76.9763 18.0465 75.4876 18.2592 75.4876 18.2592L55.97 21.192L37.7422 24.1899L12.5305 28.7452L7.68372 29.6747L7.68715 29.6679Z" fill="#0584F6"/>
    <path d="M16.3145 86.7866L16.5134 95.9211L17.6694 95.5644C17.6694 95.5644 33.7774 90.4294 40.473 88.6389C47.1687 86.8483 57.8296 84.5158 57.8296 84.5158L72.3837 81.7134L72.298 72.9802L65.3794 74.0882L46.7022 77.978L32.5974 81.6276L16.3179 86.79L16.3145 86.7866Z" fill="#80C3FF"/>
    <path d="M17.01 100.312L16.8008 101.025L16.9071 107.762L19.0784 106.966L28.4667 104.037L40.3865 100.789L52.4401 97.5917L62.8609 95.5542L72.2938 93.8666L72.383 86.4094L70.4895 86.5878L52.6733 90.114L33.1695 95.146L17.01 100.312Z" fill="#80C3FF"/>
    <path d="M17.041 111.546L17.2743 119.775L27.2903 116.629L41.6695 112.204L50.2861 110.078L50.0014 102.103L43.2405 103.646L27.1737 108.246L17.041 111.546Z" fill="#80C3FF"/>
    <path d="M77.6317 17.9469C55.0407 21.1335 31.6368 25.0302 7.42674 29.7157C6.76472 29.8427 6.29478 30.4361 6.32566 31.1084L10.5173 131.368C10.5173 131.368 35.5094 121.898 80.8286 113.758C81.4254 113.652 81.8576 113.12 81.8371 112.516L78.7636 18.897C78.7431 18.3071 78.2182 17.8646 77.6351 17.9469H77.6317Z" stroke="black" stroke-width="2" stroke-linecap="round" stroke-linejoin="round"/>
    <path d="M78.1762 18.0296L78.1419 18.0159L71.1855 14.9733C70.376 14.62 69.4773 14.5 68.6026 14.6303C31.7662 20.1254 7.53557 25.4799 2.11936 26.7182C1.45048 26.8725 0.98398 27.4762 1.00456 28.1623L4.21176 127.52C4.23234 128.175 4.6268 128.758 5.22365 129.022L10.5129 131.372" stroke="black" stroke-width="2" stroke-linecap="round" stroke-linejoin="round"/>
    <path d="M1.33008 27.2117L6.57479 30.2679" stroke="black" stroke-width="2" stroke-linecap="round" stroke-linejoin="round"/>
    <path d="M17.0098 111.546L17.243 119.884C17.243 119.884 30.9602 114.883 50.2205 110.078" stroke="black" stroke-width="2" stroke-linecap="round" stroke-linejoin="round"/>
    <path d="M16.9031 107.762L16.6973 100.422" stroke="black" stroke-width="2" stroke-linecap="round" stroke-linejoin="round"/>
    <path d="M16.5717 95.9214L16.3145 86.6702C39.5915 78.3247 72.2946 72.9771 72.2946 72.9771V81.8646" stroke="black" stroke-width="2" stroke-linecap="round" stroke-linejoin="round"/>
    <path d="M16.5703 95.921C22.4427 93.8732 45.5757 86.1485 72.2932 81.8643" stroke="black" stroke-width="2" stroke-linecap="round" stroke-linejoin="round"/>
    <path d="M16.6973 100.422C22.7686 98.3086 45.7644 90.6628 72.2932 86.4094" stroke="black" stroke-width="2" stroke-linecap="round" stroke-linejoin="round"/>
    <path d="M16.9043 107.762C23.2741 105.55 46.0572 98.0242 72.2944 93.8188" stroke="black" stroke-width="2" stroke-linecap="round" stroke-linejoin="round"/>
    <path d="M17.0098 111.546C21.7502 109.913 34.1502 105.831 50.001 102.102" stroke="black" stroke-width="2" stroke-linecap="round" stroke-linejoin="round"/>
    <path d="M13.6175 39.6391L15.7098 77.9437C15.7544 78.7669 16.5537 79.3329 17.346 79.0962C22.7074 77.4977 40.6745 72.2153 50.0251 70.3356C50.9547 70.1503 51.6064 69.3168 51.5755 68.3701L50.3167 31.7875C50.2892 30.9677 49.562 30.3537 48.7525 30.4635C44.4511 31.0397 31.4302 32.9469 15.6824 36.847C14.4132 37.1626 13.5454 38.3357 13.6175 39.6391Z" stroke="black" stroke-width="2" stroke-linecap="round" stroke-linejoin="round"/>
    <path d="M50.2215 110.078L50.002 102.103" stroke="black" stroke-width="2" stroke-linecap="round" stroke-linejoin="round"/>
    <path d="M72.293 93.8186V86.4094" stroke="black" stroke-width="2" stroke-linecap="round" stroke-linejoin="round"/>
    <path d="M468.766 28.4536L463.299 32.141L538.803 159.887L544.998 156.182V154.254L540.031 53.6584L538.803 52.746L513.883 42.9014L489.076 34.4632L468.766 28.4536Z" fill="#DAC607"/>
    <path d="M463.299 32.1407C463.299 32.1407 462.911 31.6982 462.839 33.3035C462.767 34.9088 466.177 135.279 466.177 135.279C466.177 135.279 466.105 137.1 468.777 137.848C471.449 138.595 512.192 150.893 512.192 150.893L524.709 155.029L538.803 159.886L533.877 58.1309C533.877 58.1309 533.627 56.9818 532.601 56.4879C531.576 55.9939 518.191 50.1798 518.191 50.1798L498.993 43.0314L485.005 38.2944L463.299 32.1407Z" fill="#FFE500"/>
    <path d="M473.113 87.4455L473.723 97.1048L479.18 98.3534L496.664 102.686L508.694 107.018L517.036 109.457L525.937 113.436L529.051 114.856L528.424 104.696L526.499 103.893L506.447 96.5148L496.019 92.9852L484.789 89.778C484.789 89.778 473.051 86.6017 473.106 87.4524L473.113 87.4455Z" fill="#FFF7B9"/>
    <path d="M473.98 100.638L474.179 111.837L482.604 113.803L501.017 118.893L514.432 123.071L529.412 129.533L528.921 118.416L526.136 117.082L516.398 112.87L507.881 109.779L492.061 105.097L473.98 100.638Z" fill="#FFF7B9"/>
    <path d="M474.447 115.425L475.092 127.938L481.026 129.743L500.129 135.69L517.16 140.736L526.98 144.07L530.3 145.497L529.614 132.614L523.104 129.921L516.347 127.218L506.437 123.705L497.515 121.273L482.827 117.037L474.447 115.425Z" fill="#FFF7B9"/>
    <path d="M463.299 32.1415C504.69 43.2895 528.077 54.2625 532.893 56.6294C533.469 56.9141 533.847 57.4869 533.878 58.1283L538.79 159.555C538.796 159.712 538.642 159.826 538.495 159.774C514.415 151.298 490.915 143.964 468.043 137.643C466.969 137.348 466.218 136.391 466.18 135.279L462.692 32.6217C462.681 32.2993 462.987 32.0592 463.299 32.1415Z" stroke="black" stroke-width="2" stroke-linecap="round" stroke-linejoin="round"/>
    <path d="M533.668 57.3799L540.031 53.6582" stroke="black" stroke-width="2" stroke-linecap="round" stroke-linejoin="round"/>
    <path d="M462.84 32.2645L468.767 28.4536C492.737 35.0978 516.347 43.1758 539.229 52.9278C539.816 53.1747 540.207 53.7407 540.234 54.3753L544.999 154.985C545.037 155.723 544.659 156.415 544.028 156.793L538.807 159.887" stroke="black" stroke-width="2" stroke-linecap="round" stroke-linejoin="round"/>
    <path d="M474.237 111.923L473.723 100.583" stroke="black" stroke-width="2" stroke-linecap="round" stroke-linejoin="round"/>
    <path d="M529.487 129.533L529.055 118.327" stroke="black" stroke-width="2" stroke-linecap="round" stroke-linejoin="round"/>
    <path d="M473.566 97.1082L473.113 87.1848C497.906 92.0282 528.534 104.788 528.534 104.788L528.922 114.852" stroke="black" stroke-width="2" stroke-linecap="round" stroke-linejoin="round"/>
    <path d="M529.614 132.744L530.105 145.497C515.376 139.368 474.968 127.928 474.968 127.928L474.389 115.199" stroke="black" stroke-width="2" stroke-linecap="round" stroke-linejoin="round"/>
    <path d="M471.189 47.909L473.051 78.7358C473.089 79.3326 473.508 79.8334 474.091 79.9672C477.637 80.7905 490.483 83.9153 506.965 89.6437L506.211 59.5544C506.187 58.6454 505.631 57.8393 504.791 57.4997C500.39 55.716 486.155 50.1901 471.844 47.3362C471.491 47.2641 471.165 47.5488 471.189 47.909Z" stroke="black" stroke-width="2" stroke-linecap="round" stroke-linejoin="round"/>
    <path d="M473.564 97.1084C481.893 98.9504 509.91 105.543 528.92 114.853" stroke="black" stroke-width="2" stroke-linecap="round" stroke-linejoin="round"/>
    <path d="M473.723 100.583C482.109 102.438 510.079 109.028 529.054 118.327" stroke="black" stroke-width="2" stroke-linecap="round" stroke-linejoin="round"/>
    <path d="M474.238 111.923C482.1 113.652 510.241 120.21 529.488 129.534" stroke="black" stroke-width="2" stroke-linecap="round" stroke-linejoin="round"/>
    <path d="M474.389 115.195C481.945 116.852 510.213 123.4 529.614 132.744" stroke="black" stroke-width="2" stroke-linecap="round" stroke-linejoin="round"/>
    <path d="M380.73 10.291L374.812 14.4244L449.909 132.35L455.404 126.501L451.963 25.1676C451.963 25.1676 452.087 24.0699 450.825 23.7612C449.562 23.4525 418.139 16.5613 418.139 16.5613L380.733 10.2944L380.73 10.291Z" fill="#6E4D19"/>
    <path d="M374.81 14.4247C374.81 14.4247 373.462 14.0268 373.545 16.3901C373.627 18.7535 376.989 115.439 376.989 115.439C376.989 115.439 376.501 116.804 378.481 117.161C380.46 117.518 440.608 129.174 449.097 132.593C449.097 132.593 450.016 132.954 449.907 130.83C449.797 128.707 446.278 28.454 446.278 28.454C446.278 28.454 445.914 27.7234 444.954 27.4935C443.993 27.2637 423.172 22.6845 423.172 22.6845L404.443 19.0828L388.016 16.373L374.814 14.4247H374.81Z" fill="#FFAB11"/>
    <path d="M382.027 68.1548L382.291 77.303L397.13 79.663L422.589 84.8459L431 86.5987L430.53 77.303L403.713 71.8422L385.787 68.4841L382.027 68.1548Z" fill="#FCEBCF"/>
    <path d="M382.451 80.4856L382.77 90.3644L404.264 94.5252L433.855 100.638L439.968 102L439.46 91.8085L404.912 84.8453L382.451 80.4856Z" fill="#FCEBCF"/>
    <path d="M383.053 95.3831L383.331 106.898L403.208 110.908L422.911 115.086L436.498 118.417L435.558 105.32L403.51 98.6005L393.402 97.1084L383.053 95.3831Z" fill="#FCEBCF"/>
    <path d="M378.48 117.161C401.218 121.267 424.78 126.361 449.096 132.593C449.515 132.7 449.92 132.377 449.906 131.945L446.407 29.0301C446.383 28.32 445.889 27.7163 445.2 27.5517C425.099 22.7597 401.62 18.1531 374.809 14.421C374.11 14.325 373.492 14.8807 373.516 15.5839L375.78 80.7293L375.859 83.0104L375.928 84.9313L375.986 86.6498L376.079 89.2773L376.085 89.4557L376.188 92.4742L376.988 115.436C377.018 116.29 377.636 117.007 378.48 117.158V117.161Z" stroke="black" stroke-width="2" stroke-linecap="round" stroke-linejoin="round"/>
    <path d="M374.021 14.6064L379.911 10.6343C380.326 10.3564 380.827 10.2398 381.321 10.3118C402.965 13.4539 424.675 17.5014 446.188 22.6398C447.732 23.0068 449.276 23.3807 450.816 23.7615C451.467 23.9227 451.934 24.499 451.955 25.1678L455.395 125.994C455.412 126.495 455.217 126.982 454.86 127.335L449.773 132.35" stroke="black" stroke-width="2" stroke-linecap="round" stroke-linejoin="round"/>
    <path d="M446.037 28.0666L451.683 24.3586" stroke="black" stroke-width="2" stroke-linecap="round" stroke-linejoin="round"/>
    <path d="M382.78 90.6698L382.451 80.8904" stroke="black" stroke-width="2" stroke-linecap="round" stroke-linejoin="round"/>
    <path d="M382.332 77.3026L382.023 68.144C399.174 70.6172 419.443 74.946 430.529 77.4363" stroke="black" stroke-width="2" stroke-linecap="round" stroke-linejoin="round"/>
    <path d="M439.969 101.852L439.461 92.011" stroke="black" stroke-width="2" stroke-linecap="round" stroke-linejoin="round"/>
    <path d="M382.941 95.3831L383.332 107.025C383.332 107.025 418.855 114.016 436.212 118.417" stroke="black" stroke-width="2" stroke-linecap="round" stroke-linejoin="round"/>
    <path d="M380.267 25.0068L381.975 59.2328C382.006 59.84 382.449 60.3476 383.049 60.4608L416.582 66.69C417.416 66.8443 418.174 66.1823 418.136 65.3385L416.565 30.9684C416.538 30.3544 416.088 29.8433 415.485 29.7335L381.814 23.6484C380.981 23.4975 380.226 24.1629 380.267 25.0068Z" stroke="black" stroke-width="2" stroke-linecap="round" stroke-linejoin="round"/>
    <path d="M382.332 77.3026C395.223 79.1411 417.978 83.8439 430.999 86.6154" stroke="black" stroke-width="2" stroke-linecap="round" stroke-linejoin="round"/>
    <path d="M382.332 80.8735C382.373 80.8804 382.411 80.8838 382.452 80.8907C399.167 83.2815 432.217 90.4299 439.461 92.0112" stroke="black" stroke-width="2" stroke-linecap="round" stroke-linejoin="round"/>
    <path d="M382.781 90.6701C400.031 93.1707 433.963 100.539 439.969 101.852" stroke="black" stroke-width="2" stroke-linecap="round" stroke-linejoin="round"/>
    <path d="M382.941 95.3831C397.65 97.5269 424.24 103.145 435.557 105.584" stroke="black" stroke-width="2" stroke-linecap="round" stroke-linejoin="round"/>
    <path d="M430.999 86.6151L430.529 77.436" stroke="black" stroke-width="2" stroke-linecap="round" stroke-linejoin="round"/>
    <path d="M436.212 118.417L435.557 105.584" stroke="black" stroke-width="2" stroke-linecap="round" stroke-linejoin="round"/>
    <path d="M162.497 4.22998L139.978 6.07197L118.691 8.18838L104.222 9.83828L90.6595 11.5636C90.6595 11.5636 88.9787 11.9307 89.0679 14.15C89.1571 16.3693 91.0574 69.5161 91.0574 69.5161L92.5152 106.994L98.0789 110.897L171.968 7.92769L164.068 4.22998H162.497Z" fill="#84374E"/>
    <path d="M95.5344 15.5462C95.5344 15.5462 93.8983 15.7417 93.9943 17.6386C94.0903 19.5355 97.3113 110.256 97.3113 110.256L98.0831 110.898L100.186 110.579C100.186 110.579 144.342 103.982 174.596 103.269C174.596 103.269 176.448 103.176 176.407 101.955C176.363 100.734 173.1 8.94658 173.1 8.94658C173.1 8.94658 173.121 8.08219 171.368 8.19881C169.615 8.31544 98.9817 14.0129 95.5379 15.5428L95.5344 15.5462Z" fill="#FF628B"/>
    <path d="M103.77 67.5268L104.082 75.7111C104.082 75.7111 143.038 69.2487 150.982 69.5197V61.3491L132.068 63.2151C132.068 63.2151 104.38 66.9539 103.77 67.5268Z" fill="#FFA2BB"/>
    <path d="M104.082 79.3195L104.573 88.1007L135.197 83.7101L158.278 81.4187L166.6 81.1821L166.456 72.3357L153.113 72.9463L123.113 76.0163L104.082 79.3195Z" fill="#FFA2BB"/>
    <path d="M104.94 92.656L105.289 101.753L123.332 99.1355L143.635 96.6727V86.9619L119.216 90.1142C119.216 90.1142 104.905 91.771 104.94 92.6525V92.656Z" fill="#FFA2BB"/>
    <path d="M172.212 8.14723C172.682 8.11636 173.08 8.47995 173.097 8.94988L175.667 81.3227L176.298 99.012L176.401 101.962C176.425 102.641 175.896 103.21 175.221 103.241C145.958 104.672 120.112 107.532 98.0799 110.897C97.682 110.959 97.3218 110.657 97.3081 110.256L93.9911 16.8564C93.9671 16.2287 94.4302 15.6867 95.0545 15.6044C121.978 12.1639 147.697 9.72853 172.209 8.1438L172.212 8.14723Z" stroke="black" stroke-width="2" stroke-linecap="round" stroke-linejoin="round"/>
    <path d="M89.5352 12.3284L94.3339 15.978" stroke="black" stroke-width="2" stroke-linecap="round" stroke-linejoin="round"/>
    <path d="M172.599 8.21921L164.799 4.64499C164.079 4.31569 163.286 4.17163 162.497 4.22994C137.389 6.05478 114.245 8.50734 93.7914 11.1348C92.8482 11.2549 91.9117 11.3749 90.9822 11.4984C89.8605 11.6425 89.0338 12.6201 89.0716 13.7486L89.1607 16.3727L92.3817 106.483C92.3954 106.86 92.584 107.207 92.8893 107.423L97.6024 110.736" stroke="black" stroke-width="2" stroke-linecap="round" stroke-linejoin="round"/>
    <path d="M104.573 88.0046L104.223 79.1377" stroke="black" stroke-width="2" stroke-linecap="round" stroke-linejoin="round"/>
    <path d="M166.613 81.2063L166.455 72.2844" stroke="black" stroke-width="2" stroke-linecap="round" stroke-linejoin="round"/>
    <path d="M104.744 92.3745L105.115 101.753C105.115 101.753 123.898 98.6037 143.632 96.6725" stroke="black" stroke-width="2" stroke-linecap="round" stroke-linejoin="round"/>
    <path d="M104.082 75.5602L103.77 67.6331C115.912 65.0673 136.74 62.752 150.982 61.3491" stroke="black" stroke-width="2" stroke-linecap="round" stroke-linejoin="round"/>
    <path d="M100.563 23.854L102.717 60.0558C102.751 60.6458 103.286 61.0814 103.873 60.9957C109.186 60.2102 132.371 56.78 138.119 56.0391C138.833 55.9465 139.354 55.3222 139.32 54.6019L137.56 19.7892C137.529 19.2027 137.015 18.7636 136.432 18.8254L101.605 22.6226C100.985 22.6912 100.525 23.2331 100.563 23.8574V23.854Z" stroke="black" stroke-width="2" stroke-linecap="round" stroke-linejoin="round"/>
    <path d="M104.082 75.5603C110.047 74.5415 130.782 71.1457 150.983 69.5198" stroke="black" stroke-width="2" stroke-linecap="round" stroke-linejoin="round"/>
    <path d="M104.223 79.1379C111.989 77.8173 142.788 72.8058 166.456 72.2844" stroke="black" stroke-width="2" stroke-linecap="round" stroke-linejoin="round"/>
    <path d="M104.572 88.0045C112.894 86.5947 143.264 81.6999 166.613 81.2059" stroke="black" stroke-width="2" stroke-linecap="round" stroke-linejoin="round"/>
    <path d="M104.744 92.3744C110.617 91.3797 126.649 88.7899 143.632 87.1057" stroke="black" stroke-width="2" stroke-linecap="round" stroke-linejoin="round"/>
    <path d="M150.982 69.5197V61.3491" stroke="black" stroke-width="2" stroke-linecap="round" stroke-linejoin="round"/>
    <path d="M143.631 96.6724V87.1057" stroke="black" stroke-width="2" stroke-linecap="round" stroke-linejoin="round"/>
    <path d="M183.688 2.87869C183.688 2.87869 181.102 2.59398 181.252 6.18535C181.403 9.7733 184.607 101.502 184.607 101.502L189.293 102.72L264.098 6.99487L262.715 5.35869L258.078 1.48261L255.961 1.15332H227.491L209.479 1.77761L183.695 2.87526L183.688 2.87869Z" fill="#1C7E20"/>
    <path d="M188.065 7.22812C188.065 7.22812 185.979 6.76162 186.075 9.38911C186.172 12.0166 189.296 102.713 189.296 102.713H197.934L222.569 102.278L230.626 102.377L246.158 102.837L261.673 103.372L267.538 103.832L265.827 55.511L264.101 6.98801C264.101 6.98801 264.122 5.93838 261.906 5.90408C259.69 5.86977 233.549 5.76001 233.549 5.76001L203.446 6.53865L188.065 7.22126V7.22812Z" fill="#C4F448"/>
    <path d="M195.447 57.0616L195.636 66.4396L201.141 65.9731L227.969 64.433L245.744 64.1997L257.595 64.5256L257.362 55.5214H256.055L235.992 54.9143L227.169 55.0378L214.951 55.5695L204.314 56.2692L195.447 57.0616Z" fill="#9EE7A2"/>
    <path d="M195.797 70.4085L195.989 79.6905L221.372 77.9822L236.65 77.7044L257.951 77.8485L257.595 67.9971H238.979L219.873 68.834L202.626 69.8528L195.797 70.4085Z" fill="#9EE7A2"/>
    <path d="M195.902 83.4055L196.118 93.6068L213.835 92.6669L238.453 91.9191L258.345 92.588L257.95 81.4194H255.306H232.025L214.463 82.0026L195.902 83.4055Z" fill="#9EE7A2"/>
    <path d="M189.385 102.672C197.984 102.398 206.848 102.254 215.975 102.254C217.183 102.254 218.394 102.257 219.611 102.264C234.882 102.329 250.87 102.81 267.534 103.797" stroke="black" stroke-width="2" stroke-linecap="round" stroke-linejoin="round"/>
    <path d="M187.928 102.717H187.924" stroke="black" stroke-width="2" stroke-linecap="round" stroke-linejoin="round"/>
    <path d="M267.535 103.797L265.995 60.3853L264.098 6.99494C264.077 6.40839 263.604 5.93846 263.017 5.92817C239.322 5.50969 214.11 5.88014 187.393 7.26249C186.621 7.30366 186.024 7.95539 186.052 8.72374L188.738 84.3552L189.389 102.669L189.406 103.139" stroke="black" stroke-width="2" stroke-linecap="round" stroke-linejoin="round"/>
    <path d="M182.049 3.87695L186.563 7.58838" stroke="black" stroke-width="2" stroke-linecap="round" stroke-linejoin="round"/>
    <path d="M263.878 6.37769L263.511 6.05526L258.846 1.9871C258.245 1.46228 257.474 1.17072 256.674 1.16043C232.08 0.934038 208.316 1.56176 185.835 2.76231C185.118 2.80004 184.401 2.83777 183.688 2.87894C182.288 2.9544 181.204 4.1378 181.256 5.5373L181.328 7.59197L184.014 83.2646L184.672 101.753" stroke="black" stroke-width="2" stroke-linecap="round" stroke-linejoin="round"/>
    <path d="M193.411 16.7059L195.247 50.3419C195.277 50.9319 195.802 51.371 196.389 51.3024C200.066 50.8668 212.806 49.4947 229.816 49.1688C230.272 49.1585 230.636 48.7812 230.625 48.325L229.744 15.3955C229.73 14.9016 229.335 14.5037 228.842 14.4934C225.459 14.4042 212.576 14.2121 194.31 15.6802C193.782 15.7214 193.384 16.1776 193.411 16.7059Z" stroke="black" stroke-width="2" stroke-linecap="round" stroke-linejoin="round"/>
    <path d="M195.902 79.7005L195.689 70.4185" stroke="black" stroke-width="2" stroke-linecap="round" stroke-linejoin="round"/>
    <path d="M195.597 66.4674L195.381 57.0996C231.686 53.3367 257.353 55.556 257.353 55.556L257.594 64.4264" stroke="black" stroke-width="2" stroke-linecap="round" stroke-linejoin="round"/>
    <path d="M258.05 81.4196L258.345 92.3755C224.52 91.4699 196.232 93.8642 196.232 93.8642L195.988 83.4056" stroke="black" stroke-width="2" stroke-linecap="round" stroke-linejoin="round"/>
    <path d="M257.952 77.7045L257.701 68.3916" stroke="black" stroke-width="2" stroke-linecap="round" stroke-linejoin="round"/>
    <path d="M195.598 66.4673C203.538 65.7401 231.748 63.411 257.594 64.4264" stroke="black" stroke-width="2" stroke-linecap="round" stroke-linejoin="round"/>
    <path d="M195.689 70.4181C203.767 69.6807 231.926 67.3687 257.7 68.3909" stroke="black" stroke-width="2" stroke-linecap="round" stroke-linejoin="round"/>
    <path d="M195.902 79.7009C204.279 78.9394 232.331 76.6652 257.95 77.7046" stroke="black" stroke-width="2" stroke-linecap="round" stroke-linejoin="round"/>
    <path d="M195.988 83.4052C204.478 82.6369 232.489 80.3764 258.05 81.4192" stroke="black" stroke-width="2" stroke-linecap="round" stroke-linejoin="round"/>
    <path d="M280.8 5.79417L286.381 1.88037H288.665C288.665 1.88037 353.41 5.31395 362.499 8.12668L366.43 109.121L360.99 114.166L279.768 6.63113L280.8 5.79417Z" fill="#553F53"/>
    <path d="M280.882 6.40109C280.882 6.40109 279.458 5.88657 279.524 7.65653C279.589 9.42648 282.93 103.526 282.93 103.526C282.93 103.526 283.019 104.846 284.288 104.946C285.557 105.045 307.013 107.004 307.013 107.004L337.209 110.616L360.99 114.159L357.46 13.1928C357.46 13.1928 357.258 12.1603 355.584 11.9682C353.91 11.7761 321.629 8.689 321.629 8.689L287.166 6.6412L280.882 6.40109Z" fill="#BE86BF"/>
    <path d="M289.314 58.7009L289.76 67.6262L310.002 68.3945L336.716 70.7133L352.073 72.521L351.397 62.7348L332.877 61.078L309.065 59.1743L289.314 58.7009Z" fill="#D8B8D8"/>
    <path d="M289.963 71.656L290.436 81.3462L303.855 81.5897L318.649 82.4507L339.419 84.3407L338.733 74.5991L319.414 73.3779L307.556 72.5204L295.674 71.8412L289.963 71.656Z" fill="#D8B8D8"/>
    <path d="M290.666 85.8713L291.273 96.299L307.011 97.7259L328.621 99.9075L348.961 102.408L353.891 103.026L353.002 89.13L290.666 85.8713Z" fill="#D8B8D8"/>
    <path d="M360.991 114.163L360.438 98.3638L360.349 95.8221L360.257 93.2323L360.037 86.914L357.461 13.1966C357.44 12.6169 357.001 12.1366 356.425 12.0715C333.247 9.35822 307.837 7.33443 280.221 6.38085C279.819 6.36713 279.487 6.69642 279.5 7.09775L281.14 53.2367L281.366 59.6546L281.545 64.6866L282.509 91.8122L282.924 103.53C282.951 104.281 283.534 104.891 284.282 104.95C308.561 106.843 334.163 109.824 360.984 114.163" stroke="black" stroke-width="2" stroke-linecap="round" stroke-linejoin="round"/>
    <path d="M362.502 8.12671L357.004 12.3012" stroke="black" stroke-width="2" stroke-linecap="round" stroke-linejoin="round"/>
    <path d="M279.768 6.52812L279.822 6.49039L285.688 2.31589C286.11 2.01404 286.618 1.86311 287.136 1.88369C310.083 2.76524 333.57 4.45974 357.248 7.19014C358.757 7.36165 360.27 7.54002 361.783 7.72182C362.311 7.78699 362.712 8.22605 362.733 8.75772L362.877 12.8499L365.47 87.0132L365.775 95.7944L366.427 108.671C366.441 108.987 366.314 109.296 366.081 109.512L360.987 114.163" stroke="black" stroke-width="2" stroke-linecap="round" stroke-linejoin="round"/>
    <path d="M287.634 15.0144L289.315 50.8184L325.575 52.8525C326.038 52.8799 326.419 52.4957 326.391 52.0327L324.34 16.781C324.306 16.1636 323.819 15.6696 323.205 15.6284C318.924 15.3197 302.641 14.1981 288.708 13.9099C288.097 13.8962 287.606 14.4039 287.634 15.0144Z" stroke="black" stroke-width="2" stroke-linecap="round" stroke-linejoin="round"/>
    <path d="M352.844 86.1524L353.726 103.025C353.726 103.025 301.756 96.8373 291.17 96.2611L290.429 81.2644L289.963 71.8418" stroke="black" stroke-width="2" stroke-linecap="round" stroke-linejoin="round"/>
    <path d="M289.76 67.7667L289.311 58.6802C289.311 58.6802 319.276 59.2016 351.64 63.1086L352.134 72.5483" stroke="black" stroke-width="2" stroke-linecap="round" stroke-linejoin="round"/>
    <path d="M289.76 67.7668C318.079 67.8766 345.369 71.5709 352.134 72.5485" stroke="black" stroke-width="2" stroke-linecap="round" stroke-linejoin="round"/>
    <path d="M289.963 71.8418C308.506 71.9276 326.59 73.5397 338.733 74.9152" stroke="black" stroke-width="2" stroke-linecap="round" stroke-linejoin="round"/>
    <path d="M290.43 81.2646C309.158 81.3744 327.372 83.0346 339.419 84.4135" stroke="black" stroke-width="2" stroke-linecap="round" stroke-linejoin="round"/>
    <path d="M339.418 84.4134L338.732 74.9153" stroke="black" stroke-width="2" stroke-linecap="round" stroke-linejoin="round"/>
    <path d="M283.581 58.4494L289.835 48.6441L303.841 44.3982L310.974 52.3155L311.707 56.7469C311.707 56.7469 311.653 59.7869 310.008 61.6899C308.362 63.5959 306.674 65.6066 306.674 65.6066C306.674 65.6066 305.956 67.7969 304.484 69.0626C303.009 70.3283 297.854 73.8321 297.854 73.8321C297.854 73.8321 297.237 74.8016 295.675 74.5113C294.113 74.2211 290.933 73.2815 290.933 73.2815C290.933 73.2815 288.671 70.7023 285.58 67.9286C282.489 65.1548 277.6 63.9789 277.6 63.9789C277.6 63.9789 278.665 63.925 280.337 62.6594C282.01 61.3937 283.584 58.4464 283.584 58.4464L283.581 58.4494Z" fill="#865730"/>
    <path d="M287.415 56.5913C287.415 56.5913 286.374 57.3484 285.458 57.7314C284.543 58.1144 283.582 58.4495 283.582 58.4495L284.444 55.571C284.444 55.571 284.498 51.9296 285.015 50.1971C285.533 48.4646 286.242 45.0296 289.453 43.1057C292.663 41.1817 296.963 38.5366 302.702 40.9902C308.441 43.4438 309.222 45.5533 310.506 47.6388C311.789 49.7243 311.894 54.5297 311.894 54.5297V56.2682C311.894 56.2682 310.251 52.2437 308.351 50.2509C306.451 48.2582 305.748 47.6448 305.748 47.6448L303.193 46.1277L302.591 46.2654L298.992 49.8949C298.992 49.8949 296.023 50.5741 294.707 51.2084C293.39 51.8428 291.616 52.7554 291.616 52.7554C291.616 52.7554 292.208 50.1522 290.545 49.9547C288.881 49.7572 286.99 54.1557 286.999 54.7242C287.008 55.2927 287.415 56.5884 287.415 56.5884V56.5913Z" fill="black"/>
    <path d="M302.227 52.3604C302.227 52.3604 303.193 52.4083 303.839 52.9708C304.486 53.5333 305.925 55.951 305.925 55.951L305.078 56.2652L302.227 52.3574V52.3604Z" fill="black"/>
    <path d="M307.488 60.8044L308.209 60.5142L309.412 62.4082L308.862 62.863L307.488 60.8044Z" fill="black"/>
    <path d="M177.363 90.6749C177.363 90.6749 178.061 87.1621 178.731 86.1298C179.401 85.0975 180.664 83.781 180.664 83.781C180.664 83.781 178.058 82.6888 177.483 81.5728C176.909 80.4567 175.73 77.683 174.626 76.2407C173.521 74.7985 170.927 73.4221 170.927 73.4221C170.927 73.4221 170.015 74.4335 170.562 75.2473C171.113 76.0582 172.202 77.5663 172.202 77.5663L172.378 78.6734L167.561 75.6244L159.898 73.9158C159.898 73.9158 158.471 74.8943 159.407 75.4179C160.344 75.9415 164.497 77.2611 164.497 77.2611L166.729 78.9397L164.162 78.036H156.87C156.87 78.036 156.34 78.796 157.28 79.592C158.22 80.3879 161.574 80.5315 161.574 80.5315L164.105 80.7499L165.191 82.0066L163.671 81.7882L156.655 81.5668C156.655 81.5668 155.85 82.0306 155.996 82.8983C156.143 83.766 157.759 83.775 157.759 83.775L162.959 83.9845L165.622 85.2053L160.628 85.4327C160.628 85.4327 158.028 85.9383 158.653 87.0006C159.279 88.0628 162.076 87.5062 162.076 87.5062L167.118 87.6738C167.118 87.6738 169.096 89.0502 170.134 89.3853C171.173 89.7234 174.281 89.7234 174.281 89.7234L177.363 90.669V90.6749Z" fill="#865730"/>
    <path d="M297.161 63.7966C297.161 63.7966 297.017 65.4004 297.466 66.5734C297.915 67.7463 299.848 69.3501 299.848 69.3501L300.901 68.7307C300.901 68.7307 300.177 65.9719 298.95 65.0234C297.723 64.0749 297.161 63.7996 297.161 63.7996V63.7966Z" fill="#F8F8F8"/>
    <path d="M228.714 112.943L226.889 118.885L256.756 128.586L259.315 121.805L229.39 112.419L228.714 112.943Z" fill="black"/>
    <path d="M354.688 90.0409C354.688 90.0409 357.159 89.7148 358.162 89.4126C359.164 89.1104 365.531 83.6826 366.579 83.147C367.626 82.6114 371.866 80.9477 371.866 80.9477L375.355 79.8616C375.355 79.8616 375.959 81.3337 374.245 81.8723C372.53 82.4109 370.316 83.4791 370.316 83.4791L369.101 84.5323L370.69 84.1972L376.151 83.7933C376.151 83.7933 376.552 84.6131 375.537 84.8734C374.523 85.1338 370.977 86.0434 370.977 86.0434L375.89 85.9207C375.89 85.9207 375.636 87.1266 374.535 87.3689C373.434 87.6113 372.15 87.8507 372.15 87.8507L373.598 87.9943C373.598 87.9943 373.871 89.0026 371.959 89.3886C370.047 89.7716 367.503 90.0349 367.503 90.0349L365.131 91.8631H366.432L368.078 92.0187C368.078 92.0187 369.879 91.7375 370.181 91.8961C370.484 92.0546 371.806 93.3832 369.541 93.9098C367.273 94.4364 365.113 94.5501 365.113 94.5501L362.004 95.5555C362.004 95.5555 360.119 97.2909 357.07 97.4585C354.021 97.6261 350.412 97.3298 350.412 97.3298C350.412 97.3298 352.157 93.7751 352.824 92.8117C353.491 91.8482 354.688 90.0349 354.688 90.0349V90.0409Z" fill="#865730"/>
    <path d="M206.121 190.138L202.494 191.688C202.494 191.688 205.172 195.027 205.965 196.619C206.755 198.214 207.677 201.78 207.677 201.78L212.832 198.462C212.832 198.462 211.15 195.5 209.621 193.702C208.095 191.903 206.124 190.138 206.124 190.138H206.121Z" fill="#865730"/>
    <path d="M275.075 63.614L269.973 66.6451L264.928 66.3788C264.928 66.3788 259.405 66.1035 255.344 66.8545C251.284 67.6056 246.855 68.949 246.855 68.949L242.221 70.5828L219.588 86.9619L214.28 90.5584L189.654 84.7716L187.632 85.373L181.629 83.0182C181.629 83.0182 180.483 83.8979 179.316 85.2055C178.149 86.513 176.929 91.1509 177.71 92.8804L183.586 95.2352C183.586 95.2352 183.523 96.6415 185.495 98.1017C187.467 99.5619 202.793 104.098 202.793 104.098C202.793 104.098 213.957 107.288 216.997 106.794C220.037 106.3 230.174 100.558 230.174 100.558L225.967 108.637C225.967 108.637 225.575 113.048 228.54 114.618C231.506 116.189 238.818 116.186 238.818 116.186C238.818 116.186 241.655 118.993 244.058 119.334C246.46 119.675 247.747 119.738 247.747 119.738C247.747 119.738 249.68 121.123 251.062 121.68C252.445 122.236 255.012 122.219 255.012 122.219C255.012 122.219 257.621 123.921 259.219 123.742C260.817 123.562 262.035 123.341 262.035 123.341L263.818 121.273L266.457 112.787L267.66 111.827L276.002 101.926L283.111 94.164C283.111 94.164 286.403 94.0832 289.44 94.7834C292.477 95.4836 307.489 99.0023 307.489 99.0023C307.489 99.0023 314.05 100.382 317.037 100.552C320.023 100.723 328.688 101.234 328.688 101.234L330.633 101.294L338.458 101.36H341.345L344.241 99.9598L349.87 100.735C349.87 100.735 349.732 98.6134 350.66 96.6565C351.587 94.6996 354.687 90.0348 354.687 90.0348L347.862 89.3765C347.862 89.3765 345.764 87.5842 344.241 87.6172C342.718 87.6501 332.85 86.8033 332.85 86.8033L323.027 85.6214L312.854 83.3174L303.745 80.053L293.264 75.4271L291.762 74.5923L290.721 72.8688L288.04 69.9604C288.04 69.9604 283.381 66.3309 281.202 65.3644C279.024 64.398 276.274 63.608 276.274 63.608H275.075V63.614Z" fill="#88C9D4"/>
    <path d="M227.521 112.676L226.231 117.94C226.231 117.94 219.825 123.035 220.334 129.301C220.842 135.566 222.503 141.135 222.503 141.135L234.229 173.818L203.697 188.333C203.697 188.333 205.424 189.213 207.369 190.963C209.314 192.714 212.252 197.489 212.252 197.489C212.252 197.489 213.194 200.293 213.224 200.562C213.254 200.831 213.26 201.777 213.26 201.777L250.082 182.992C250.082 182.992 253.035 180.96 252.317 177.178C251.599 173.396 246.74 149.019 246.74 149.019L280.844 163.432L268.932 210.885C268.932 210.885 273.561 213.698 278.268 213.59C282.975 213.482 285.452 213.123 285.452 213.123L296.742 170.246C296.742 170.246 299.833 157.215 298.908 154.854C297.983 152.493 293.776 149.692 293.776 149.692L282.55 142.278L266.072 133.107L256.751 128.074L245.725 123.741L246.784 119.741H244.759L243.469 122.975L236.617 120.27L237.736 116.189H235.579L234.31 119.741L227.91 117.811L229.017 114.894C229.017 114.894 227.305 114.364 227.515 112.673L227.521 112.676Z" fill="#567F84"/>
    <path d="M177.937 88.2843L183.649 89.936L183.314 91.4949L183.398 92.7187C183.398 92.7187 210.477 101.399 214.54 100.848C221.715 99.8759 236.835 87.3537 238.298 85.2951C239.761 83.2365 247.292 73.8621 247.292 73.8621L238.513 87.6799L230.177 100.558C230.177 100.558 219.169 107.159 215.378 106.955C211.587 106.752 195.707 101.982 195.707 101.982L187.117 98.9065C187.117 98.9065 184.723 97.9161 184.436 97.186C184.149 96.4559 183.589 95.2321 183.589 95.2321L177.359 92.4823V90.669L177.934 88.2813L177.937 88.2843Z" fill="#77ACB4"/>
    <path d="M273.105 95.1331C273.105 95.1331 283.057 90.1751 287.976 90.2559C292.896 90.3366 308.575 95.7016 322.491 96.71C336.408 97.7183 342.784 97.5148 342.784 97.5148L343.942 95.1331C343.942 95.1331 345.252 96.1205 346.596 96.3898C347.939 96.6591 350.662 96.6591 350.662 96.6591L350.414 97.3323L352.873 97.7153C352.873 97.7153 351.108 100.525 349.869 100.737C348.631 100.95 344.241 99.9624 344.241 99.9624C344.241 99.9624 342.491 100.965 340.474 101.162C338.457 101.36 324.535 101.36 324.535 101.36C324.535 101.36 312.889 99.6034 310.579 99.5525C308.269 99.5016 289.44 94.786 289.44 94.786L286.427 94.0649L283.108 94.1666L268.426 110.86L266.493 113.568C266.493 113.568 264.563 120.875 263.297 122.107C262.031 123.34 260.356 123.445 259.216 123.741C258.076 124.037 255.44 122.218 255.44 122.218C255.44 122.218 253.824 122.535 252.442 122.107C251.059 121.68 248.944 120.54 248.944 120.54L247.747 119.741C247.747 119.741 244.12 119.232 242.469 118.819C240.817 118.406 238.818 116.186 238.818 116.186C238.818 116.186 233.181 116.042 231.457 115.725C229.734 115.408 228.543 114.618 228.543 114.618L226.479 112.164C226.479 112.164 229.507 114.088 233.911 114.453C238.319 114.816 249.674 114.998 249.674 114.998L243.633 115.908C243.633 115.908 245.314 117.607 248.267 117.939C251.221 118.271 255.353 117.939 255.353 117.939L252.421 118.771C252.421 118.771 255.76 119.154 257.397 117.939C259.033 116.725 261.574 108.143 265.646 102.745C269.718 97.3473 273.105 95.1331 273.105 95.1331Z" fill="#77ACB4"/>
    <path d="M202.493 191.687L197.389 194.042C197.389 194.042 198.259 196.34 198.2 198.599C198.14 200.858 197.164 203.736 198.37 204.577C199.576 205.418 200.958 205.768 200.958 205.768L207.969 201.343C207.969 201.343 206.781 196.932 205.007 195.05C203.232 193.168 202.499 191.687 202.499 191.687H202.493Z" fill="#77ACB4"/>
    <path d="M272.391 212.285L271.209 219.009H272.762C272.762 219.009 274.997 219.849 275.766 220.34C276.535 220.831 277.4 221.734 279.677 221.782C281.954 221.83 282.477 221.103 282.477 221.103L283.594 213.419C283.594 213.419 280.102 213.5 277.4 213.386C274.698 213.273 272.388 212.282 272.388 212.282L272.391 212.285Z" fill="#77ACB4"/>
    <path d="M282.983 216.118C282.983 216.118 281.029 216.313 279.192 216.448C277.355 216.582 274.548 215.888 274.548 215.888L273.86 219.443L271.209 219.009L272.34 212.483C272.34 212.483 277.002 213.53 278.704 213.596C280.407 213.662 283.594 213.662 283.594 213.662L282.98 216.118H282.983Z" fill="#567F84"/>
    <path d="M185.804 194.557C185.804 194.557 188.048 193.411 191.013 193.312C193.978 193.214 197.778 193.42 197.778 193.42L197.386 194.372C197.386 194.372 198.191 197.074 198.158 199.775C198.125 202.477 197.994 204.258 198.685 204.949C199.376 205.64 201.222 205.769 201.222 205.769L201.946 205.413L202.308 208.97L203.697 212.462C203.697 212.462 206.165 212.917 207.961 213.596C209.756 214.275 209.615 215.79 209.615 215.79C209.615 215.79 203.541 218.731 200.782 218.102C198.024 217.474 193.67 209.042 193.67 209.042L189.559 200.108C189.559 200.108 187.662 196.14 187.234 195.736C186.806 195.332 185.154 194.56 185.154 194.56H185.801L185.804 194.557Z" fill="black"/>
    <path d="M271.209 219.009C271.209 219.009 268.761 221.654 267.633 224.769C266.508 227.881 265.709 232.234 265.709 232.234L267.714 232.815C267.714 232.815 273.411 233.371 275.275 233.171C277.139 232.97 279.946 232.48 281.759 232.533C283.572 232.587 290.478 232.68 294.32 232.165C298.162 231.651 301.438 228.916 301.438 228.916C301.438 228.916 301.049 227.216 300.083 226.833C299.113 226.45 289.488 223.605 287.297 222.566C285.107 221.528 283.566 220.622 283.566 220.622L282.639 219.984L282.474 221.109C282.474 221.109 281.071 221.899 279.057 221.791C277.043 221.684 275.275 219.915 274.294 219.449C273.312 218.982 271.792 219.111 271.792 219.111L271.209 219.015V219.009Z" fill="black"/>
    <path d="M182.12 197.319C182.12 197.319 183.694 196.421 184.463 197.082C185.232 197.744 188.359 204.97 188.359 204.97L191.399 208.671C191.399 208.671 193.592 214.344 194.993 216.22C196.393 218.096 198.999 220.619 198.999 220.619C198.999 220.619 193.688 220.083 193.215 219.652C192.743 219.221 187.375 212.713 187.24 211.81C187.105 210.906 187.141 209.317 186.648 208.668C186.154 208.019 184.308 206.026 184.308 206.026L181.806 200.212C181.806 200.212 181.453 197.609 182.12 197.316V197.319Z" fill="#99A3B6"/>
    <path d="M265.711 232.231C265.711 232.231 265.493 235.828 266.433 236.064C267.372 236.301 277.86 236.235 277.86 236.235C277.86 236.235 279.565 235.331 281.438 235.4C283.311 235.469 287.324 235.666 292.423 235.026C297.521 234.386 301.049 232.007 301.049 232.007L301.441 228.913C301.441 228.913 299.538 230.801 295.394 231.809C291.25 232.818 286.211 232.578 286.211 232.578H280.708L276.747 233.096L273.162 233.263L265.705 232.231H265.711Z" fill="white"/>
    <path d="M185.16 194.557L183.314 195.691L182.359 196.84C182.359 196.84 184.101 196.08 185.16 197.839C186.219 199.599 188.362 204.97 188.362 204.97L191.402 208.671L192.168 210.798C192.168 210.798 194.172 215.2 195.495 216.962C196.818 218.725 199.089 220.726 200.588 220.493C202.087 220.26 206.952 219.099 206.952 219.099L209.415 217.941L209.618 215.786C209.618 215.786 203.293 218.991 200.785 218.099C198.281 217.208 195.441 212.169 194.66 210.945C193.879 209.721 190.354 202.483 190.354 202.483L187.237 195.73C187.237 195.73 186.366 194.599 185.157 194.554L185.16 194.557Z" fill="white"/>
    <path d="M236.249 144.605L232.625 144.558C232.625 144.558 238.858 149.459 243.101 155.826C246.488 160.907 252.319 177.181 252.319 177.181L246.742 149.022L236.249 144.608V144.605Z" fill="#567F84"/>
    <path d="M203.624 191.224C203.624 191.224 202.607 188.435 203.699 188.333C204.791 188.232 206.12 190.138 206.12 190.138L203.624 191.224Z" fill="#567F84"/>
    <path d="M210.424 200.206C210.424 200.206 211.645 202.247 212.83 201.505C214.014 200.763 212.629 199.06 212.629 199.06L210.427 200.203L210.424 200.206Z" fill="#567F84"/>
    <path d="M289.43 57.9527C289.43 57.9527 288.913 58.8444 288.422 60.0173C287.898 61.268 287.411 62.8389 287.62 63.9789C288.027 66.1931 289.299 71.3366 290.008 72.1056C290.717 72.8746 292.093 73.6436 292.093 73.6436L296.157 74.5981L294.236 72.5485C294.236 72.5485 290.795 67.381 290.373 66.3786C289.951 65.3763 288.377 62.9855 288.425 62.3332C288.473 61.6809 288.766 60.511 288.766 60.511L289.433 57.9497L289.43 57.9527Z" fill="#704425"/>
    <path d="M296.065 62.8625C296.065 62.8625 295.751 65.8128 296.065 66.7254C296.38 67.638 298.202 70.669 298.794 70.693C299.387 70.7169 299.955 70.1484 299.955 70.1484L300.096 69.3495L299.479 69.176C299.479 69.176 297.229 66.477 297.229 65.9085C297.229 65.34 297.325 64.1401 297.325 64.1401C297.325 64.1401 299.432 65.34 299.692 65.8846C299.952 66.4292 300.996 68.5356 300.996 68.5356L300.587 69.1999C300.587 69.1999 301.945 69.176 302.122 68.7032C302.295 68.2304 300.868 65.0558 300.207 64.7236C299.548 64.3915 296.634 62.662 296.634 62.662L296.041 62.3389L296.059 62.8655L296.065 62.8625Z" fill="#704425"/>
    <path d="M365.131 91.8685C365.131 91.8685 366.824 91.9972 368.078 92.0241C369.332 92.0511 369.412 91.4676 370.181 91.9015C370.95 92.3353 370.4 93.5083 369.541 93.9152C368.682 94.3221 365.113 94.5555 365.113 94.5555L362.004 95.5609C362.004 95.5609 358.898 97.2993 356.564 97.5148C354.23 97.7302 350.412 97.3352 350.412 97.3352L351.968 95.136C351.968 95.136 355.283 95.4621 358.126 95.136C360.968 94.8099 365.131 91.8685 365.131 91.8685Z" fill="#704425"/>
    <path d="M158.659 87.0036L167.675 86.4321C168.171 86.3992 168.668 86.5249 169.087 86.7942C170.009 87.3896 171.84 88.4339 173.563 88.5895C175.993 88.8109 177.471 89.2747 177.471 89.2747L177.366 90.675L174.284 89.7295C174.284 89.7295 172.348 89.8552 171.11 89.5739C169.871 89.2927 166.992 87.5063 166.992 87.5063L159.309 87.6051L158.656 87.0036H158.659Z" fill="#704425"/>
    <path d="M155.954 82.5544C155.954 82.5544 162.94 82.6412 163.437 82.7789C163.934 82.9165 168.32 85.3611 168.32 85.3611L166.196 85.2085C166.196 85.2085 163.353 83.7513 162.363 83.7334C161.373 83.7154 157.091 83.7812 157.091 83.7812C157.091 83.7812 155.816 83.8201 155.954 82.5544Z" fill="#704425"/>
    <path d="M156.768 79.1072C156.768 79.1072 164.272 79.0473 164.392 79.1072C164.511 79.167 168.778 82.3626 168.778 82.3626L169.475 82.8204L168.778 83.1795L166.636 82.4225L163.56 80.4566C163.56 80.4566 159.314 80.4716 158.913 80.298C158.512 80.1245 157.046 79.7235 156.768 79.1072Z" fill="#704425"/>
    <path d="M159.35 74.6313L165.385 76.2082L170.468 80.3972L169.158 80.2985L164.909 77.2644L159.688 75.7325C159.688 75.7325 159.272 75.0173 159.35 74.6313Z" fill="#704425"/>
    <path d="M170.606 73.7008C170.606 73.7008 172.213 76.0108 172.988 76.8037C173.763 77.5966 174.538 80.0322 174.538 80.0322L172.653 78.8892L171.878 77.2645L170.25 74.9785C170.25 74.9785 170.229 73.7367 170.606 73.7008Z" fill="#704425"/>
    <path d="M251.765 129.304C251.765 129.304 249.569 132.925 244.303 133.254" stroke="black" stroke-width="2" stroke-miterlimit="10" stroke-linecap="round"/>
    <path d="M232.781 144.558H236.183L280.85 163.432C280.85 163.432 282.948 163.229 284.438 161.673" stroke="black" stroke-width="2" stroke-miterlimit="10" stroke-linecap="round"/>
    <path d="M248.035 72.1506C248.035 72.1506 247.649 73.6288 246.707 74.9722C245.764 76.3157 226.148 105.343 225.878 109.104C225.878 109.143 225.872 109.179 225.869 109.218C225.672 112.374 227.952 115.148 231.079 115.615L233.957 116.046C233.957 116.046 246.817 117.228 256.757 112.919" stroke="black" stroke-width="2" stroke-miterlimit="10" stroke-linecap="round"/>
    <path d="M238.818 116.189C238.818 116.189 241.074 118.472 244.303 119.412C245.386 119.729 249.129 120.055 253.752 118.703" stroke="black" stroke-width="2" stroke-miterlimit="10" stroke-linecap="round"/>
    <path d="M247.75 119.744C247.75 119.744 249.237 121.303 252.071 121.976C254.545 122.566 258.345 121.91 258.345 121.91" stroke="black" stroke-width="2" stroke-miterlimit="10" stroke-linecap="round"/>
    <path d="M202.311 191.894C202.311 191.894 205.686 194.342 207.963 201.343" stroke="black" stroke-width="2" stroke-miterlimit="10" stroke-linecap="round"/>
    <path d="M212.629 198.839L200.956 205.769C200.956 205.769 198.216 205.5 198.036 203.749C197.868 202.107 198.808 197.535 197.473 194.527C197.333 194.21 197.467 193.836 197.788 193.699L206.121 190.138" stroke="black" stroke-width="2" stroke-miterlimit="10" stroke-linecap="round"/>
    <path d="M280.847 163.433L268.935 210.885C268.935 210.885 276.322 214.934 285.455 213.123C285.455 213.123 299.769 162.858 299.233 155.886C298.797 150.219 271.005 135.572 260.62 130.288C258.229 129.074 255.796 127.948 253.322 126.916L245.539 123.664L246.793 119.744" stroke="black" stroke-width="2" stroke-linecap="round" stroke-linejoin="round"/>
    <path d="M203.699 191.17C203.699 191.17 202.583 188.761 203.699 188.333C204.725 187.941 212.813 195.897 213.259 200.835C213.319 201.511 212.607 201.996 212.005 201.678C211.512 201.418 210.904 200.978 210.273 200.233" stroke="black" stroke-width="2" stroke-miterlimit="10" stroke-linecap="round"/>
    <path d="M203.699 188.334L234.704 173.594C234.704 173.594 237.741 172.535 241.308 173.98" stroke="black" stroke-width="2" stroke-miterlimit="10" stroke-linecap="round"/>
    <path d="M234.705 173.594C235.459 171.975 238.547 171.472 238.547 171.472" stroke="black" stroke-width="2" stroke-miterlimit="10" stroke-linecap="round"/>
    <path d="M212.828 201.66L249.114 183.6C251.496 182.415 252.806 179.794 252.319 177.179C250.658 168.235 246.741 149.019 246.741 149.019" stroke="black" stroke-width="2" stroke-linecap="round" stroke-linejoin="round"/>
    <path d="M227.303 113.511L226.232 117.943C226.232 117.943 219.424 122.706 220.415 131.862C221.405 141.021 234.233 173.818 234.233 173.818" stroke="black" stroke-width="2" stroke-linecap="round" stroke-linejoin="round"/>
    <path d="M283.112 94.1696C283.112 94.1696 267.427 110.842 266.215 114.157" stroke="black" stroke-width="2" stroke-linecap="round" stroke-linejoin="round"/>
    <path d="M268.106 108.64C268.106 108.64 264.303 119.911 263.558 121.375C262.355 123.732 260.06 123.804 258.543 123.729C257.026 123.655 254.611 122.224 254.611 122.224" stroke="black" stroke-width="2" stroke-linecap="round" stroke-linejoin="round"/>
    <path d="M269.973 66.6451L274.799 63.9252C275.353 63.611 276.008 63.5332 276.624 63.6978C279.314 64.4189 287.07 66.9473 291.75 74.5115" stroke="black" stroke-width="2" stroke-miterlimit="10" stroke-linecap="round"/>
    <path d="M288.767 75.436C288.767 75.436 283.735 80.0859 283.582 86.6447" stroke="black" stroke-width="2" stroke-miterlimit="10" stroke-linecap="round"/>
    <path d="M217.3 91.2016L189.655 84.7744C189.655 84.7744 185.924 84.951 184.159 89.3016C182.848 92.5361 183.111 95.1273 184.593 97.4013C186.071 99.6754 212.12 107.186 215.992 106.952C219.864 106.719 230.178 100.561 230.178 100.561" stroke="black" stroke-width="2" stroke-miterlimit="10" stroke-linecap="round"/>
    <path d="M214.541 90.5611L241.913 71.0611C241.913 71.0611 248.278 67.7069 255.348 66.8571C262.419 66.0074 271.183 66.151 277.756 68.4819C283.513 70.5255 288.965 73.2933 294.483 75.8905C300.524 78.733 306.658 81.4559 313.085 83.311C318.776 84.9537 324.632 85.9741 330.514 86.6114C335.167 87.1171 340.062 86.8717 344.646 87.8202C346.062 88.1135 347.866 89.3821 347.866 89.3821" stroke="black" stroke-width="2" stroke-miterlimit="10" stroke-linecap="round"/>
    <path d="M273.684 94.7026C273.684 94.7026 280.209 93.766 285.482 94.17C290.754 94.5739 298.911 97.587 310.712 99.5948C322.51 101.603 338.452 101.477 340.334 101.226C342.216 100.974 344.356 99.9119 344.356 99.9119" stroke="black" stroke-width="2" stroke-miterlimit="10" stroke-linecap="round"/>
    <path d="M352.583 98.0836C351.841 99.5917 351.105 100.253 350.599 100.543C350.303 100.714 349.959 100.774 349.621 100.723L343.7 99.8131C343.415 99.7682 343.203 99.5289 343.197 99.2386C343.128 95.8605 345.429 91.4291 346.24 89.9749C346.404 89.6787 346.728 89.5051 347.066 89.529L354.977 90.0587C354.977 90.0587 349.711 95.7318 349.962 100.486" stroke="black" stroke-width="2" stroke-miterlimit="10" stroke-linecap="round"/>
    <path d="M354.688 90.0406C354.688 90.0406 357.389 89.7444 358.161 89.4122C358.933 89.0801 365.337 83.9755 366.578 83.1466C367.82 82.3178 375.079 79.7236 375.354 79.8612C375.63 79.9989 375.687 80.717 374.858 81.462C374.152 82.0964 371.318 83.1945 370.498 83.5027C370.349 83.5596 370.205 83.6314 370.07 83.7211L367.988 85.1155" stroke="black" stroke-width="2" stroke-miterlimit="10" stroke-linecap="round"/>
    <path d="M364.414 86.6238L370.336 84.1313C370.5 84.0625 370.674 84.0206 370.85 84.0087C371.951 83.9309 376.069 83.6556 376.149 83.7962C376.242 83.9578 376.326 84.4784 375.79 84.8554C375.255 85.2324 370.922 86.0493 370.922 86.0493" stroke="black" stroke-width="2" stroke-miterlimit="10" stroke-linecap="round"/>
    <path d="M364.688 88.2156L369.301 86.1989C369.445 86.136 369.601 86.1001 369.756 86.0941C370.884 86.0493 375.669 85.8607 375.89 85.9236C376.141 85.9954 376.106 86.5549 375.355 87.0636C374.604 87.5723 370.851 88.0001 370.851 88.0001" stroke="black" stroke-width="2" stroke-miterlimit="10" stroke-linecap="round"/>
    <path d="M364.854 89.6515L368.861 88.0926C369.022 88.0297 369.193 87.9968 369.366 87.9968H373.298C373.546 87.9968 373.684 88.2781 373.534 88.4786C373.241 88.8735 372.739 89.3912 372.056 89.5288C370.91 89.7562 368.57 89.8819 368.57 89.8819C368.57 89.8819 366.769 90.226 365.309 91.6832C363.849 93.1404 362.604 96.1026 359.301 97.0481C355.997 97.9936 350.414 97.5059 350.414 97.5059" stroke="black" stroke-width="2" stroke-miterlimit="10" stroke-linecap="round"/>
    <path d="M365.113 92.0213C365.113 92.0213 367.204 92.0722 368.078 92.0213C368.509 91.9974 368.937 91.9136 369.365 91.8657C369.637 91.8358 369.918 91.8239 370.181 91.8987C370.744 92.0572 371.043 92.7843 370.732 93.296C370.481 93.7089 369.99 93.8466 369.541 93.9154C368.955 94.0051 368.359 94.047 367.773 94.1428C365.813 94.454 363.895 94.9686 362.004 95.5611" stroke="black" stroke-width="2" stroke-miterlimit="10" stroke-linecap="round"/>
    <path d="M183.593 95.2351L177.866 92.9581C177.51 92.8174 177.276 92.4733 177.279 92.0873C177.294 90.4237 177.662 85.9354 181.034 83.4908C181.274 83.3173 181.579 83.2605 181.863 83.3472L187.982 85.2113" stroke="black" stroke-width="2" stroke-miterlimit="10" stroke-linecap="round"/>
    <path d="M177.363 90.6751C177.363 90.6751 174.967 89.7475 173.803 89.8164C172.639 89.8852 171.101 89.5889 170.212 89.2748C169.551 89.0414 168.13 88.2215 167.447 87.8206C167.193 87.671 166.906 87.5932 166.613 87.5932H159.644C159.366 87.5932 159.093 87.5004 158.893 87.3089C158.653 87.0785 158.492 86.7135 158.962 86.2258C159.817 85.3371 165.871 85.2922 166.487 85.2264C167.103 85.1605 168.013 85.3371 168.013 85.3371" stroke="black" stroke-width="2" stroke-miterlimit="10" stroke-linecap="round"/>
    <path d="M165.926 85.2086L163.332 84.0177C162.823 83.7843 162.267 83.6736 161.704 83.6975C160.681 83.7424 159.655 83.7753 158.631 83.7783C157.934 83.7783 157.039 83.9549 156.426 83.524C155.905 83.1589 155.774 82.3511 156.229 81.8843C156.662 81.4354 157.372 81.603 157.928 81.591C158.592 81.5791 159.257 81.5821 159.921 81.5881C161.172 81.6 162.422 81.6269 163.67 81.6599C163.99 81.6688 164.304 81.7227 164.61 81.8214L168.772 83.1769" stroke="black" stroke-width="2" stroke-miterlimit="10" stroke-linecap="round"/>
    <path d="M172.719 78.8977L172.39 78.1108C172.339 77.8534 172.232 77.6111 172.076 77.3986C171.624 76.7823 170.661 75.4507 170.433 75.0288C170.248 74.6817 170.478 74.1342 170.676 73.7721C170.787 73.5687 171.05 73.5088 171.238 73.6435C172.184 74.3167 174.85 76.2467 175.511 77.1204C176.322 78.1886 176.705 80.7918 177.773 81.9437C178.841 83.0957 180.664 83.7809 180.664 83.7809" stroke="black" stroke-width="2" stroke-miterlimit="10" stroke-linecap="round"/>
    <path d="M166.857 82.554L164.182 80.8216C163.918 80.66 163.619 80.5702 163.311 80.5582C162.003 80.5104 158.329 80.3368 157.464 79.891C156.869 79.5828 156.695 79.0592 156.656 78.6612C156.63 78.368 156.86 78.1136 157.156 78.1047C158.67 78.0688 163.335 77.973 164.388 78.1166C165.651 78.2872 169.265 80.1603 169.265 80.1603" stroke="black" stroke-width="2" stroke-miterlimit="10" stroke-linecap="round"/>
    <path d="M167.75 79.4129L164.755 77.4171C164.473 77.2286 164.165 77.091 163.836 77.0072C162.66 76.705 159.737 75.9121 159.411 75.4243C159.001 74.8109 159.069 74.0928 160.126 74.1287C161.182 74.1646 166.708 75.2897 167.561 75.6308C168.414 75.9719 173.734 79.6553 174.282 79.8617" stroke="black" stroke-width="2" stroke-miterlimit="10" stroke-linecap="round"/>
    <path d="M244.764 119.744L243.594 122.981L236.676 120.282L237.744 116.192" stroke="black" stroke-width="2" stroke-miterlimit="10" stroke-linecap="round"/>
    <path d="M235.587 116.138L234.384 119.744L227.918 117.736L228.81 114.795" stroke="black" stroke-width="2" stroke-miterlimit="10" stroke-linecap="round"/>
    <path d="M258.543 123.729L257.109 128.586" stroke="black" stroke-width="2" stroke-miterlimit="10" stroke-linecap="round"/>
    <path d="M252.813 122.114L251.557 125.911" stroke="black" stroke-width="2" stroke-miterlimit="10" stroke-linecap="round"/>
    <path d="M201.859 205.231C201.859 205.231 202.012 208.297 202.311 209.186C202.61 210.075 203.7 212.46 203.7 212.46C203.7 212.46 203.72 213.902 203.442 215.123" stroke="black" stroke-width="2" stroke-miterlimit="10" stroke-linecap="round"/>
    <path d="M198.299 193.48C198.299 193.48 190.678 192.448 185.46 194.437C182.53 195.553 181.48 197.666 181.893 199.769C182.306 201.873 184.335 206.116 184.409 206.226C184.484 206.337 186.737 208.33 186.887 209.192C186.98 209.73 187.09 210.712 187.156 211.37C187.204 211.822 187.363 212.25 187.62 212.624C188.832 214.377 192.473 219.533 193.718 219.966C195.22 220.493 198.948 220.726 200.064 220.568C202.781 220.179 206.934 219.554 209.415 217.941C209.415 217.941 209.903 216.139 209.415 214.673C208.927 213.21 203.703 212.459 203.703 212.459" stroke="black" stroke-width="2" stroke-miterlimit="10" stroke-linecap="round"/>
    <path d="M182.217 197.106C182.217 197.106 183.967 196.149 185.236 197.74C186.05 198.761 187.917 203.761 188.363 204.969C188.429 205.146 188.521 205.308 188.638 205.451L191.017 208.33C191.214 208.569 191.319 209.009 191.448 209.29C191.813 210.089 192.19 210.885 192.573 211.675C193.458 213.5 194.326 215.358 195.532 217.001C196.585 218.44 198.563 220.801 200.586 220.493" stroke="black" stroke-width="2" stroke-miterlimit="10" stroke-linecap="round"/>
    <path d="M185.16 194.557C185.16 194.557 186.447 194.671 187.503 196.044C188.559 197.421 193.457 209.057 195.07 211.765C196.683 214.473 199.16 218.046 201.177 218.159C203.194 218.273 207.751 216.867 209.621 215.784" stroke="black" stroke-width="2" stroke-miterlimit="10" stroke-linecap="round"/>
    <path d="M271.295 218.117C271.295 218.117 264.47 227.596 265.879 235.217C265.993 235.831 266.519 236.283 267.142 236.298C269.314 236.357 274.47 236.468 277.474 236.292C277.704 236.28 277.929 236.232 278.144 236.151C278.805 235.903 280.457 235.343 281.866 235.397C283.653 235.463 294.269 236.378 301.049 232.007C301.208 231.905 301.315 231.74 301.348 231.552C301.495 230.726 301.794 228.365 300.756 227.249C299.484 225.885 288.24 224.194 282.749 220.041" stroke="black" stroke-width="2" stroke-miterlimit="10" stroke-linecap="round"/>
    <path d="M272.39 212.285L271.217 218.524C271.163 218.814 271.376 219.083 271.669 219.098C272.42 219.131 273.776 219.26 274.733 219.739C276.127 220.436 277.474 221.734 279.006 221.782C280.149 221.818 281.525 221.516 282.151 221.36C282.354 221.31 282.507 221.142 282.537 220.935L283.593 213.596" stroke="black" stroke-width="2" stroke-miterlimit="10" stroke-linecap="round"/>
    <path d="M265.697 232.536C265.697 232.536 271.032 233.347 273.803 233.261C276.574 233.174 280.072 232.45 282.247 232.536C284.422 232.623 291.077 232.878 295.299 231.983C299.521 231.088 301.442 228.913 301.442 228.913" stroke="black" stroke-width="2" stroke-miterlimit="10" stroke-linecap="round"/>
    <path d="M270.021 206.562C270.021 206.562 275.069 209.97 286.52 209.347" stroke="black" stroke-width="2" stroke-miterlimit="10" stroke-linecap="round"/>
    <path d="M206.949 186.789C206.949 186.789 214.053 191.047 216.222 199.973" stroke="black" stroke-width="2" stroke-linecap="round" stroke-linejoin="round"/>
    <path d="M301.839 61.4507C301.839 61.4507 300.498 61.2862 300.597 62.6596" stroke="black" stroke-width="2" stroke-linecap="round" stroke-linejoin="round"/>
    <path d="M306.546 61.2891C306.546 61.2891 304.978 61.5165 304.781 62.5309C304.583 63.5452 304.682 65.538 304.323 65.93C303.964 66.3219 303.213 65.93 303.213 65.93" stroke="black" stroke-width="2" stroke-linecap="round" stroke-linejoin="round"/>
    <path d="M301.406 63.0996C301.406 63.0996 302.106 63.2073 302.208 63.4617C302.31 63.716 301.981 64.4162 302.208 64.7633C302.436 65.1103 302.579 65.1732 302.845 65.1732" stroke="black" stroke-width="2" stroke-linecap="round" stroke-linejoin="round"/>
    <path d="M295.672 62.1711C295.672 62.1711 296.531 62.8803 297.165 63.0987C297.799 63.3171 299.538 64.134 300.274 65.0556C301.01 65.9772 302.341 68.1854 302.219 68.6552C302.096 69.1249 300.89 69.0292 300.89 69.0292L300.908 68.5145C300.908 68.4577 300.902 68.4038 300.881 68.35C300.708 67.9041 299.828 65.7169 298.951 65.1753C297.778 64.4512 296.423 63.2214 296.034 62.4464" stroke="black" stroke-width="2" stroke-linecap="round" stroke-linejoin="round"/>
    <path d="M297.161 63.7966C297.161 63.7966 296.93 65.3615 297.268 66.1844C297.606 67.0072 299.282 69.1825 299.65 69.3291C300.018 69.4758 300.901 68.7277 300.901 68.7277" stroke="black" stroke-width="2" stroke-linecap="round" stroke-linejoin="round"/>
    <path d="M295.897 61.4446C295.897 61.4446 295.11 61.4655 294.703 62.3362" stroke="black" stroke-width="2" stroke-linecap="round" stroke-linejoin="round"/>
    <path d="M296.065 62.863C296.065 62.863 295.826 65.2448 295.958 66.3818C296.089 67.5188 298.04 70.4631 298.731 70.5708C299.422 70.6786 300.281 70.1789 300.206 69.2004" stroke="black" stroke-width="2" stroke-linecap="round" stroke-linejoin="round"/>
    <path d="M311.704 56.7437C311.704 56.7437 308.949 48.3986 303.192 46.1275C302.982 46.0467 302.746 46.1036 302.59 46.2651L299.502 49.4997C299.182 49.8348 298.769 50.0592 298.312 50.143C297.007 50.3824 294.072 51.0915 291.804 52.8838C291.711 52.9586 291.579 52.8718 291.612 52.7581C291.834 52.0131 292.133 50.4392 290.888 49.9904C289.236 49.395 285.293 55.5409 287.815 57.3302C287.815 57.3302 288.961 57.8777 290.122 57.007C290.122 57.007 287.603 61.1482 288.683 63.4611C289.766 65.7741 293.258 70.5825 294.7 73.3023" stroke="black" stroke-width="2" stroke-linecap="round" stroke-linejoin="round"/>
    <path d="M290.93 73.2817C290.93 73.2817 295.035 74.6162 296.118 74.6012C297.201 74.5862 304.287 69.8616 305.37 68.0394C306.453 66.2202 306.354 65.7773 307.536 64.4967C308.718 63.216 309.652 62.1867 310.193 61.4477C311.525 59.6284 311.812 56.3939 311.911 54.2515C312.12 49.7244 310.047 45.4007 306.304 42.8184C303.988 41.2206 301.187 40.2841 298.377 40.1285C294.149 39.8951 289.79 42.0285 287.226 45.3708C285.427 47.7136 284.853 50.3437 284.497 53.1983C284.251 55.1701 283.994 61.2143 278.061 64.1436" stroke="black" stroke-width="2" stroke-linecap="round" stroke-linejoin="round"/>
    <path d="M283.354 58.4494C283.354 58.4494 285.529 58.0664 287.204 56.5913" stroke="black" stroke-width="2" stroke-linecap="round" stroke-linejoin="round"/>
    <path d="M290.186 52.0762C290.186 52.0762 290.407 53.4885 290.18 53.9164C289.952 54.3442 289.073 54.4579 288.8 54.9995C288.528 55.5411 288.621 55.7685 288.621 55.7685" stroke="black" stroke-width="2" stroke-linecap="round" stroke-linejoin="round"/>
    <path d="M300.592 55.068C300.592 55.068 302.16 55.7562 302.845 57.354" stroke="black" stroke-width="2" stroke-linecap="round" stroke-linejoin="round"/>
    <path d="M301.002 54.5299L301.406 55.5712" stroke="black" stroke-width="2" stroke-linecap="round" stroke-linejoin="round"/>
    <path d="M305.957 62.4468C305.957 62.4468 306.681 62.9435 307.043 63.9788" stroke="black" stroke-width="2" stroke-linecap="round" stroke-linejoin="round"/>
    <path d="M301.72 52.3123C301.72 52.3123 303.255 52.402 303.662 52.7731C304.069 53.1471 305.957 56.0046 305.957 56.0046L305.077 56.2679C305.077 56.2679 303.698 54.1584 303.21 53.6049C302.689 53.0124 301.717 52.3123 301.717 52.3123H301.72Z" stroke="black" stroke-width="2" stroke-linecap="round" stroke-linejoin="round"/>
    <path d="M309.412 62.4082L308.132 60.5142L307.291 60.7745L308.883 63.0156" stroke="black" stroke-width="2" stroke-linecap="round" stroke-linejoin="round"/>
    </svg>
    