<svg width="20" height="20" viewBox="0 0 20 20" fill="none" xmlns="http://www.w3.org/2000/svg">
<mask id="mask0_105_48882" style="mask-type:alpha" maskUnits="userSpaceOnUse" x="0" y="0" width="20" height="20">
<rect width="20" height="20" fill="#D9D9D9"/>
</mask>
<g mask="url(#mask0_105_48882)">
<path d="M5.40592 18.4004C4.83634 18.4004 4.35363 18.2025 3.9578 17.8067C3.56211 17.4109 3.36426 16.9282 3.36426 16.3588V3.64128C3.36426 3.07183 3.56211 2.58919 3.9578 2.19336C4.35363 1.79753 4.83634 1.59961 5.40592 1.59961H11.0807C11.3489 1.59961 11.6059 1.64808 11.8516 1.74503C12.0974 1.84197 12.3241 1.99433 12.5318 2.20211L15.5626 5.23273C15.7704 5.44051 15.9227 5.66725 16.0197 5.91294C16.1165 6.15878 16.1649 6.41579 16.1649 6.68398V9.11586C16.1649 9.27419 16.1249 9.41614 16.0449 9.54169C15.9649 9.66725 15.8488 9.76871 15.6966 9.84607C15.4038 10.0145 15.1307 10.2157 14.8774 10.4494C14.6241 10.683 14.3727 10.9245 14.1232 11.174L10.808 14.48C10.6004 14.6878 10.45 14.9145 10.357 15.1602C10.2639 15.4061 10.2174 15.6631 10.2174 15.9313V17.3796C10.2174 17.6627 10.1181 17.9036 9.91947 18.1023C9.72072 18.3011 9.47974 18.4004 9.19655 18.4004H5.40592ZM11.7174 17.3796V16.1261C11.7174 15.9816 11.7461 15.8505 11.8034 15.7327C11.8609 15.6151 11.9361 15.5097 12.0291 15.4167L16.1632 11.2917C16.2875 11.1652 16.425 11.0732 16.5757 11.0157C16.7264 10.9582 16.8783 10.9294 17.0313 10.9294C17.1954 10.9294 17.352 10.9596 17.5011 11.02C17.6503 11.0803 17.7864 11.1709 17.9095 11.2917L18.8261 12.2292C18.9413 12.3535 19.0304 12.491 19.0936 12.6417C19.1568 12.7924 19.1884 12.9443 19.1884 13.0973C19.1884 13.2583 19.1597 13.4141 19.1022 13.5648C19.0447 13.7155 18.9527 13.8525 18.8261 13.9756L14.7011 18.1007C14.6082 18.1936 14.5029 18.2668 14.3851 18.3202C14.2673 18.3737 14.1363 18.4004 13.992 18.4004H12.7382C12.4552 18.4004 12.2143 18.3011 12.0155 18.1023C11.8168 17.9036 11.7174 17.6627 11.7174 17.3796ZM17.1332 13.9429L17.953 13.1023L17.0155 12.1648L16.1957 13.0054L17.1332 13.9429ZM11.644 7.14128H14.1232L10.6232 3.64128V6.12044C10.6232 6.40364 10.7226 6.64461 10.9213 6.84336C11.1201 7.04197 11.361 7.14128 11.644 7.14128Z" fill="#1C1B1F"/>
</g>
</svg>
