<svg width="16" height="16" viewBox="0 0 16 16" fill="none" xmlns="http://www.w3.org/2000/svg">
    <path d="M13.75 3V5.5C13.75 5.69891 13.671 5.88968 13.5303 6.03033C13.3897 6.17098 13.1989 6.25 13 6.25C12.8011 6.25 12.6103 6.17098 12.4697 6.03033C12.329 5.88968 12.25 5.69891 12.25 5.5V3.75H10.5C10.3011 3.75 10.1103 3.67098 9.96967 3.53033C9.82902 3.38968 9.75 3.19891 9.75 3C9.75 2.80109 9.82902 2.61032 9.96967 2.46967C10.1103 2.32902 10.3011 2.25 10.5 2.25H13C13.1989 2.25 13.3897 2.32902 13.5303 2.46967C13.671 2.61032 13.75 2.80109 13.75 3ZM5.5 12.25H3.75V10.5C3.75 10.3011 3.67098 10.1103 3.53033 9.96967C3.38968 9.82902 3.19891 9.75 3 9.75C2.80109 9.75 2.61032 9.82902 2.46967 9.96967C2.32902 10.1103 2.25 10.3011 2.25 10.5V13C2.25 13.1989 2.32902 13.3897 2.46967 13.5303C2.61032 13.671 2.80109 13.75 3 13.75H5.5C5.69891 13.75 5.88968 13.671 6.03033 13.5303C6.17098 13.3897 6.25 13.1989 6.25 13C6.25 12.8011 6.17098 12.6103 6.03033 12.4697C5.88968 12.329 5.69891 12.25 5.5 12.25ZM13 9.75C12.8011 9.75 12.6103 9.82902 12.4697 9.96967C12.329 10.1103 12.25 10.3011 12.25 10.5V12.25H10.5C10.3011 12.25 10.1103 12.329 9.96967 12.4697C9.82902 12.6103 9.75 12.8011 9.75 13C9.75 13.1989 9.82902 13.3897 9.96967 13.5303C10.1103 13.671 10.3011 13.75 10.5 13.75H13C13.1989 13.75 13.3897 13.671 13.5303 13.5303C13.671 13.3897 13.75 13.1989 13.75 13V10.5C13.75 10.3011 13.671 10.1103 13.5303 9.96967C13.3897 9.82902 13.1989 9.75 13 9.75ZM5.5 2.25H3C2.80109 2.25 2.61032 2.32902 2.46967 2.46967C2.32902 2.61032 2.25 2.80109 2.25 3V5.5C2.25 5.69891 2.32902 5.88968 2.46967 6.03033C2.61032 6.17098 2.80109 6.25 3 6.25C3.19891 6.25 3.38968 6.17098 3.53033 6.03033C3.67098 5.88968 3.75 5.69891 3.75 5.5V3.75H5.5C5.69891 3.75 5.88968 3.67098 6.03033 3.53033C6.17098 3.38968 6.25 3.19891 6.25 3C6.25 2.80109 6.17098 2.61032 6.03033 2.46967C5.88968 2.32902 5.69891 2.25 5.5 2.25Z" fill="#1D2939"/>
    </svg>
    