<svg width="16" height="16" viewBox="0 0 16 16" fill="none" xmlns="http://www.w3.org/2000/svg">
<mask id="mask0_105_48870" style="mask-type:alpha" maskUnits="userSpaceOnUse" x="0" y="0" width="16" height="16">
<rect width="16" height="16" fill="#D9D9D9"/>
</mask>
<g mask="url(#mask0_105_48870)">
<path d="M7.30041 10.7576L9.66274 8.3953C9.79752 8.26052 9.95491 8.19313 10.1349 8.19313C10.3148 8.19313 10.4721 8.26052 10.6069 8.3953C10.7417 8.53007 10.8091 8.68469 10.8091 8.85913C10.8091 9.03346 10.7417 9.18802 10.6069 9.3228L7.86774 12.0525C7.70263 12.2125 7.51102 12.2925 7.29291 12.2925C7.07469 12.2925 6.88252 12.2125 6.71641 12.0525L5.39391 10.7395C5.25913 10.6047 5.19452 10.4474 5.20008 10.2675C5.20563 10.0875 5.2758 9.93007 5.41058 9.7953C5.54536 9.66052 5.70269 9.59313 5.88258 9.59313C6.06258 9.59313 6.21997 9.66052 6.35474 9.7953L7.30041 10.7576ZM3.71341 14.72C3.25786 14.72 2.87174 14.5597 2.55508 14.2391C2.23841 13.9186 2.08008 13.5344 2.08008 13.0866V4.51263C2.08008 4.06485 2.23841 3.68069 2.55508 3.36013C2.87174 3.03957 3.25786 2.8793 3.71341 2.8793H4.80041V1.98296C4.80041 1.78785 4.87013 1.6218 5.00958 1.4848C5.14902 1.3478 5.3158 1.2793 5.50991 1.2793C5.70402 1.2793 5.87041 1.3478 6.00908 1.4848C6.14774 1.6218 6.21708 1.78785 6.21708 1.98296V2.8793H9.78374V1.98296C9.78374 1.78785 9.85347 1.6218 9.99291 1.4848C10.1324 1.3478 10.2991 1.2793 10.4932 1.2793C10.6874 1.2793 10.8537 1.3478 10.9924 1.4848C11.1311 1.6218 11.2004 1.78785 11.2004 1.98296V2.8793H12.2874C12.743 2.8793 13.1291 3.03957 13.4457 3.36013C13.7624 3.68069 13.9207 4.06485 13.9207 4.51263V13.0866C13.9207 13.5344 13.7624 13.9186 13.4457 14.2391C13.1291 14.5597 12.743 14.72 12.2874 14.72H3.71341ZM3.71341 13.0866H12.2874V7.19963H3.71341V13.0866Z" fill="#2BA667"/>
</g>
</svg>
