<svg width="268" height="186" viewBox="0 0 268 186" fill="none" xmlns="http://www.w3.org/2000/svg">
    <path d="M226.127 1H246.572M226.127 1V21.4444M226.127 1H205.683M246.572 1V21.4444M246.572 1H267.016V21.4444M246.572 21.4444H226.127M246.572 21.4444H267.016M246.572 21.4444V41.8889M226.127 21.4444V41.8889M226.127 21.4444H205.683M267.016 21.4444V41.8889M246.572 41.8889H226.127M246.572 41.8889V62.3333M246.572 41.8889H267.016M226.127 41.8889V62.3333M226.127 41.8889H205.683M246.572 62.3333H226.127M246.572 62.3333V82.7778M246.572 62.3333H267.016M226.127 62.3333V82.7778M226.127 62.3333H205.683M246.572 82.7778H226.127M246.572 82.7778V103.222M246.572 82.7778H267.016M226.127 82.7778V103.222M226.127 82.7778H205.683M246.572 103.222H226.127M246.572 103.222V123.667M246.572 103.222H267.016M226.127 103.222V123.667M226.127 103.222H205.683M246.572 123.667H226.127M246.572 123.667V144.111M246.572 123.667H267.016M226.127 123.667V144.111M226.127 123.667H205.683M246.572 144.111H226.127M246.572 144.111V164.556M246.572 144.111H267.016M226.127 144.111V164.556M226.127 144.111H205.683M246.572 164.556H226.127M246.572 164.556V185M246.572 164.556H267.016M226.127 164.556V185M226.127 164.556H205.683M246.572 185H226.127M246.572 185H267.016V164.556M226.127 185H205.683M267.016 41.8889V62.3333M267.016 62.3333V82.7778M267.016 82.7778V103.222M267.016 103.222V123.667M267.016 123.667V144.111M267.016 144.111V164.556M21.6827 1H1.23828V21.4444M21.6827 1V21.4444M21.6827 1H42.1272M21.6827 21.4444H1.23828M21.6827 21.4444H42.1272M21.6827 21.4444V41.8889M1.23828 21.4444V41.8889M42.1272 1V21.4444M42.1272 1H62.5716M42.1272 21.4444H62.5716M42.1272 21.4444V41.8889M62.5716 1V21.4444M62.5716 1H83.0161M62.5716 21.4444H83.0161M62.5716 21.4444V41.8889M83.0161 1V21.4444M83.0161 1H103.461M83.0161 21.4444H103.461M83.0161 21.4444V41.8889M103.461 1V21.4444M103.461 1H123.905M103.461 21.4444H123.905M103.461 21.4444V41.8889M123.905 1V21.4444M123.905 1H144.349M123.905 21.4444H144.349M123.905 21.4444V41.8889M144.349 1V21.4444M144.349 1H164.794M144.349 21.4444H164.794M144.349 21.4444V41.8889M164.794 1V21.4444M164.794 1H185.238M164.794 21.4444H185.238M164.794 21.4444V41.8889M185.238 1V21.4444M185.238 1H205.683M185.238 21.4444H205.683M185.238 21.4444V41.8889M205.683 1V21.4444M205.683 21.4444V41.8889M21.6827 41.8889H1.23828M21.6827 41.8889V62.3333M21.6827 41.8889H42.1272M1.23828 41.8889V62.3333M21.6827 62.3333H1.23828M21.6827 62.3333V82.7778M21.6827 62.3333H42.1272M1.23828 62.3333V82.7778M21.6827 82.7778H1.23828M21.6827 82.7778V103.222M21.6827 82.7778H42.1272M1.23828 82.7778V103.222M21.6827 103.222H1.23828M21.6827 103.222V123.667M21.6827 103.222H42.1272M1.23828 103.222V123.667M21.6827 123.667H1.23828M21.6827 123.667V144.111M21.6827 123.667H42.1272M1.23828 123.667V144.111M21.6827 144.111H1.23828M21.6827 144.111V164.556M21.6827 144.111H42.1272M1.23828 144.111V164.556M21.6827 164.556H1.23828M21.6827 164.556V185M21.6827 164.556H42.1272M1.23828 164.556V185H21.6827M21.6827 185H42.1272M42.1272 41.8889V62.3333M42.1272 41.8889H62.5716M42.1272 62.3333V82.7778M42.1272 62.3333H62.5716M42.1272 82.7778V103.222M42.1272 82.7778H62.5716M42.1272 103.222V123.667M42.1272 103.222H62.5716M42.1272 123.667V144.111M42.1272 123.667H62.5716M42.1272 144.111V164.556M42.1272 144.111H62.5716M42.1272 164.556V185M42.1272 164.556H62.5716M42.1272 185H62.5716M62.5716 41.8889V62.3333M62.5716 41.8889H83.0161M62.5716 62.3333V82.7778M62.5716 62.3333H83.0161M62.5716 82.7778V103.222M62.5716 82.7778H83.0161M62.5716 103.222V123.667M62.5716 103.222H83.0161M62.5716 123.667V144.111M62.5716 123.667H83.0161M62.5716 144.111V164.556M62.5716 144.111H83.0161M62.5716 164.556V185M62.5716 164.556H83.0161M62.5716 185H83.0161M83.0161 41.8889V62.3333M83.0161 41.8889H103.461M83.0161 62.3333V82.7778M83.0161 62.3333H103.461M83.0161 82.7778V103.222M83.0161 82.7778H103.461M83.0161 103.222V123.667M83.0161 103.222H103.461M83.0161 123.667V144.111M83.0161 123.667H103.461M83.0161 144.111V164.556M83.0161 144.111H103.461M83.0161 164.556V185M83.0161 164.556H103.461M83.0161 185H103.461M103.461 41.8889V62.3333M103.461 41.8889H123.905M103.461 62.3333V82.7778M103.461 62.3333H123.905M103.461 82.7778V103.222M103.461 82.7778H123.905M103.461 103.222V123.667M103.461 103.222H123.905M103.461 123.667V144.111M103.461 123.667H123.905M103.461 144.111V164.556M103.461 144.111H123.905M103.461 164.556V185M103.461 164.556H123.905M103.461 185H123.905M123.905 41.8889V62.3333M123.905 41.8889H144.349M123.905 62.3333V82.7778M123.905 62.3333H144.349M123.905 82.7778V103.222M123.905 82.7778H144.349M123.905 103.222V123.667M123.905 103.222H144.349M123.905 123.667V144.111M123.905 123.667H144.349M123.905 144.111V164.556M123.905 144.111H144.349M123.905 164.556V185M123.905 164.556H144.349M123.905 185H144.349M144.349 41.8889V62.3333M144.349 41.8889H164.794M144.349 62.3333V82.7778M144.349 62.3333H164.794M144.349 82.7778V103.222M144.349 82.7778H164.794M144.349 103.222V123.667M144.349 103.222H164.794M144.349 123.667V144.111M144.349 123.667H164.794M144.349 144.111V164.556M144.349 144.111H164.794M144.349 164.556V185M144.349 164.556H164.794M144.349 185H164.794M164.794 41.8889V62.3333M164.794 41.8889H185.238M164.794 62.3333V82.7778M164.794 62.3333H185.238M164.794 82.7778V103.222M164.794 82.7778H185.238M164.794 103.222V123.667M164.794 103.222H185.238M164.794 123.667V144.111M164.794 123.667H185.238M164.794 144.111V164.556M164.794 144.111H185.238M164.794 164.556V185M164.794 164.556H185.238M164.794 185H185.238M185.238 41.8889V62.3333M185.238 41.8889H205.683M185.238 62.3333V82.7778M185.238 62.3333H205.683M185.238 82.7778V103.222M185.238 82.7778H205.683M185.238 103.222V123.667M185.238 103.222H205.683M185.238 123.667V144.111M185.238 123.667H205.683M185.238 144.111V164.556M185.238 144.111H205.683M185.238 164.556V185M185.238 164.556H205.683M185.238 185H205.683M205.683 41.8889V62.3333M205.683 62.3333V82.7778M205.683 82.7778V103.222M205.683 103.222V123.667M205.683 123.667V144.111M205.683 144.111V164.556M205.683 164.556V185" stroke="url(#paint0_radial_105_38946)" stroke-opacity="0.4" stroke-width="0.567901"/>
    <defs>
    <radialGradient id="paint0_radial_105_38946" cx="0" cy="0" r="1" gradientUnits="userSpaceOnUse" gradientTransform="translate(134.127 93) rotate(90) scale(92 132.889)">
    <stop stop-color="#0E031C"/>
    <stop offset="1" stop-color="#0E031C" stop-opacity="0"/>
    </radialGradient>
    </defs>
    </svg>
    