<svg width="20" height="20" viewBox="0 0 20 20" fill="none" xmlns="http://www.w3.org/2000/svg">
    <mask id="mask0_3001_1105" style="mask-type:alpha" maskUnits="userSpaceOnUse" x="0" y="0" width="20" height="20">
    <rect width="20" height="20" fill="#D9D9D9"/>
    </mask>
    <g mask="url(#mask0_3001_1105)">
    <path d="M4.63586 9.00003C4.07392 9.00003 3.59405 8.79766 3.19628 8.39294C2.7985 7.98822 2.59961 7.51003 2.59961 6.95836V4.64128C2.59961 4.07989 2.79975 3.59926 3.20003 3.1994C3.60017 2.79954 4.08121 2.59961 4.64315 2.59961H6.96378C7.52572 2.59961 8.00558 2.79954 8.40336 3.1994C8.80114 3.59926 9.00003 4.07989 9.00003 4.64128V6.95836C9.00003 7.51003 8.79996 7.98822 8.39982 8.39294C7.99954 8.79766 7.51843 9.00003 6.95648 9.00003H4.63586ZM4.63586 17.4004C4.07392 17.4004 3.59405 17.2003 3.19628 16.8C2.7985 16.3999 2.59961 15.9188 2.59961 15.3569V13.0363C2.59961 12.4743 2.79975 11.9945 3.20003 11.5967C3.60017 11.1989 4.08121 11 4.64315 11H6.96378C7.52572 11 8.00558 11.2001 8.40336 11.6002C8.80114 12.0005 9.00003 12.4816 9.00003 13.0436V15.3642C9.00003 15.9261 8.79996 16.406 8.39982 16.8038C7.99954 17.2016 7.51843 17.4004 6.95648 17.4004H4.63586ZM13.0417 9.00003C12.49 9.00003 12.0118 8.79766 11.6071 8.39294C11.2024 7.98822 11 7.51003 11 6.95836V4.64128C11 4.07989 11.2024 3.59926 11.6071 3.1994C12.0118 2.79954 12.49 2.59961 13.0417 2.59961H15.3588C15.9202 2.59961 16.4008 2.79954 16.8007 3.1994C17.2005 3.59926 17.4004 4.07989 17.4004 4.64128V6.95836C17.4004 7.51003 17.2005 7.98822 16.8007 8.39294C16.4008 8.79766 15.9202 9.00003 15.3588 9.00003H13.0417ZM13.0417 17.4004C12.49 17.4004 12.0118 17.2003 11.6071 16.8C11.2024 16.3999 11 15.9188 11 15.3569V13.0363C11 12.4743 11.2024 11.9945 11.6071 11.5967C12.0118 11.1989 12.49 11 13.0417 11H15.3588C15.9202 11 16.4008 11.2001 16.8007 11.6002C17.2005 12.0005 17.4004 12.4816 17.4004 13.0436V15.3642C17.4004 15.9261 17.2005 16.406 16.8007 16.8038C16.4008 17.2016 15.9202 17.4004 15.3588 17.4004H13.0417Z" fill="#1C1B1F"/>
    </g>
    </svg>
    