<svg width="170" height="170" viewBox="0 0 170 170" fill="none" xmlns="http://www.w3.org/2000/svg">
    <g clip-path="url(#clip0_1046_8130)">
    <path d="M133.919 144.639C156.396 118 155.797 80.7116 132.583 61.3533C109.369 41.9951 72.3294 47.8973 49.8532 74.5362C27.3769 101.175 27.9751 138.463 51.1894 157.821C74.4036 177.18 111.443 171.278 133.919 144.639Z" fill="#0075CF"/>
    <path d="M120.154 134.488C142.63 107.849 142.032 70.561 118.818 51.2027C95.6033 31.8445 58.5638 37.7466 36.0875 64.3856C13.6112 91.0245 14.2095 128.313 37.4237 147.671C60.638 167.029 97.6775 161.127 120.154 134.488Z" fill="#45AEFF"/>
    <path fill-rule="evenodd" clip-rule="evenodd" d="M55.1131 92.7971L65.5969 102.569L100.53 62.7344L102.685 63.1742L116.266 74.4764V76.7139L67.5013 131.447L40.5703 108.938V105.763L51.8044 92.7971H55.1131Z" fill="#ECF7FF"/>
    <path fill-rule="evenodd" clip-rule="evenodd" d="M73.4979 134.391L120.242 80.6722V78.0905L116.722 75.6235L67.4961 131.446L70.6316 134.391H73.4979Z" fill="#B5DFFF"/>
    <path d="M122.766 131.059C142.851 102.542 139.139 65.5077 114.476 48.3393C89.8128 31.1708 53.5373 40.37 33.4526 68.8862C13.3678 97.4024 17.0795 134.437 41.7429 151.605C66.4062 168.774 102.682 159.575 122.766 131.059Z" stroke="black" stroke-width="0.590278" stroke-linecap="round" stroke-linejoin="round"/>
    <path d="M41.7422 151.622L55.8233 160.878C80.4844 178.052 116.764 168.853 136.847 140.339C156.93 111.825 153.217 74.7825 128.556 57.6092L114.475 48.3533" stroke="black" stroke-width="0.590278" stroke-linecap="round" stroke-linejoin="round"/>
    <path d="M51.8047 118.098L63.3081 128.119L65.578 130.089C66.6937 131.045 68.3673 130.949 69.3483 129.84L115.67 77.211C116.574 76.1783 116.458 74.6293 115.439 73.7305L103.551 63.4035C102.435 62.4282 100.742 62.543 99.7611 63.6522L65.6164 102.435" stroke="black" stroke-width="0.590278" stroke-linecap="round" stroke-linejoin="round"/>
    <path d="M105.86 65.4309L119.768 77.5172C120.806 78.416 120.902 79.9651 119.998 80.9978L73.8694 133.397C72.7921 134.621 70.9262 134.736 69.7143 133.665L56.1719 121.885" stroke="black" stroke-width="0.590278" stroke-linecap="round" stroke-linejoin="round"/>
    <path d="M63.3063 128.119L51.803 118.098L41.4538 109.109C40.3573 108.153 40.2419 106.509 41.2037 105.419L51.5529 93.6956C52.5147 92.6056 54.169 92.5099 55.2655 93.447L65.5955 102.435" stroke="black" stroke-width="0.590278" stroke-linecap="round" stroke-linejoin="round"/>
    </g>
    <defs>
    <clipPath id="clip0_1046_8130">
    <rect width="130.769" height="130.769" fill="white" transform="translate(19.6172 39.231)"/>
    </clipPath>
    </defs>
    </svg>
    