<svg width="107" height="105" viewBox="0 0 107 105" fill="none" xmlns="http://www.w3.org/2000/svg">
    <g filter="url(#filter0_dd_105_38947)">
    <rect x="41.8496" y="0.733398" width="74.6814" height="74.6814" rx="17.5721" transform="rotate(30 41.8496 0.733398)" fill="white" shape-rendering="crispEdges"/>
    <rect x="42.0506" y="1.48352" width="73.5831" height="73.5831" rx="17.023" transform="rotate(30 42.0506 1.48352)" stroke="#D0D5DD" stroke-width="1.09826" shape-rendering="crispEdges"/>
    <mask id="mask0_105_38947" style="mask-type:alpha" maskUnits="userSpaceOnUse" x="28" y="24" width="55" height="55">
    <rect x="48.2812" y="24.7373" width="39.5372" height="39.5372" transform="rotate(30 48.2812 24.7373)" fill="#D9D9D9"/>
    </mask>
    <g mask="url(#mask0_105_38947)">
    <path d="M38.1167 58.8158C37.3321 58.3628 36.8217 57.6956 36.5855 56.8142C36.3493 55.9328 36.4577 55.0998 36.9108 54.3151L48.4425 34.3416C48.8955 33.557 49.5627 33.0465 50.4441 32.8104C51.3255 32.5742 52.1585 32.6826 52.9432 33.1357L64.3566 39.7252C64.7608 39.9586 65.0207 40.2909 65.1363 40.7222C65.2519 41.1536 65.193 41.5713 64.9596 41.9756C64.7262 42.3798 64.3939 42.6397 63.9625 42.7553C63.5312 42.8708 63.1134 42.8119 62.7092 42.5785L51.2958 35.989L39.7641 55.9625L59.7376 67.4942L66.3271 56.0807C66.5605 55.6765 66.8928 55.4166 67.3242 55.3011C67.7555 55.1855 68.1733 55.2444 68.5775 55.4778C68.9817 55.7111 69.2416 56.0435 69.3572 56.4748C69.4728 56.9061 69.4138 57.3239 69.1805 57.7281L62.5909 69.1415C62.1379 69.9262 61.4707 70.4366 60.5893 70.6728C59.7079 70.909 58.8749 70.8005 58.0902 70.3475L38.1167 58.8158ZM66.7685 48.7267L65.3419 47.903C64.9376 47.6696 64.6777 47.3372 64.5622 46.9059C64.4466 46.4746 64.5055 46.0568 64.7389 45.6526C64.9723 45.2484 65.3046 44.9885 65.7359 44.8729C66.1672 44.7573 66.585 44.8162 66.9892 45.0496L68.4159 45.8733L69.2396 44.4466C69.473 44.0424 69.8053 43.7825 70.2367 43.6669C70.668 43.5514 71.0858 43.6103 71.49 43.8437C71.8942 44.077 72.1541 44.4094 72.2697 44.8407C72.3852 45.272 72.3263 45.6898 72.093 46.094L71.2693 47.5207L72.6959 48.3444C73.1002 48.5778 73.3601 48.9101 73.4756 49.3414C73.5912 49.7728 73.5323 50.1905 73.2989 50.5948C73.0655 50.999 72.7332 51.2589 72.3019 51.3744C71.8706 51.49 71.4528 51.4311 71.0486 51.1977L69.6219 50.374L68.7982 51.8007C68.5648 52.2049 68.2325 52.4648 67.8011 52.5804C67.3698 52.696 66.9521 52.6371 66.5478 52.4037C66.1436 52.1703 65.8837 51.838 65.7681 51.4067C65.6526 50.9753 65.7115 50.5576 65.9448 50.1533L66.7685 48.7267ZM51.1519 56.8305L50.5512 51.7757C50.5184 51.5031 50.3831 51.2981 50.1453 51.1609C49.9075 51.0236 49.6624 51.0089 49.4099 51.1167L44.3531 53.2857C44.0256 53.4136 43.8577 53.6496 43.8494 53.9935C43.841 54.3374 43.9795 54.5918 44.2649 54.7565L58.5316 62.9934C58.817 63.1582 59.1065 63.1509 59.4001 62.9717C59.6938 62.7926 59.8142 62.5292 59.7612 62.1816L58.865 54.6734C58.8321 54.4008 58.6968 54.1958 58.459 54.0586C58.2212 53.9213 57.9761 53.9066 57.7236 54.0144L51.1519 56.8305Z" fill="#667085"/>
    </g>
    </g>
    <g filter="url(#filter1_dd_105_38947)">
    <rect x="4.99805" y="23.1875" width="74.6814" height="74.6814" rx="17.5721" fill="white" shape-rendering="crispEdges"/>
    <rect x="5.54717" y="23.7366" width="73.5831" height="73.5831" rx="17.023" stroke="#D0D5DD" stroke-width="1.09826" shape-rendering="crispEdges"/>
    <mask id="mask1_105_38947" style="mask-type:alpha" maskUnits="userSpaceOnUse" x="22" y="40" width="41" height="41">
    <rect x="22.5703" y="40.7598" width="39.5372" height="39.5372" fill="#D9D9D9"/>
    </mask>
    <g mask="url(#mask1_105_38947)">
    <path d="M37.3971 70.4128H47.2814C47.7481 70.4128 48.1394 70.2549 48.4551 69.9392C48.7709 69.6234 48.9288 69.2322 48.9288 68.7654C48.9288 68.2987 48.7709 67.9074 48.4551 67.5917C48.1394 67.2759 47.7481 67.118 47.2814 67.118H37.3971C36.9303 67.118 36.5391 67.2759 36.2233 67.5917C35.9076 67.9074 35.7497 68.2987 35.7497 68.7654C35.7497 69.2322 35.9076 69.6234 36.2233 69.9392C36.5391 70.2549 36.9303 70.4128 37.3971 70.4128ZM37.3971 63.8233H47.2814C47.7481 63.8233 48.1394 63.6654 48.4551 63.3497C48.7709 63.0339 48.9288 62.6427 48.9288 62.1759C48.9288 61.7091 48.7709 61.3179 48.4551 61.0021C48.1394 60.6864 47.7481 60.5285 47.2814 60.5285H37.3971C36.9303 60.5285 36.5391 60.6864 36.2233 61.0021C35.9076 61.3179 35.7497 61.7091 35.7497 62.1759C35.7497 62.6427 35.9076 63.0339 36.2233 63.3497C36.5391 63.6654 36.9303 63.8233 37.3971 63.8233ZM32.4549 77.0023C31.5489 77.0023 30.7732 76.6797 30.128 76.0345C29.4828 75.3893 29.1602 74.6136 29.1602 73.7076V47.3495C29.1602 46.4434 29.4828 45.6678 30.128 45.0225C30.7732 44.3773 31.5489 44.0547 32.4549 44.0547H44.2749C44.7142 44.0547 45.1329 44.1371 45.531 44.3018C45.9291 44.4665 46.2792 44.6999 46.5812 45.0019L54.571 52.9917C54.8731 53.2938 55.1064 53.6438 55.2712 54.0419C55.4359 54.4401 55.5183 54.8588 55.5183 55.2981V73.7076C55.5183 74.6136 55.1957 75.3893 54.5504 76.0345C53.9052 76.6797 53.1296 77.0023 52.2235 77.0023H32.4549ZM43.9866 53.939V47.3495H32.4549V73.7076H52.2235V55.5864H45.634C45.1672 55.5864 44.776 55.4285 44.4602 55.1127C44.1445 54.797 43.9866 54.4057 43.9866 53.939Z" fill="#667085"/>
    </g>
    <mask id="mask2_105_38947" style="mask-type:alpha" maskUnits="userSpaceOnUse" x="57" y="29" width="17" height="17">
    <rect x="57.627" y="29.5" width="16" height="16" fill="#D9D9D9"/>
    </mask>
    <g mask="url(#mask2_105_38947)">
    <path d="M61.6263 37.5326C61.6263 37.7103 61.6374 37.8853 61.6596 38.0576C61.6819 38.2298 61.7207 38.3992 61.7763 38.5659C61.8319 38.7548 61.8263 38.9353 61.7596 39.1076C61.693 39.2798 61.5763 39.4048 61.4096 39.4826C61.2319 39.5714 61.0569 39.5798 60.8846 39.5076C60.7124 39.4353 60.5985 39.3048 60.543 39.1159C60.4541 38.8603 60.3902 38.5992 60.3513 38.3326C60.3124 38.0659 60.293 37.7992 60.293 37.5326C60.293 36.0437 60.8096 34.777 61.843 33.7326C62.8763 32.6881 64.1374 32.1659 65.6263 32.1659H65.743L65.143 31.5659C65.0207 31.4437 64.9596 31.2881 64.9596 31.0992C64.9596 30.9103 65.0207 30.7548 65.143 30.6326C65.2652 30.5103 65.4207 30.4492 65.6096 30.4492C65.7985 30.4492 65.9541 30.5103 66.0763 30.6326L67.8096 32.3659C67.943 32.4992 68.0096 32.6548 68.0096 32.8326C68.0096 33.0103 67.943 33.1659 67.8096 33.2992L66.0763 35.0326C65.9541 35.1548 65.7985 35.2159 65.6096 35.2159C65.4207 35.2159 65.2652 35.1548 65.143 35.0326C65.0207 34.9103 64.9596 34.7548 64.9596 34.5659C64.9596 34.377 65.0207 34.2214 65.143 34.0992L65.743 33.4992H65.6263C64.5152 33.4992 63.5707 33.8909 62.793 34.6742C62.0152 35.4576 61.6263 36.4103 61.6263 37.5326ZM69.6263 37.4659C69.6263 37.2881 69.6152 37.1131 69.593 36.9409C69.5707 36.7687 69.5319 36.5992 69.4763 36.4326C69.4207 36.2437 69.4263 36.0631 69.493 35.8909C69.5596 35.7187 69.6763 35.5937 69.843 35.5159C70.0207 35.427 70.1957 35.4187 70.368 35.4909C70.5402 35.5631 70.6541 35.6937 70.7096 35.8826C70.7985 36.1381 70.8624 36.3992 70.9013 36.6659C70.9402 36.9326 70.9596 37.1992 70.9596 37.4659C70.9596 38.9548 70.443 40.2214 69.4096 41.2659C68.3763 42.3103 67.1152 42.8326 65.6263 42.8326H65.5096L66.1096 43.4326C66.2319 43.5548 66.293 43.7103 66.293 43.8992C66.293 44.0881 66.2319 44.2437 66.1096 44.3659C65.9874 44.4881 65.8319 44.5492 65.643 44.5492C65.4541 44.5492 65.2985 44.4881 65.1763 44.3659L63.443 42.6326C63.3096 42.4992 63.243 42.3437 63.243 42.1659C63.243 41.9881 63.3096 41.8326 63.443 41.6992L65.1763 39.9659C65.2985 39.8437 65.4541 39.7826 65.643 39.7826C65.8319 39.7826 65.9874 39.8437 66.1096 39.9659C66.2319 40.0881 66.293 40.2437 66.293 40.4326C66.293 40.6214 66.2319 40.777 66.1096 40.8992L65.5096 41.4992H65.6263C66.7374 41.4992 67.6819 41.1076 68.4596 40.3242C69.2374 39.5409 69.6263 38.5881 69.6263 37.4659Z" fill="#5F01D2"/>
    </g>
    </g>
    <defs>
    <filter id="filter0_dd_105_38947" x="0.115768" y="-1.46311" width="110.803" height="110.803" filterUnits="userSpaceOnUse" color-interpolation-filters="sRGB">
    <feFlood flood-opacity="0" result="BackgroundImageFix"/>
    <feColorMatrix in="SourceAlpha" type="matrix" values="0 0 0 0 0 0 0 0 0 0 0 0 0 0 0 0 0 0 127 0" result="hardAlpha"/>
    <feMorphology radius="2.19651" operator="dilate" in="SourceAlpha" result="effect1_dropShadow_105_38947"/>
    <feOffset/>
    <feComposite in2="hardAlpha" operator="out"/>
    <feColorMatrix type="matrix" values="0 0 0 0 0.0696 0 0 0 0 0.215657 0 0 0 0 0.4104 0 0 0 0.08 0"/>
    <feBlend mode="normal" in2="BackgroundImageFix" result="effect1_dropShadow_105_38947"/>
    <feColorMatrix in="SourceAlpha" type="matrix" values="0 0 0 0 0 0 0 0 0 0 0 0 0 0 0 0 0 0 127 0" result="hardAlpha"/>
    <feOffset dy="2.19651"/>
    <feGaussianBlur stdDeviation="2.19651"/>
    <feComposite in2="hardAlpha" operator="out"/>
    <feColorMatrix type="matrix" values="0 0 0 0 0.166412 0 0 0 0 0.230005 0 0 0 0 0.315941 0 0 0 0.12 0"/>
    <feBlend mode="normal" in2="effect1_dropShadow_105_38947" result="effect2_dropShadow_105_38947"/>
    <feBlend mode="normal" in="SourceGraphic" in2="effect2_dropShadow_105_38947" result="shape"/>
    </filter>
    <filter id="filter1_dd_105_38947" x="0.605026" y="20.991" width="83.4677" height="83.4677" filterUnits="userSpaceOnUse" color-interpolation-filters="sRGB">
    <feFlood flood-opacity="0" result="BackgroundImageFix"/>
    <feColorMatrix in="SourceAlpha" type="matrix" values="0 0 0 0 0 0 0 0 0 0 0 0 0 0 0 0 0 0 127 0" result="hardAlpha"/>
    <feMorphology radius="2.19651" operator="dilate" in="SourceAlpha" result="effect1_dropShadow_105_38947"/>
    <feOffset/>
    <feComposite in2="hardAlpha" operator="out"/>
    <feColorMatrix type="matrix" values="0 0 0 0 0.0696 0 0 0 0 0.215657 0 0 0 0 0.4104 0 0 0 0.08 0"/>
    <feBlend mode="normal" in2="BackgroundImageFix" result="effect1_dropShadow_105_38947"/>
    <feColorMatrix in="SourceAlpha" type="matrix" values="0 0 0 0 0 0 0 0 0 0 0 0 0 0 0 0 0 0 127 0" result="hardAlpha"/>
    <feOffset dy="2.19651"/>
    <feGaussianBlur stdDeviation="2.19651"/>
    <feComposite in2="hardAlpha" operator="out"/>
    <feColorMatrix type="matrix" values="0 0 0 0 0.166412 0 0 0 0 0.230005 0 0 0 0 0.315941 0 0 0 0.12 0"/>
    <feBlend mode="normal" in2="effect1_dropShadow_105_38947" result="effect2_dropShadow_105_38947"/>
    <feBlend mode="normal" in="SourceGraphic" in2="effect2_dropShadow_105_38947" result="shape"/>
    </filter>
    </defs>
    </svg>
    