<svg width="20" height="20" viewBox="0 0 20 20" fill="none" xmlns="http://www.w3.org/2000/svg">
    <mask id="mask0_3001_1101" style="mask-type:alpha" maskUnits="userSpaceOnUse" x="0" y="0" width="20" height="20">
    <rect width="20" height="20" fill="#D9D9D9"/>
    </mask>
    <g mask="url(#mask0_3001_1101)">
    <path d="M8.00003 16.4004C7.55197 16.4004 7.16836 16.2393 6.84919 15.9169C6.53003 15.5945 6.37044 15.207 6.37044 14.7542C6.37044 14.3016 6.53003 13.9176 6.84919 13.6023C7.16836 13.2872 7.55197 13.1296 8.00003 13.1296H16.7709C17.2191 13.1296 17.6027 13.2896 17.9217 13.6096C18.2409 13.9296 18.4004 14.3143 18.4004 14.7636C18.4004 15.2161 18.2409 15.602 17.9217 15.9215C17.6027 16.2408 17.2191 16.4004 16.7709 16.4004H8.00003ZM8.00003 11.6296C7.55197 11.6296 7.16836 11.4684 6.84919 11.1461C6.53003 10.8237 6.37044 10.4361 6.37044 9.98336C6.37044 9.53072 6.53003 9.14676 6.84919 8.83148C7.16836 8.51634 7.55197 8.35878 8.00003 8.35878H16.7709C17.2191 8.35878 17.6027 8.51878 17.9217 8.83878C18.2409 9.15864 18.4004 9.54329 18.4004 9.99273C18.4004 10.4452 18.2409 10.8312 17.9217 11.1507C17.6027 11.47 17.2191 11.6296 16.7709 11.6296H8.00003ZM8.00003 6.85877C7.55197 6.85877 7.16836 6.69878 6.84919 6.37878C6.53003 6.05878 6.37044 5.67412 6.37044 5.22482C6.37044 4.77537 6.53003 4.39218 6.84919 4.07523C7.16836 3.75815 7.55197 3.59961 8.00003 3.59961H16.7709C17.2191 3.59961 17.6027 3.75961 17.9217 4.07961C18.2409 4.39961 18.4004 4.78426 18.4004 5.23357C18.4004 5.68287 18.2409 6.06607 17.9217 6.38315C17.6027 6.70023 17.2191 6.85877 16.7709 6.85877H8.00003ZM3.23648 6.85877C2.78718 6.85877 2.40398 6.69878 2.0869 6.37878C1.76996 6.05878 1.61148 5.67412 1.61148 5.22482C1.61148 4.77537 1.77148 4.39218 2.09148 4.07523C2.41135 3.75815 2.796 3.59961 3.24544 3.59961C3.69475 3.59961 4.07794 3.75961 4.39503 4.07961C4.71197 4.39961 4.87044 4.78426 4.87044 5.23357C4.87044 5.68287 4.71044 6.06607 4.39044 6.38315C4.07044 6.70023 3.68579 6.85877 3.23648 6.85877ZM3.23648 11.6296C2.78398 11.6296 2.39801 11.4684 2.07857 11.1461C1.75926 10.8237 1.59961 10.4361 1.59961 9.98336C1.59961 9.53072 1.76079 9.14676 2.08315 8.83148C2.40551 8.51634 2.79308 8.35878 3.24586 8.35878C3.6985 8.35878 4.08246 8.51878 4.39773 8.83878C4.71287 9.15864 4.87044 9.54329 4.87044 9.99273C4.87044 10.4452 4.71044 10.8312 4.39044 11.1507C4.07044 11.47 3.68579 11.6296 3.23648 11.6296ZM3.23648 16.4004C2.78398 16.4004 2.39801 16.2393 2.07857 15.9169C1.75926 15.5945 1.59961 15.207 1.59961 14.7542C1.59961 14.3016 1.76079 13.9176 2.08315 13.6023C2.40551 13.2872 2.79308 13.1296 3.24586 13.1296C3.6985 13.1296 4.08246 13.2896 4.39773 13.6096C4.71287 13.9296 4.87044 14.3143 4.87044 14.7636C4.87044 15.2161 4.71044 15.602 4.39044 15.9215C4.07044 16.2408 3.68579 16.4004 3.23648 16.4004Z" fill="#1C1B1F"/>
    </g>
    </svg>
    