<svg width="578" height="200" viewBox="0 0 578 200" fill="none" xmlns="http://www.w3.org/2000/svg">
    <g clip-path="url(#clip0_115_21230)">
    <path d="M448.212 178.667L380.629 182.482C376.517 182.715 372.499 183.797 368.823 185.666L350.839 194.829C347.326 196.619 343.588 197.896 339.718 198.605C330.329 200.325 312.493 201.765 291.299 194.432C259.839 183.548 423.405 150.937 423.405 150.937L448.212 178.667Z" fill="#202020"/>
    <path d="M155.105 105.918L461.587 104.563C461.587 104.563 461.043 120.523 461.191 125.069C461.339 129.616 457.111 133.026 457.111 133.026L342.982 189.732C322.713 199.643 299.071 199.853 278.631 190.301L160.826 134.762C160.826 134.762 157.701 132.979 156.722 130.402C155.743 127.825 155.424 126.253 155.409 124.766C155.393 123.279 155.113 105.926 155.113 105.926L155.105 105.918Z" fill="#6E2594"/>
    <path d="M278.638 167.886L159.799 112.378C153.278 109.334 153.628 99.93 160.35 97.3765L287.124 49.2491C294.71 46.3686 303.049 46.1895 310.751 48.743L456.589 97.1196C463.117 99.2838 463.723 108.299 457.545 111.32L342.996 167.326C322.727 177.236 299.085 177.446 278.645 167.894L278.638 167.886Z" fill="#D8D7FF"/>
    <path opacity="0.3" d="M286.504 171.032V193.009C286.504 193.009 302.646 197.719 312.019 196.878C321.392 196.038 332.886 194.091 340.021 190.666V168.688C340.021 168.688 324.516 175.391 311.887 175.173C295.783 174.901 286.504 171.032 286.504 171.032Z" fill="#6E2594"/>
    <path d="M278.638 167.886L159.799 112.378C153.278 109.334 153.628 99.93 160.35 97.3765L287.124 49.2491C294.71 46.3686 303.049 46.1895 310.751 48.743L456.589 97.1196C463.117 99.2838 463.723 108.299 457.545 111.32L342.996 167.326C322.727 177.236 299.085 177.446 278.645 167.894L278.638 167.886Z" stroke="black" stroke-width="0.684661" stroke-linecap="round" stroke-linejoin="round"/>
    <path d="M461.841 105.006L461.173 125.45C461.064 128.859 459.082 131.934 456.028 133.437L342.979 189.295C322.71 199.205 299.068 199.416 278.628 189.863L161.895 135.337C157.986 133.515 155.468 129.607 155.406 125.294L155.126 105.598" stroke="black" stroke-width="0.684661" stroke-linecap="round" stroke-linejoin="round"/>
    <path d="M177.075 59.3527L483.557 57.998C483.557 57.998 483.013 73.9575 483.161 78.504C483.308 83.0505 479.08 86.4603 479.08 86.4603L364.951 143.167C344.682 153.077 321.04 153.288 300.601 143.735L182.795 88.1964C182.795 88.1964 179.671 86.4136 178.692 83.8368C177.712 81.2599 177.394 79.6873 177.378 78.2004C177.355 76.7056 177.083 59.3604 177.083 59.3604L177.075 59.3527Z" fill="#376AF7"/>
    <path d="M300.607 121.329L181.776 65.8139C175.256 62.7699 175.605 53.3656 182.328 50.812L309.094 2.6846C316.679 -0.195882 325.019 -0.374939 332.72 2.17857L478.559 50.5551C485.087 52.7194 485.693 61.7345 479.515 64.7551L364.966 120.761C344.697 130.672 321.055 130.882 300.615 121.329H300.607Z" fill="#D5EAFF"/>
    <path opacity="0.2" d="M308.473 124.474V146.451C308.473 146.451 324.615 151.161 333.988 150.321C343.36 149.48 354.855 147.534 361.989 144.108V122.131C361.989 122.131 346.485 128.834 333.855 128.616C317.752 128.343 308.473 124.474 308.473 124.474Z" fill="#212F87"/>
    <path d="M300.611 121.329L181.78 65.8139C175.259 62.7699 175.609 53.3656 182.332 50.812L309.098 2.6846C316.683 -0.195882 325.022 -0.374939 332.724 2.17857L478.563 50.5551C485.091 52.7194 485.697 61.7345 479.519 64.7551L364.97 120.761C344.701 130.672 321.059 130.882 300.619 121.329H300.611Z" stroke="black" stroke-width="0.684661" stroke-linecap="round" stroke-linejoin="round"/>
    <path d="M483.817 58.4502L483.149 78.8938C483.04 82.3037 481.058 85.3788 478.004 86.8814L364.955 142.739C344.686 152.65 321.044 152.86 300.605 143.308L183.872 88.7731C179.963 86.9514 177.444 83.0433 177.382 78.7304L177.103 59.0341" stroke="black" stroke-width="0.684661" stroke-linecap="round" stroke-linejoin="round"/>
    <path d="M419.29 51.1703L550.237 13.5449L553.144 13.8018C554.566 14.3857 566.636 19.5862 566.636 19.5862C566.636 19.5862 572.628 22.996 573.413 31.1937C574.206 39.3914 576.957 70.6875 576.957 70.6875C576.957 70.6875 577.283 81.1351 566.325 88.8968L568.68 120.403C568.68 120.403 568.4 126.413 563.512 128.616C558.623 130.82 447.579 179.173 447.579 179.173C447.579 179.173 441.129 179.975 440.002 173.933C438.875 167.892 426.448 56.7288 426.448 56.7288L418.862 53.2956L416.453 52.665C416.453 52.665 416.764 51.9099 419.29 51.1781V51.1703Z" fill="#FC9565"/>
    <path d="M419.991 51.5758C419.991 51.5758 429.698 55.2036 433.46 58.5045C437.221 61.8054 438.566 66.0872 438.566 66.0872L439.817 71.8092L442.149 83.8294L443.998 97.718L445.576 110.836L446.439 118.029C446.439 118.029 448.172 123.767 452.306 125.955C456.441 128.142 461.361 128.415 461.361 128.415L460.039 129.03L455.47 129.193C455.47 129.193 449.089 128.181 446.338 123.673C443.586 119.166 442.934 115.631 442.934 115.631L440.283 94.2381L437.773 77.1654C437.773 77.1654 436.708 68.6562 435.356 65.8147C434.012 62.9809 431.921 61.1203 431.921 61.1203L425.789 56.2857L418.087 53.0938L416.447 52.6657L417.862 51.5835L419.284 51.1787L419.983 51.5835L419.991 51.5758Z" fill="#ED7455"/>
    <path d="M423.402 166.468L418.568 164.203C418.568 164.203 417.76 163.907 417.737 162.428C417.713 160.949 415.91 54.4176 415.91 54.4176L416.112 53.281L416.446 52.6504L418.576 53.281L423.402 166.468Z" fill="#ED7455"/>
    <path d="M441.298 176.876L424.332 168.056C424.332 168.056 423.353 167.013 423.306 165.697C423.26 164.381 418.573 53.2803 418.573 53.2803L421.27 54.3935L426.446 56.7135L439.899 171.489L440.295 174.821L441.29 176.869L441.298 176.876Z" fill="#FB7B3E"/>
    <path d="M447.411 42.0786L452.533 39.9922L462.45 43.0673L464.517 40.0623L468.862 43.0673C468.862 43.0673 476.929 47.8707 479.874 64.8188C482.82 81.767 486.535 118.131 486.535 118.131L487.561 128.766L488.027 140.062C488.027 140.062 488.136 149.887 485.602 152.837C483.069 155.788 477.589 155.951 476.532 153.577C476.532 153.577 475.716 151.288 475.716 148.742C475.716 146.196 475.631 135.967 475.631 135.967L475.336 127.131L474.9 120.654L471.504 91.2959L468.854 71.2026L467.237 63.3397C467.237 63.3397 465.046 57.6098 464.144 55.7648C463.243 53.9197 459.909 49.7936 459.162 49.093C458.416 48.3923 453.365 44.8501 453.365 44.8501L446.922 42.4367L447.427 42.0864L447.411 42.0786Z" fill="#FB7B3E"/>
    <path d="M522.999 19.9756L528.921 22.5057C528.921 22.5057 538.046 26.7642 541.621 40.5593C545.188 54.3545 546.439 74.2844 546.439 74.2844L548.763 94.2921L549.33 111.022V120.504L550.123 123.517C550.123 123.517 551.934 124.537 554.825 123.914C557.716 123.292 559.418 121.532 559.76 119.376C560.102 117.219 560.498 110.913 560.498 110.913L560.584 103.533L559.706 93.9962L558.462 83.0348L556.022 61.7971L552.96 39.1969C552.96 39.1969 550.115 29.6524 547.286 25.2538C544.457 20.8553 539.071 17.7334 539.071 17.7334L535.388 16.083L531.447 17.1963C531.447 17.1963 522.517 19.2048 522.999 19.9678V19.9756Z" fill="#FB7B3E"/>
    <path d="M445.358 43.8388L446.905 42.4297L448.91 43.0681L454.646 45.8863C454.646 45.8863 458.081 48.4242 459.845 49.9423C461.609 51.4604 463.84 55.2362 463.84 55.2362L465.837 59.8138L467.562 64.4459L468.985 72.3011L470.314 82.3516L472.062 94.909L474.091 113.749L475.459 130.946L475.676 142.671C475.676 142.671 475.692 149.872 475.855 151.444C476.018 153.017 476.523 154.239 476.523 154.239C476.523 154.239 474.814 152.635 474.674 151.234C474.526 149.833 474.044 142.227 474.044 142.227L473.64 130.066L472.84 119.113L471.728 109.078L470.648 98.5913L468.993 86.143L467.228 73.2742L465.767 66.0263L463.731 59.1832L459.899 52.8929C459.899 52.8929 455.609 48.1362 453.907 47.0852C452.205 46.0264 446.462 43.6753 446.462 43.6753L445.374 43.8388H445.358Z" fill="#ED7455"/>
    <path d="M520.808 21.7058L522.58 19.9775L524.228 20.5069C524.228 20.5069 530.01 23.0137 532.653 25.1468C535.287 27.2722 538.404 32.5038 539.352 33.944C540.3 35.3842 541.777 41.4333 541.777 41.4333L543.059 49.1405L544.808 59.9851L547.404 82.7176L548.748 94.3096L549.074 106.05L549.144 116.264C549.144 116.264 549.393 120.226 549.393 121.106C549.393 121.986 550.108 123.527 550.108 123.527C550.108 123.527 548.204 122.398 547.994 120.608C547.784 118.817 547.854 110.183 547.854 110.183L547.271 99.3777L546.766 92.4645L545.748 83.4105L544.279 70.9932L542.461 56.2249L540.152 42.1573L538.474 36.7155C538.474 36.7155 535.777 30.682 532.94 27.4902C530.103 24.2983 525.969 22.1262 525.969 22.1262L522.977 21.3711L520.575 22.1262L520.801 21.7136L520.808 21.7058Z" fill="#ED7455"/>
    <path d="M473.493 131.949L472.591 132.097C472.591 132.097 471.426 132.144 471.488 130.641C471.55 129.131 475.047 123.051 475.047 123.051C475.047 123.051 476.073 121.447 476.881 121.081C477.69 120.715 485.632 118.769 485.632 118.769L488.423 118.029C488.423 118.029 490.109 119.625 489.985 121.112C489.86 122.599 487.575 126.095 487.575 126.095L487.016 122.475L484.521 123.199C484.521 123.199 484.133 124.896 483.581 124.935C483.029 124.974 482.477 123.759 482.477 123.759L478.179 124.826C478.179 124.826 477.449 125.238 476.625 126.235C475.801 127.231 473.625 130.602 473.625 130.602L473.812 132.097L473.493 131.949Z" fill="#FDCAB2"/>
    <path d="M547.147 102.778H546.315C546.315 102.778 545.118 102.451 545.375 101.096C545.631 99.7419 548.196 94.9385 548.849 94.0587C549.502 93.179 550.465 92.6652 551.297 92.4005C552.129 92.1358 560.818 89.9404 560.818 89.9404L561.688 90.6489C561.688 90.6489 562.38 91.8011 562.38 92.7197C562.38 93.6383 560.188 97.2351 560.188 97.2351L559.706 93.9809L557.359 94.6115C557.359 94.6115 556.97 96.1841 556.489 96.1763C556.007 96.1685 555.595 95.2187 555.595 95.2187L551.522 96.0362C551.522 96.0362 550.675 96.3553 550.294 97.0716C549.914 97.7878 547.341 101.346 547.341 101.346L547.155 102.77L547.147 102.778Z" fill="#FDCAB2"/>
    <path d="M452.532 39.9925C452.532 39.9925 458.742 29.5916 463.102 24.8816C467.47 20.1717 472.218 15.6952 477.565 11.8338C482.912 7.96464 488.018 6.61003 488.018 6.61003L493.7 5.13087L496.707 4.57812C496.707 4.57812 491.982 6.6256 490.055 8.40839C488.119 10.1912 481.451 16.0923 481.451 16.0923L473.633 24.6948L464.516 36.209L460.04 42.5772L452.532 39.9925Z" fill="#FC9565"/>
    <path d="M460.605 42.6233L462.082 43.067L462.774 42.4287L471.4 30.6732L480.688 19.7118L488.164 12.5105C488.164 12.5105 493.402 8.06526 497.553 6.98313C501.695 5.901 504.128 6.98313 504.128 6.98313L510.345 8.01076L519.189 11.7009L528.741 17.3996L534.034 20.8172L534.881 19.6106L531.617 17.5008L524.995 13.3903L517.145 9.24081C517.145 9.24081 510.081 5.63631 505.394 5.10692C500.708 4.57754 497.553 4.65539 497.553 4.65539C497.553 4.65539 494.529 5.41054 492.524 6.82743C490.519 8.24432 482.693 14.6359 482.693 14.6359L472.372 26.0955L462.408 38.9409L460.03 42.5844L460.598 42.6311L460.605 42.6233Z" fill="#ED7455"/>
    <path d="M524.638 20.2641L519.703 15.9356C519.703 15.9356 512.118 10.6963 510.408 9.92553C508.698 9.15481 503.592 6.80371 503.592 6.80371L509.452 7.86248L519.61 12.2066L529.076 17.2824L533.513 20.8091H525.687L524.638 20.2719V20.2641Z" fill="#ED7455"/>
    <path d="M446.446 43.6748L418.056 51.5144C416.766 51.8881 415.887 53.0792 415.911 54.4182L417.745 162.67C417.76 163.464 418.258 164.165 419.004 164.429L423.403 166.469" stroke="black" stroke-width="0.684661" stroke-miterlimit="10" stroke-linecap="round"/>
    <path d="M522.999 21.3701L466.233 37.6721" stroke="black" stroke-width="0.684661" stroke-miterlimit="10" stroke-linecap="round"/>
    <path d="M562.028 90.9687C562.184 90.9064 562.339 90.8519 562.487 90.7896C568.766 88.3607 573.802 83.3471 575.893 76.9322C576.709 74.4409 577.152 71.5994 576.888 68.4542C576.181 59.9217 574.409 41.4555 573.344 30.4707C572.823 25.099 569.38 20.4591 564.391 18.4116L552.873 13.6783C552.034 13.3357 551.101 13.2813 550.231 13.5304L537.733 17.1193" stroke="black" stroke-width="0.684661" stroke-miterlimit="10" stroke-linecap="round"/>
    <path d="M489.487 118.761C507.215 112.082 530.585 103.105 547.146 96.7139" stroke="black" stroke-width="0.684661" stroke-miterlimit="10" stroke-linecap="round"/>
    <path d="M418.863 51.2812C418.863 51.2812 433.109 54.6911 437.446 63.5661C441.782 72.4411 445.396 109.342 446.173 116.645C446.78 122.32 453.829 130.845 464.787 127.746C466.108 127.373 469.396 126.213 474.028 124.523" stroke="black" stroke-width="0.684661" stroke-miterlimit="10" stroke-linecap="round"/>
    <path d="M566.326 88.8903L568.649 118.801C568.991 123.246 566.481 127.411 562.401 129.186L448.217 178.676C444.588 180.248 440.469 177.866 440.01 173.927L426.456 56.8857" stroke="black" stroke-width="0.684661" stroke-miterlimit="10" stroke-linecap="round"/>
    <path d="M416.454 52.6592C416.454 52.6592 434.236 57.1745 436.552 69.1714C437.998 76.684 441.052 99.8446 443.166 116.232C444.332 125.317 453.355 131.187 462.121 128.556L464.795 127.754" stroke="black" stroke-width="0.684661" stroke-miterlimit="10" stroke-linecap="round"/>
    <path d="M418.515 53.2881L423.341 165.97C423.388 167.028 423.994 167.978 424.926 168.476L441.589 177.312" stroke="black" stroke-width="0.684661" stroke-miterlimit="10" stroke-linecap="round"/>
    <path d="M483.532 124.897C483.082 124.998 482.646 124.655 482.646 124.196V122.709C482.646 122.709 483.144 122.102 483.564 122.016C484.092 121.907 484.527 122.257 484.527 122.257L484.442 123.814C484.418 124.289 484.108 124.725 483.649 124.858C483.61 124.865 483.571 124.881 483.532 124.889V124.897Z" stroke="black" stroke-width="0.684661" stroke-miterlimit="10" stroke-linecap="round"/>
    <path d="M473.726 131.958L472.809 132.168C472.809 132.168 471.487 132.261 471.487 130.634C471.487 129.466 473.834 125.177 475.163 122.841C475.723 121.853 476.663 121.136 477.759 120.848L487.932 118.162C488.259 118.077 488.609 118.194 488.818 118.458C489.355 119.128 490.248 120.444 489.914 121.456C489.456 122.865 487.676 125.846 487.676 125.846" stroke="black" stroke-width="0.684661" stroke-miterlimit="10" stroke-linecap="round"/>
    <path d="M482.614 123.667L478.937 124.586C478.044 124.811 477.259 125.333 476.707 126.073L473.326 130.604" stroke="black" stroke-width="0.684661" stroke-miterlimit="10" stroke-linecap="round"/>
    <path d="M488.537 122.188L484.526 123.192" stroke="black" stroke-width="0.684661" stroke-miterlimit="10" stroke-linecap="round"/>
    <path d="M487.146 123.191C487.146 123.191 489.19 138.762 487.03 149.925C487.03 149.925 486.897 153.763 481.83 154.892C477.867 155.772 475.146 154.254 474.657 151.786C474.167 149.326 474.027 131.21 473.639 130.198" stroke="black" stroke-width="0.684661" stroke-miterlimit="10" stroke-linecap="round"/>
    <path d="M475.325 127.924C475.325 127.924 475.605 132.089 475.659 139.422C475.714 146.756 475.279 151.879 476.887 154.564" stroke="black" stroke-width="0.684661" stroke-miterlimit="10" stroke-linecap="round"/>
    <path d="M446.904 42.4297L448.389 42.9046C456.37 45.3958 462.79 51.4059 465.72 59.2455C466.862 62.305 467.888 65.8784 468.549 69.9422C471.106 85.5825 475.163 122.842 475.163 122.842" stroke="black" stroke-width="0.684661" stroke-miterlimit="10" stroke-linecap="round"/>
    <path d="M446.445 43.6748L446.609 43.7293C454.59 46.2205 461.01 52.2306 463.94 60.0702C465.082 63.1298 466.108 66.7031 466.769 70.7669C469.326 86.4072 473.623 125.628 473.623 125.628" stroke="black" stroke-width="0.684661" stroke-miterlimit="10" stroke-linecap="round"/>
    <path d="M452.764 40.0625L448.031 41.8141C447.619 41.9309 447.23 42.1411 446.904 42.4214L444.945 44.0796" stroke="black" stroke-width="0.684661" stroke-miterlimit="10" stroke-linecap="round"/>
    <path d="M486.532 118.13C486.532 118.13 482.475 80.8702 479.918 65.2299C479.25 61.1661 478.232 57.5927 477.089 54.5332C474.797 48.4063 470.211 43.2448 464.515 40.1074" stroke="black" stroke-width="0.684661" stroke-miterlimit="10" stroke-linecap="round"/>
    <path d="M556.434 96.2015C556.015 96.2949 555.618 95.9835 555.618 95.5553V94.1852C555.618 94.1852 556.077 93.6246 556.465 93.5468C556.955 93.4456 557.351 93.7725 557.351 93.7725L557.274 95.2128C557.25 95.6565 556.97 96.0536 556.543 96.1781C556.512 96.1859 556.473 96.2015 556.434 96.2093V96.2015Z" stroke="black" stroke-width="0.684661" stroke-miterlimit="10" stroke-linecap="round"/>
    <path d="M547.372 102.724L546.525 102.919C546.525 102.919 545.305 103.004 545.305 101.502C545.305 100.427 547.473 96.4649 548.701 94.3006C549.222 93.3898 550.084 92.728 551.102 92.4556L560.499 89.9721C560.802 89.8943 561.12 90.0033 561.322 90.2446C561.82 90.8596 562.644 92.0819 562.341 93.0083C561.913 94.3162 560.273 97.0643 560.273 97.0643" stroke="black" stroke-width="0.684661" stroke-miterlimit="10" stroke-linecap="round"/>
    <path d="M555.586 95.0635L552.19 95.912C551.366 96.1145 550.635 96.6049 550.13 97.2822L547.006 101.471" stroke="black" stroke-width="0.684661" stroke-miterlimit="10" stroke-linecap="round"/>
    <path d="M561.059 93.6943L557.352 94.6208" stroke="black" stroke-width="0.684661" stroke-miterlimit="10" stroke-linecap="round"/>
    <path d="M559.774 94.6201C559.774 94.6201 561.67 109.007 559.665 119.33C559.665 119.33 559.548 122.872 554.854 123.915C551.193 124.733 548.675 123.324 548.225 121.051C547.774 118.777 547.642 102.032 547.284 101.097" stroke="black" stroke-width="0.684661" stroke-miterlimit="10" stroke-linecap="round"/>
    <path d="M548.848 99.0029C548.848 99.0029 549.104 102.849 549.159 109.63C549.213 116.41 548.809 121.144 550.293 123.619" stroke="black" stroke-width="0.684661" stroke-miterlimit="10" stroke-linecap="round"/>
    <path d="M522.577 19.9775L523.953 20.4135C531.328 22.7179 537.266 28.2764 539.97 35.5166C541.027 38.3426 541.968 41.6435 542.59 45.4037C544.952 59.8606 548.698 94.3018 548.698 94.3018" stroke="black" stroke-width="0.684661" stroke-miterlimit="10" stroke-linecap="round"/>
    <path d="M522.997 21.3701C530.373 23.6745 535.619 29.0384 538.331 36.2864C539.388 39.1123 540.328 42.4132 540.95 46.1734C543.313 60.6303 547.284 96.8777 547.284 96.8777" stroke="black" stroke-width="0.684661" stroke-miterlimit="10" stroke-linecap="round"/>
    <path d="M523.621 19.417C523.24 19.526 522.882 19.7206 522.579 19.9775L520.38 22.1184" stroke="black" stroke-width="0.684661" stroke-miterlimit="10" stroke-linecap="round"/>
    <path d="M559.2 89.9491C559.2 89.9491 555.454 55.5157 553.092 41.051C552.478 37.2908 551.537 33.9899 550.473 31.1639C548.017 24.5933 542.709 19.2293 536.258 16.5902C535.566 16.3022 534.789 16.2554 534.066 16.4579L531.432 17.2052" stroke="black" stroke-width="0.684661" stroke-miterlimit="10" stroke-linecap="round"/>
    <path d="M554.342 48.8271C563.823 45.8454 571.106 43.5332 574.494 42.4277" stroke="black" stroke-width="0.684661" stroke-miterlimit="10" stroke-linecap="round"/>
    <path d="M480.975 71.7545C500.171 65.7755 523.145 58.6132 541.766 52.7744" stroke="black" stroke-width="0.684661" stroke-miterlimit="10" stroke-linecap="round"/>
    <path d="M442.148 83.8297C442.148 83.8297 452.485 80.6145 467.43 75.9668" stroke="black" stroke-width="0.684661" stroke-miterlimit="10" stroke-linecap="round"/>
    <path d="M460.469 42.5689C460.252 42.4911 460.166 42.242 460.298 42.0551C462.894 38.3183 484.733 7.34138 497.572 4.84237C510.139 2.39006 531.379 17.2596 534.698 19.6574C534.931 19.8287 534.962 20.1634 534.76 20.3736L534.511 20.6305C534.294 20.8485 533.959 20.8797 533.711 20.7084C530.548 18.4585 510.504 4.63217 498.24 6.84314C485.766 9.09303 465.171 38.9255 462.544 42.7869C462.381 43.0282 462.07 43.1295 461.79 43.036L460.469 42.5767V42.5689Z" stroke="black" stroke-width="0.684661" stroke-miterlimit="10" stroke-linecap="round"/>
    <path d="M501.159 6.59375C501.159 6.59375 512.576 8.32204 524.622 20.3422C524.91 20.6303 525.298 20.7938 525.703 20.786L534.05 20.8093" stroke="black" stroke-width="0.684661" stroke-miterlimit="10" stroke-linecap="round"/>
    <path d="M460.467 42.5684L452.532 39.9837C452.532 39.9837 471.122 4.56934 499.894 4.56934" stroke="black" stroke-width="0.684661" stroke-miterlimit="10" stroke-linecap="round"/>
    </g>
    <defs>
    <clipPath id="clip0_115_21230">
    <rect width="422.639" height="199.999" fill="white" transform="translate(154.716)"/>
    </clipPath>
    </defs>
    </svg>
    