<svg width="20" height="20" viewBox="0 0 20 20" fill="none" xmlns="http://www.w3.org/2000/svg">
<mask id="mask0_105_48888" style="mask-type:alpha" maskUnits="userSpaceOnUse" x="0" y="0" width="20" height="20">
<rect width="20" height="20" fill="#D9D9D9"/>
</mask>
<g mask="url(#mask0_105_48888)">
<path d="M5.63544 18.4004C5.06572 18.4004 4.58398 18.2025 4.19023 17.8067C3.79648 17.4109 3.59961 16.9282 3.59961 16.3588V3.64128C3.59961 3.07183 3.79753 2.58919 4.19336 2.19336C4.58919 1.79753 5.07183 1.59961 5.64128 1.59961H11.3161C11.5832 1.59961 11.8433 1.64808 12.0965 1.74503C12.3498 1.84197 12.5734 1.99433 12.7673 2.20211L15.7979 5.23273C16.0057 5.42662 16.1581 5.65023 16.255 5.90357C16.352 6.15676 16.4004 6.4169 16.4004 6.68398V16.3588C16.4004 16.9282 16.2025 17.4109 15.8065 17.8067C15.4105 18.2025 14.9277 18.4004 14.3579 18.4004H5.63544ZM10.8588 6.12044C10.8588 6.40364 10.9581 6.64461 11.1567 6.84336C11.3554 7.04197 11.5964 7.14128 11.8796 7.14128H14.3588L10.8588 3.64128V6.12044ZM9.25523 12.8796V14.3796C9.25523 14.5921 9.32732 14.7702 9.47148 14.914C9.61551 15.0577 9.79329 15.1296 10.0048 15.1296C10.2165 15.1296 10.3938 15.0577 10.5369 14.914C10.6801 14.7702 10.7517 14.5921 10.7517 14.3796V12.8796H12.2452C12.4568 12.8796 12.6354 12.8082 12.7813 12.6652C12.9271 12.5223 13 12.3452 13 12.134C13 11.9227 12.9282 11.745 12.7844 11.6009C12.6407 11.4568 12.4625 11.3848 12.25 11.3848H10.75V9.88128C10.75 9.66836 10.6782 9.48982 10.5344 9.34565C10.3907 9.20162 10.2125 9.12961 10 9.12961C9.78753 9.12961 9.6094 9.20162 9.46565 9.34565C9.3219 9.48982 9.25003 9.66836 9.25003 9.88128V11.3848H7.75003C7.53753 11.3848 7.3594 11.4568 7.21565 11.6009C7.0719 11.745 7.00003 11.9213 7.00003 12.1296C7.00003 12.3421 7.07204 12.5202 7.21607 12.664C7.36023 12.8077 7.53878 12.8796 7.75169 12.8796H9.25523Z" fill="#1C1B1F"/>
</g>
</svg>
