<svg width="17" height="16" viewBox="0 0 17 16" fill="none" xmlns="http://www.w3.org/2000/svg">
    <path d="M8.11784 1.33301C8.48604 1.33301 8.7845 1.63149 8.7845 1.99967V3.99967C8.7845 4.36786 8.48604 4.66634 8.11784 4.66634C7.74964 4.66634 7.45117 4.36786 7.45117 3.99967V1.99967C7.45117 1.63149 7.74964 1.33301 8.11784 1.33301ZM8.11784 11.333C8.48604 11.333 8.7845 11.6315 8.7845 11.9997V13.9997C8.7845 14.3679 8.48604 14.6663 8.11784 14.6663C7.74964 14.6663 7.45117 14.3679 7.45117 13.9997V11.9997C7.45117 11.6315 7.74964 11.333 8.11784 11.333ZM14.7845 7.99967C14.7845 8.36787 14.486 8.66634 14.1178 8.66634H12.1178C11.7496 8.66634 11.4512 8.36787 11.4512 7.99967C11.4512 7.63147 11.7496 7.33301 12.1178 7.33301H14.1178C14.486 7.33301 14.7845 7.63147 14.7845 7.99967ZM4.7845 7.99967C4.7845 8.36787 4.48603 8.66634 4.11784 8.66634H2.11784C1.74965 8.66634 1.45117 8.36787 1.45117 7.99967C1.45117 7.63147 1.74965 7.33301 2.11784 7.33301H4.11784C4.48603 7.33301 4.7845 7.63147 4.7845 7.99967ZM12.8319 12.7137C12.5715 12.9741 12.1494 12.9741 11.8891 12.7137L10.4748 11.2995C10.2145 11.0391 10.2145 10.6171 10.4748 10.3567C10.7352 10.0963 11.1573 10.0963 11.4176 10.3567L12.8319 11.7709C13.0922 12.0313 13.0922 12.4533 12.8319 12.7137ZM5.76082 5.64265C5.50046 5.903 5.07836 5.903 4.81801 5.64265L3.40379 4.22844C3.14345 3.96809 3.14345 3.54598 3.40379 3.28563C3.66414 3.02528 4.08625 3.02528 4.34661 3.28563L5.76082 4.69984C6.02116 4.96019 6.02116 5.3823 5.76082 5.64265ZM3.40379 12.7137C3.14345 12.4533 3.14345 12.0313 3.40379 11.7709L4.81801 10.3567C5.07836 10.0963 5.50046 10.0963 5.76082 10.3567C6.02116 10.6171 6.02116 11.0391 5.76082 11.2995L4.34661 12.7137C4.08625 12.9741 3.66414 12.9741 3.40379 12.7137ZM10.4748 5.64265C10.2145 5.3823 10.2145 4.96019 10.4748 4.69984L11.8891 3.28563C12.1494 3.02528 12.5715 3.02528 12.8319 3.28563C13.0922 3.54598 13.0922 3.96809 12.8319 4.22844L11.4176 5.64265C11.1573 5.903 10.7352 5.903 10.4748 5.64265Z" fill="#FA742B"/>
    </svg>
    