<svg width="112" height="111" viewBox="0 0 112 111" fill="none" xmlns="http://www.w3.org/2000/svg">
<g clip-path="url(#clip0_869_95686)">
<path d="M97.4356 89.517C116.474 66.9522 115.968 35.367 96.3038 18.9694C76.6399 2.57184 45.2653 7.57132 26.2266 30.1361C7.18785 52.7008 7.69459 84.286 27.3584 100.684C47.0222 117.081 78.3969 112.082 97.4356 89.517Z" fill="#0075CF"/>
<path d="M85.7754 80.9183C104.814 58.3536 104.307 26.7684 84.6436 10.3708C64.9798 -6.02679 33.6051 -1.02731 14.5664 21.5374C-4.47231 44.1022 -3.96557 75.6874 15.6983 92.085C35.3621 108.483 66.7367 103.483 85.7754 80.9183Z" fill="#45AEFF"/>
<path fill-rule="evenodd" clip-rule="evenodd" d="M30.6818 45.6036L39.5623 53.8813L69.1529 20.1387L70.9779 20.5113L82.4817 30.0849V31.9802L41.1754 78.3419L18.3633 59.2756V56.5866L27.8792 45.6036H30.6818Z" fill="#ECF7FF"/>
<path fill-rule="evenodd" clip-rule="evenodd" d="M46.2557 80.8364L85.8511 35.3332V33.1463L82.8692 31.0566L41.1719 78.3417L43.8279 80.8364H46.2557Z" fill="#B5DFFF"/>
<path d="M87.99 78.0143C105.003 53.8594 101.859 22.4889 80.9676 7.9462C60.0763 -6.59648 29.3489 1.19576 12.3359 25.3506C-4.67703 49.5055 -1.53301 80.8761 19.3583 95.4188C40.2496 109.961 70.977 102.169 87.99 78.0143Z" stroke="black" stroke-width="0.5" stroke-linecap="round" stroke-linejoin="round"/>
<path d="M19.3555 95.432L31.283 103.272C52.1724 117.819 82.9036 110.027 99.9149 85.8746C116.926 61.7217 113.781 30.3441 92.892 15.7974L80.9646 7.95703" stroke="black" stroke-width="0.5" stroke-linecap="round" stroke-linejoin="round"/>
<path d="M27.8789 67.0357L37.6229 75.5241L39.5457 77.1926C40.4908 78.0025 41.9084 77.9215 42.7394 76.982L81.9763 32.4021C82.7421 31.5274 82.6443 30.2153 81.7807 29.4539L71.7108 20.7064C70.7657 19.8802 69.3318 19.9774 68.5008 20.917L39.5783 53.7687" stroke="black" stroke-width="0.5" stroke-linecap="round" stroke-linejoin="round"/>
<path d="M73.6665 22.4238L85.4474 32.6616C86.3273 33.423 86.4087 34.7351 85.6429 35.6099L46.569 79.9953C45.6565 81.0321 44.0759 81.1293 43.0494 80.2221L31.5781 70.2435" stroke="black" stroke-width="0.5" stroke-linecap="round" stroke-linejoin="round"/>
<path d="M37.6229 75.5235L27.8789 67.0352L19.1125 59.4216C18.1837 58.6117 18.086 57.2186 18.9007 56.2952L27.6671 46.3652C28.4818 45.4418 29.8831 45.3608 30.8119 46.1546L39.562 53.7681" stroke="black" stroke-width="0.5" stroke-linecap="round" stroke-linejoin="round"/>
</g>
<defs>
<clipPath id="clip0_869_95686">
<rect width="110.769" height="110.769" fill="white" transform="translate(0.617188 0.230469)"/>
</clipPath>
</defs>
</svg>
