<svg width="40" height="40" viewBox="0 0 40 40" fill="none" xmlns="http://www.w3.org/2000/svg">
<g id="Frame">
<path id="Vector" d="M24.6263 9.98925L26.9988 19.4873L24.6245 29.0107H17.3696L14.9971 19.5L17.3696 9.98925H24.6263ZM25.1674 6H16.8303C15.321 6 14.0054 7.02995 13.6399 8.49691L11.1045 18.6514C10.9652 19.2081 10.9652 19.7919 11.1045 20.3486L13.638 30.5031C14.0036 31.97 15.3192 33 16.8285 33H25.1656C26.6749 33 27.9905 31.97 28.3561 30.5031L30.9023 20.287C31.0326 19.7629 31.0326 19.2135 30.9023 18.6876L28.3579 8.49691C27.9923 7.02995 26.6767 6.00181 25.1674 6.00181V6Z" fill="#CAAAF0"/>
</g>
</svg>
