<svg width="33" height="33" viewBox="0 0 33 33" fill="none" xmlns="http://www.w3.org/2000/svg">
    <rect x="0.25" y="0.571533" width="32" height="32" rx="16" fill="#FFE0E8" fill-opacity="0.4"/>
    <mask id="mask0_729_7396" style="mask-type:alpha" maskUnits="userSpaceOnUse" x="6" y="6" width="20" height="21">
    <rect x="6" y="6.57153" width="20" height="20" fill="#D9D9D9"/>
    </mask>
    <g mask="url(#mask0_729_7396)">
    <path d="M14.9002 17.0816L13.9447 16.1584C13.7447 15.9586 13.5181 15.8606 13.2647 15.8645C13.0115 15.8685 12.7849 15.9704 12.5849 16.1703C12.3851 16.3702 12.2852 16.5983 12.2852 16.8547C12.2852 17.1109 12.3851 17.3391 12.5849 17.5391L14.1793 19.1449C14.387 19.3527 14.6272 19.4566 14.9002 19.4566C15.1732 19.4566 15.4136 19.3527 15.6212 19.1449L19.3404 15.4141C19.5404 15.2141 19.6384 14.9839 19.6343 14.7236C19.6304 14.4635 19.5286 14.2334 19.3287 14.0334C19.1288 13.8336 18.9042 13.7336 18.6547 13.7336C18.4053 13.7336 18.1806 13.8336 17.9808 14.0334L14.9002 17.0816ZM10.6393 23.972C10.0657 23.972 9.58203 23.7751 9.18828 23.3814C8.79453 22.9876 8.59766 22.5039 8.59766 21.9303V11.2128C8.59766 10.6392 8.79453 10.1555 9.18828 9.76177C9.58203 9.36802 10.0657 9.17114 10.6393 9.17114H21.3568C21.9304 9.17114 22.4141 9.36802 22.8079 9.76177C23.2016 10.1555 23.3985 10.6392 23.3985 11.2128V21.9303C23.3985 22.5039 23.2016 22.9876 22.8079 23.3814C22.4141 23.7751 21.9304 23.972 21.3568 23.972H10.6393Z" fill="#D45276"/>
    </g>
    </svg>
    