<svg width="32" height="33" viewBox="0 0 32 33" fill="none" xmlns="http://www.w3.org/2000/svg">
    <rect y="0.428711" width="32" height="32" rx="16" fill="#55D47C" fill-opacity="0.15"/>
    <mask id="mask0_729_7505" style="mask-type:alpha" maskUnits="userSpaceOnUse" x="6" y="6" width="20" height="21">
    <rect x="6" y="6.42871" width="20" height="20" fill="#D9D9D9"/>
    </mask>
    <g mask="url(#mask0_729_7505)">
    <path d="M10.6393 24.8292C10.0699 24.8292 9.58724 24.6288 9.19141 24.2281C8.79557 23.8274 8.59766 23.3472 8.59766 22.7875V12.07C8.59766 11.5103 8.79557 11.0301 9.19141 10.6294C9.58724 10.2287 10.0699 10.0283 10.6393 10.0283H11.9981V8.9079C11.9981 8.66401 12.0852 8.45644 12.2595 8.28519C12.4338 8.11394 12.6423 8.02832 12.8849 8.02832C13.1276 8.02832 13.3356 8.11394 13.5089 8.28519C13.6822 8.45644 13.7689 8.66401 13.7689 8.9079V10.0283H18.2272V8.9079C18.2272 8.66401 18.3144 8.45644 18.4887 8.28519C18.663 8.11394 18.8715 8.02832 19.1141 8.02832C19.3568 8.02832 19.5647 8.11394 19.7381 8.28519C19.9114 8.45644 19.9981 8.66401 19.9981 8.9079V10.0283H21.3568C21.9263 10.0283 22.4089 10.2287 22.8047 10.6294C23.2006 11.0301 23.3985 11.5103 23.3985 12.07V22.7875C23.3985 23.3472 23.2006 23.8274 22.8047 24.2281C22.4089 24.6288 21.9263 24.8292 21.3568 24.8292H10.6393ZM10.6393 22.7875H21.3568V15.4287H10.6393V22.7875ZM16.0024 18.5229C15.7645 18.5229 15.5636 18.4424 15.3997 18.2814C15.2359 18.1205 15.1539 17.921 15.1539 17.6831C15.1539 17.4452 15.2344 17.2443 15.3954 17.0804C15.5563 16.9165 15.7558 16.8346 15.9937 16.8346C16.2316 16.8346 16.4325 16.9151 16.5964 17.076C16.7603 17.237 16.8422 17.4364 16.8422 17.6744C16.8422 17.9123 16.7618 18.1132 16.6008 18.2771C16.4398 18.441 16.2404 18.5229 16.0024 18.5229ZM12.7524 18.5229C12.5145 18.5229 12.3136 18.4424 12.1497 18.2814C11.9859 18.1205 11.9039 17.921 11.9039 17.6831C11.9039 17.4452 11.9844 17.2443 12.1454 17.0804C12.3063 16.9165 12.5058 16.8346 12.7437 16.8346C12.9816 16.8346 13.1825 16.9151 13.3464 17.076C13.5103 17.237 13.5922 17.4364 13.5922 17.6744C13.5922 17.9123 13.5118 18.1132 13.3508 18.2771C13.1898 18.441 12.9904 18.5229 12.7524 18.5229ZM19.2524 18.5229C19.0255 18.5229 18.8273 18.4424 18.6579 18.2814C18.4886 18.1205 18.4039 17.921 18.4039 17.6831C18.4039 17.4452 18.4871 17.2443 18.6535 17.0804C18.82 16.9165 19.0187 16.8346 19.2495 16.8346C19.4805 16.8346 19.6787 16.9151 19.8441 17.076C20.0095 17.237 20.0922 17.4364 20.0922 17.6744C20.0922 17.9123 20.0118 18.1132 19.8508 18.2771C19.6898 18.441 19.4904 18.5229 19.2524 18.5229ZM16.0024 21.5229C15.7645 21.5229 15.5636 21.4397 15.3997 21.2733C15.2359 21.1068 15.1539 20.9081 15.1539 20.6773C15.1539 20.4463 15.2344 20.2481 15.3954 20.0827C15.5563 19.9173 15.7558 19.8346 15.9937 19.8346C16.2316 19.8346 16.4325 19.9151 16.5964 20.076C16.7603 20.237 16.8422 20.4364 16.8422 20.6744C16.8422 20.9013 16.7618 21.0995 16.6008 21.2689C16.4398 21.4383 16.2404 21.5229 16.0024 21.5229ZM12.7524 21.5229C12.5145 21.5229 12.3136 21.4397 12.1497 21.2733C11.9859 21.1068 11.9039 20.9081 11.9039 20.6773C11.9039 20.4463 11.9844 20.2481 12.1454 20.0827C12.3063 19.9173 12.5058 19.8346 12.7437 19.8346C12.9816 19.8346 13.1825 19.9151 13.3464 20.076C13.5103 20.237 13.5922 20.4364 13.5922 20.6744C13.5922 20.9013 13.5118 21.0995 13.3508 21.2689C13.1898 21.4383 12.9904 21.5229 12.7524 21.5229ZM19.2524 21.5229C19.0255 21.5229 18.8273 21.4397 18.6579 21.2733C18.4886 21.1068 18.4039 20.9081 18.4039 20.6773C18.4039 20.4463 18.4871 20.2481 18.6535 20.0827C18.82 19.9173 19.0187 19.8346 19.2495 19.8346C19.4805 19.8346 19.6787 19.9151 19.8441 20.076C20.0095 20.237 20.0922 20.4364 20.0922 20.6744C20.0922 20.9013 20.0118 21.0995 19.8508 21.2689C19.6898 21.4383 19.4904 21.5229 19.2524 21.5229Z" fill="#55D47C"/>
    </g>
    </svg>
    