<svg width="33" height="33" viewBox="0 0 33 33" fill="none" xmlns="http://www.w3.org/2000/svg">
    <rect x="0.75" y="0.857178" width="32" height="32" rx="16" fill="#5863F8" fill-opacity="0.1"/>
    <mask id="mask0_729_7509" style="mask-type:alpha" maskUnits="userSpaceOnUse" x="6" y="6" width="21" height="21">
    <rect x="6.75" y="6.85718" width="20" height="20" fill="#D9D9D9"/>
    </mask>
    <g mask="url(#mask0_729_7509)">
    <path d="M10.3913 23.2576C9.82183 23.2576 9.33919 23.0596 8.94336 22.6637C8.54753 22.2677 8.34961 21.7848 8.34961 21.2151V12.4926C8.34961 11.9229 8.54753 11.4412 8.94336 11.0474C9.33919 10.6537 9.82183 10.4568 10.3913 10.4568H23.1088C23.6782 10.4568 24.1609 10.6548 24.5567 11.0507C24.9525 11.4467 25.1504 11.9296 25.1504 12.4993V21.2218C25.1504 21.7915 24.9525 22.2732 24.5567 22.667C24.1609 23.0607 23.6782 23.2576 23.1088 23.2576H10.3913ZM16.75 18.2005C16.8442 18.2005 16.9377 18.1862 17.0304 18.1574C17.1231 18.1288 17.2126 18.0858 17.299 18.0285L22.684 14.8899C22.8029 14.8205 22.9034 14.7153 22.9854 14.5745C23.0677 14.4338 23.1088 14.2774 23.1088 14.1053C23.1088 13.7613 22.9561 13.5001 22.6509 13.3216C22.3454 13.1431 22.0307 13.1498 21.7065 13.3418L16.75 16.2276L11.8144 13.3626C11.5034 13.1785 11.1885 13.1656 10.8696 13.3241C10.5507 13.4827 10.3913 13.7431 10.3913 14.1053C10.3913 14.2757 10.4359 14.4298 10.525 14.5674C10.6141 14.7051 10.718 14.8126 10.8369 14.8899L16.2219 18.0285C16.3019 18.0858 16.3847 18.1288 16.4702 18.1574C16.5559 18.1862 16.6492 18.2005 16.75 18.2005Z" fill="#5863F8"/>
    </g>
    </svg>
    