<svg width="33" height="33" viewBox="0 0 33 33" fill="none" xmlns="http://www.w3.org/2000/svg">
    <rect x="0.25" y="0.714355" width="32" height="32" rx="16" fill="#B6DCFE" fill-opacity="0.15"/>
    <mask id="mask0_729_7418" style="mask-type:alpha" maskUnits="userSpaceOnUse" x="6" y="6" width="21" height="21">
    <rect x="6.25" y="6.71436" width="20" height="20" fill="#D9D9D9"/>
    </mask>
    <g mask="url(#mask0_729_7418)">
    <path d="M16.2481 16.5141C15.297 16.5141 14.4924 16.1851 13.8345 15.5272C13.1766 14.8693 12.8477 14.0647 12.8477 13.1136C12.8477 12.1625 13.1766 11.36 13.8345 10.7061C14.4924 10.0521 15.297 9.7251 16.2481 9.7251C17.1992 9.7251 18.0037 10.0521 18.6616 10.7061C19.3195 11.36 19.6485 12.1625 19.6485 13.1136C19.6485 14.0647 19.3195 14.8693 18.6616 15.5272C18.0037 16.1851 17.1992 16.5141 16.2481 16.5141ZM9.84766 21.2732V20.8909C9.84766 20.5008 9.95411 20.132 10.167 19.7845C10.3798 19.437 10.6743 19.1503 11.0506 18.9245C11.8381 18.4721 12.6746 18.124 13.5602 17.8801C14.4457 17.6361 15.3417 17.5141 16.2481 17.5141C17.1702 17.5141 18.074 17.6341 18.9595 17.8741C19.8451 18.1142 20.6738 18.4604 21.4456 18.9126C21.8218 19.1245 22.1163 19.4058 22.3291 19.7563C22.542 20.1069 22.6485 20.4851 22.6485 20.8909V21.2732C22.6485 21.8468 22.4516 22.3305 22.0579 22.7243C21.6641 23.118 21.1804 23.3149 20.6068 23.3149H11.8893C11.3157 23.3149 10.832 23.118 10.4383 22.7243C10.0445 22.3305 9.84766 21.8468 9.84766 21.2732Z" fill="#0E8DFB"/>
    </g>
    </svg>
    