<svg width="33" height="33" viewBox="0 0 33 33" fill="none" xmlns="http://www.w3.org/2000/svg">
    <rect x="0.25" y="0.285645" width="32" height="32" rx="16" fill="#FCEEF0" fill-opacity="0.6"/>
    <mask id="mask0_729_7431" style="mask-type:alpha" maskUnits="userSpaceOnUse" x="6" y="6" width="21" height="21">
    <rect x="6.25" y="6.28564" width="20" height="20" fill="#D9D9D9"/>
    </mask>
    <g mask="url(#mask0_729_7431)">
    <path d="M16.2481 16.0853C15.297 16.0853 14.4924 15.7564 13.8345 15.0985C13.1766 14.4406 12.8477 13.636 12.8477 12.6849C12.8477 11.7338 13.1766 10.9313 13.8345 10.2774C14.4924 9.6234 15.297 9.29639 16.2481 9.29639C17.1992 9.29639 18.0037 9.6234 18.6616 10.2774C19.3195 10.9313 19.6485 11.7338 19.6485 12.6849C19.6485 13.636 19.3195 14.4406 18.6616 15.0985C18.0037 15.7564 17.1992 16.0853 16.2481 16.0853ZM9.84766 20.8445V20.4622C9.84766 20.0721 9.95411 19.7033 10.167 19.3558C10.3798 19.0083 10.6743 18.7216 11.0506 18.4958C11.8381 18.0434 12.6746 17.6953 13.5602 17.4514C14.4457 17.2074 15.3417 17.0853 16.2481 17.0853C17.1702 17.0853 18.074 17.2053 18.9595 17.4453C19.8451 17.6855 20.6738 18.0317 21.4456 18.4839C21.8218 18.6958 22.1163 18.9771 22.3291 19.3276C22.542 19.6782 22.6485 20.0564 22.6485 20.4622V20.8445C22.6485 21.4181 22.4516 21.9018 22.0579 22.2956C21.6641 22.6893 21.1804 22.8862 20.6068 22.8862H11.8893C11.3157 22.8862 10.832 22.6893 10.4383 22.2956C10.0445 21.9018 9.84766 21.4181 9.84766 20.8445Z" fill="#D52941"/>
    </g>
    </svg>
    