<svg width="33" height="33" viewBox="0 0 33 33" fill="none" xmlns="http://www.w3.org/2000/svg">
    <rect x="0.75" y="0.571533" width="32" height="32" rx="16" fill="#FFE0E8" fill-opacity="0.5"/>
    <mask id="mask0_729_7392" style="mask-type:alpha" maskUnits="userSpaceOnUse" x="7" y="6" width="20" height="21">
    <rect x="7" y="6.57153" width="20" height="20" fill="#D9D9D9"/>
    </mask>
    <g mask="url(#mask0_729_7392)">
    <path d="M14.5536 19.9955L15.105 18.5055H18.664L19.2157 19.9955H18.6007C18.3826 19.9955 18.1968 20.0723 18.0432 20.2259C17.8894 20.3797 17.8125 20.5655 17.8125 20.7834C17.8125 21.0015 17.8894 21.1873 18.0432 21.3409C18.1968 21.4947 18.3826 21.5716 18.6007 21.5716H21.4411C21.6591 21.5716 21.845 21.4947 21.9986 21.3409C22.1523 21.1873 22.2292 21.0015 22.2292 20.7834C22.2292 20.5655 22.1523 20.3797 21.9986 20.2259C21.845 20.0723 21.6591 19.9955 21.4411 19.9955H21.3632L18.4529 12.2961C18.3678 12.0764 18.2312 11.9007 18.0432 11.7691C17.855 11.6374 17.6401 11.5716 17.3986 11.5716H16.5634C16.3218 11.5716 16.109 11.6393 15.9248 11.7749C15.7407 11.9104 15.6062 12.0882 15.5215 12.308L12.6577 19.9955H12.5798C12.3618 19.9955 12.1759 20.0723 12.0223 20.2259C11.8686 20.3797 11.7917 20.5655 11.7917 20.7834C11.7917 21.0015 11.8686 21.1873 12.0223 21.3409C12.1759 21.4947 12.3618 21.5716 12.5798 21.5716H15.2952C15.5133 21.5716 15.6991 21.4947 15.8527 21.3409C16.0065 21.1873 16.0834 21.0015 16.0834 20.7834C16.0834 20.5655 16.0052 20.3797 15.8488 20.2259C15.6924 20.0723 15.5079 19.9955 15.2952 19.9955H14.5536ZM15.6613 16.9539L16.7744 13.9474H17.0182L18.1313 16.9539H15.6613ZM10.6413 24.972C10.0718 24.972 9.58919 24.7741 9.19336 24.3782C8.79753 23.9824 8.59961 23.4998 8.59961 22.9303V10.2128C8.59961 9.64336 8.79753 9.16073 9.19336 8.76489C9.58919 8.36906 10.0718 8.17114 10.6413 8.17114H23.3588C23.9282 8.17114 24.4109 8.36906 24.8067 8.76489C25.2025 9.16073 25.4004 9.64336 25.4004 10.2128V22.9303C25.4004 23.4998 25.2025 23.9824 24.8067 24.3782C24.4109 24.7741 23.9282 24.972 23.3588 24.972H10.6413Z" fill="#805B81"/>
    </g>
    </svg>
    