<svg width="33" height="33" viewBox="0 0 33 33" fill="none" xmlns="http://www.w3.org/2000/svg">
    <rect x="0.75" y="0.285645" width="32" height="32" rx="16" fill="#FFE700" fill-opacity="0.15"/>
    <mask id="mask0_729_7424" style="mask-type:alpha" maskUnits="userSpaceOnUse" x="6" y="6" width="21" height="21">
    <rect x="6.75" y="6.28564" width="20" height="20" fill="#FFE700"/>
    </mask>
    <g mask="url(#mask0_729_7424)">
    <path d="M16.75 16.0853C15.7989 16.0853 14.9944 15.7564 14.3365 15.0985C13.6786 14.4406 13.3496 13.636 13.3496 12.6849C13.3496 11.7338 13.6786 10.9313 14.3365 10.2774C14.9944 9.6234 15.7989 9.29639 16.75 9.29639C17.7011 9.29639 18.5057 9.6234 19.1636 10.2774C19.8215 10.9313 20.1504 11.7338 20.1504 12.6849C20.1504 13.636 19.8215 14.4406 19.1636 15.0985C18.5057 15.7564 17.7011 16.0853 16.75 16.0853ZM10.3496 20.8445V20.4622C10.3496 20.0721 10.4561 19.7033 10.669 19.3558C10.8818 19.0083 11.1763 18.7216 11.5525 18.4958C12.34 18.0434 13.1766 17.6953 14.0621 17.4514C14.9477 17.2074 15.8436 17.0853 16.75 17.0853C17.6721 17.0853 18.5759 17.2053 19.4615 17.4453C20.347 17.6855 21.1757 18.0317 21.9475 18.4839C22.3238 18.6958 22.6183 18.9771 22.8311 19.3276C23.044 19.6782 23.1504 20.0564 23.1504 20.4622V20.8445C23.1504 21.4181 22.9536 21.9018 22.5598 22.2956C22.1661 22.6893 21.6824 22.8862 21.1088 22.8862H12.3913C11.8177 22.8862 11.334 22.6893 10.9402 22.2956C10.5465 21.9018 10.3496 21.4181 10.3496 20.8445Z" fill="#D6C100"/>
    </g>
    </svg>
    