<svg width="33" height="32" viewBox="0 0 33 32" fill="none" xmlns="http://www.w3.org/2000/svg">
    <rect x="0.75" width="32" height="32" rx="16" fill="#FEDECC" fill-opacity="0.5"/>
    <g clip-path="url(#clip0_729_7229)">
    <g filter="url(#filter0_d_729_7229)">
    </g>
    <mask id="mask0_729_7229" style="mask-type:alpha" maskUnits="userSpaceOnUse" x="6" y="6" width="21" height="20">
    <rect x="6.75" y="6" width="20" height="20" fill="#D9D9D9"/>
    </mask>
    <g mask="url(#mask0_729_7229)">
    <path d="M18.5335 16.1693C19.461 15.3898 20.1935 14.5716 20.731 13.715C21.2685 12.8584 21.5372 12.0232 21.5372 11.2091C21.5372 10.8415 21.4682 10.55 21.3301 10.3348C21.1922 10.1195 20.9892 10.0118 20.721 10.0118C20.099 10.0118 19.5612 10.4738 19.1074 11.3977C18.6535 12.3216 18.4266 13.4402 18.4266 14.7535C18.4266 15.0107 18.4375 15.2565 18.4593 15.4908C18.481 15.7251 18.5057 15.9513 18.5335 16.1693ZM10.3678 19.5852C10.1678 19.785 9.94707 19.8796 9.70554 19.8687C9.46402 19.8578 9.24332 19.7523 9.04346 19.5525C8.8436 19.3526 8.74367 19.1265 8.74367 18.8741C8.74367 18.6216 8.8436 18.3955 9.04346 18.1956L9.78617 17.4529L9.01075 16.6775C8.81089 16.4776 8.71645 16.2515 8.72742 15.9991C8.73825 15.7466 8.8436 15.5205 9.04346 15.3206C9.24332 15.1207 9.4695 15.0208 9.722 15.0208C9.97436 15.0208 10.2005 15.1207 10.4003 15.3206L11.143 16.096L11.9185 15.3206C12.1183 15.1207 12.3445 15.0208 12.597 15.0208C12.8494 15.0208 13.0755 15.1207 13.2753 15.3206C13.4752 15.5205 13.5751 15.7466 13.5751 15.9991C13.5751 16.2515 13.4752 16.4776 13.2753 16.6775L12.4999 17.4529L13.2753 18.2283C13.4752 18.4282 13.5751 18.6489 13.5751 18.8904C13.5751 19.1319 13.4752 19.3526 13.2753 19.5525C13.0755 19.7523 12.8494 19.8523 12.597 19.8523C12.3445 19.8523 12.1183 19.7523 11.9185 19.5525L11.143 18.8098L10.3678 19.5852ZM19.8678 20.4475C19.4258 20.4475 19.0214 20.3337 18.6549 20.106C18.2884 19.8784 17.9596 19.5743 17.6685 19.1937C17.4637 19.3187 17.261 19.4348 17.0603 19.5421C16.8595 19.6493 16.6498 19.7584 16.4312 19.8696C16.1974 20 15.9532 20.0267 15.6985 19.9498C15.4436 19.8727 15.2555 19.7149 15.1341 19.4764C15.0176 19.2427 15.0039 19.0007 15.0933 18.7504C15.1827 18.5001 15.3442 18.3098 15.5778 18.1793C15.7905 18.0742 16.0001 17.9603 16.2066 17.8375C16.4131 17.7146 16.6235 17.5866 16.8378 17.4537C16.7231 17.0687 16.6351 16.6571 16.5739 16.2189C16.5125 15.7806 16.4818 15.3157 16.4818 14.8241C16.4957 12.8139 16.8919 11.1886 17.6703 9.94831C18.4487 8.70803 19.4655 8.08789 20.721 8.08789C21.581 8.08789 22.2526 8.36664 22.736 8.92414C23.2193 9.48164 23.461 10.2237 23.461 11.1504C23.461 12.3593 23.0997 13.5555 22.3772 14.7391C21.6547 15.9228 20.6247 17.0339 19.2872 18.0725C19.4079 18.215 19.5321 18.3257 19.6599 18.4048C19.7876 18.4839 19.9326 18.5235 20.0951 18.5235C20.4285 18.5235 20.7838 18.3687 21.1612 18.0589C21.5387 17.7491 21.8914 17.3143 22.2193 16.7546C22.3304 16.5504 22.4964 16.4132 22.7174 16.3429C22.9384 16.2725 23.1579 16.2801 23.376 16.3658C23.6018 16.4625 23.7568 16.621 23.841 16.8414C23.9253 17.0617 23.9466 17.2933 23.9049 17.5362C23.871 17.6989 23.8541 17.858 23.8541 18.0137C23.8541 18.1694 23.8701 18.2971 23.9022 18.3966C23.9673 18.3562 24.038 18.2984 24.1141 18.2233C24.1902 18.148 24.2711 18.0745 24.3568 18.0027C24.5096 17.8028 24.6985 17.6822 24.9235 17.6408C25.1485 17.5994 25.3717 17.6295 25.5933 17.731C25.7992 17.8167 25.9362 17.9696 26.0041 18.1898C26.072 18.4099 26.0312 18.6221 25.8818 18.8264C25.5217 19.3516 25.1549 19.753 24.7814 20.0308C24.4079 20.3086 24.0369 20.4475 23.6685 20.4475C23.3448 20.4475 23.0464 20.3527 22.7733 20.1631C22.4999 19.9735 22.3037 19.7325 22.1847 19.4402C21.7976 19.8038 21.4119 20.0625 21.0274 20.2164C20.6428 20.3705 20.2563 20.4475 19.8678 20.4475ZM10.3387 23.4004C10.0724 23.4004 9.84478 23.3073 9.65575 23.1212C9.46672 22.9351 9.37221 22.7089 9.37221 22.4427C9.37221 22.1766 9.46527 21.949 9.65138 21.76C9.83749 21.5709 10.0637 21.4764 10.3299 21.4764C10.596 21.4764 10.8236 21.5695 11.0126 21.7556C11.2017 21.9417 11.2962 22.1678 11.2962 22.4339C11.2962 22.7002 11.2031 22.9278 11.017 23.1168C10.8309 23.3059 10.6048 23.4004 10.3387 23.4004ZM13.5578 23.4004C13.2916 23.4004 13.0639 23.3073 12.8749 23.1212C12.6859 22.9351 12.5914 22.7089 12.5914 22.4427C12.5914 22.1766 12.6844 21.949 12.8705 21.76C13.0567 21.5709 13.2828 21.4764 13.5491 21.4764C13.8153 21.4764 14.0429 21.5695 14.2318 21.7556C14.4208 21.9417 14.5153 22.1678 14.5153 22.4339C14.5153 22.7002 14.4223 22.9278 14.2362 23.1168C14.0502 23.3059 13.8241 23.4004 13.5578 23.4004ZM16.7653 23.4004C16.4991 23.4004 16.2714 23.3073 16.0824 23.1212C15.8934 22.9351 15.7989 22.7089 15.7989 22.4427C15.7989 22.1766 15.8919 21.949 16.078 21.76C16.2642 21.5709 16.4903 21.4764 16.7564 21.4764C17.0226 21.4764 17.2503 21.5695 17.4393 21.7556C17.6283 21.9417 17.7228 22.1678 17.7228 22.4339C17.7228 22.7002 17.6298 22.9278 17.4437 23.1168C17.2576 23.3059 17.0314 23.4004 16.7653 23.4004ZM19.9845 23.4004C19.7183 23.4004 19.4906 23.3073 19.3016 23.1212C19.1126 22.9351 19.018 22.7089 19.018 22.4427C19.018 22.1766 19.1111 21.949 19.2972 21.76C19.4833 21.5709 19.7095 21.4764 19.9758 21.4764C20.2419 21.4764 20.4694 21.5695 20.6585 21.7556C20.8475 21.9417 20.942 22.1678 20.942 22.4339C20.942 22.7002 20.8489 22.9278 20.6628 23.1168C20.4769 23.3059 20.2508 23.4004 19.9845 23.4004ZM23.1918 23.4004C22.9257 23.4004 22.6981 23.3073 22.5091 23.1212C22.3201 22.9351 22.2255 22.7089 22.2255 22.4427C22.2255 22.1766 22.3186 21.949 22.5047 21.76C22.6908 21.5709 22.9169 21.4764 23.183 21.4764C23.4493 21.4764 23.6769 21.5695 23.866 21.7556C24.055 21.9417 24.1495 22.1678 24.1495 22.4339C24.1495 22.7002 24.0564 22.9278 23.8703 23.1168C23.6842 23.3059 23.458 23.4004 23.1918 23.4004Z" fill="#FA742B"/>
    </g>
    </g>
    <defs>
    <filter id="filter0_d_729_7229" x="-47.25" y="-50" width="129" height="64" filterUnits="userSpaceOnUse" color-interpolation-filters="sRGB">
    <feFlood flood-opacity="0" result="BackgroundImageFix"/>
    <feColorMatrix in="SourceAlpha" type="matrix" values="0 0 0 0 0 0 0 0 0 0 0 0 0 0 0 0 0 0 127 0" result="hardAlpha"/>
    <feMorphology radius="4" operator="erode" in="SourceAlpha" result="effect1_dropShadow_729_7229"/>
    <feOffset dy="12"/>
    <feGaussianBlur stdDeviation="8"/>
    <feColorMatrix type="matrix" values="0 0 0 0 0.0627451 0 0 0 0 0.0941176 0 0 0 0 0.156863 0 0 0 0.08 0"/>
    <feBlend mode="normal" in2="BackgroundImageFix" result="effect1_dropShadow_729_7229"/>
    <feBlend mode="normal" in="SourceGraphic" in2="effect1_dropShadow_729_7229" result="shape"/>
    </filter>
    <clipPath id="clip0_729_7229">
    <rect width="20" height="20" fill="white" transform="translate(6.75 6)"/>
    </clipPath>
    </defs>
    </svg>
    