<svg width="33" height="33" viewBox="0 0 33 33" fill="none" xmlns="http://www.w3.org/2000/svg">
    <rect x="0.25" y="0.142822" width="32" height="32" rx="16" fill="#D0FDF6" fill-opacity="0.4"/>
    <mask id="mask0_729_7404" style="mask-type:alpha" maskUnits="userSpaceOnUse" x="6" y="6" width="21" height="21">
    <rect x="6.25" y="6.14282" width="20" height="20" fill="#D9D9D9"/>
    </mask>
    <g mask="url(#mask0_729_7404)">
    <path d="M20.6316 23.4634C20.4811 23.4634 20.3451 23.4456 20.2234 23.41C20.1018 23.3743 19.9836 23.3209 19.8689 23.2496L17.6822 21.9506C17.4527 21.8004 17.2698 21.6105 17.1332 21.3811C16.9968 21.1515 16.9286 20.9002 16.9286 20.6273V17.9525C16.9286 17.6796 16.9968 17.4284 17.1332 17.199C17.2698 16.9694 17.4527 16.7795 17.6822 16.6292L19.8805 15.3511C20.0093 15.2876 20.1345 15.2381 20.2561 15.2025C20.3778 15.1668 20.5099 15.149 20.6524 15.149C20.7949 15.149 20.927 15.1649 21.0486 15.1967C21.1703 15.2284 21.2885 15.2798 21.4032 15.3511L23.6016 16.65C23.8311 16.8003 24.0176 16.9902 24.1609 17.2198C24.3044 17.4493 24.3761 17.7004 24.3761 17.9734V20.6481C24.3761 20.9211 24.3064 21.1723 24.1668 21.4019C24.0273 21.6313 23.8389 21.8212 23.6016 21.9715L21.4151 23.2496C21.2865 23.3288 21.1614 23.3842 21.0397 23.4159C20.9179 23.4475 20.7818 23.4634 20.6316 23.4634ZM9.89323 22.7434C9.31962 22.7434 8.83594 22.5465 8.44219 22.1527C8.04844 21.759 7.85156 21.2753 7.85156 20.7017V20.4027C7.85156 19.9238 7.97566 19.5076 8.22385 19.154C8.47205 18.8005 8.74892 18.5335 9.05448 18.3529C9.86976 17.8728 10.7217 17.5216 11.6103 17.2994C12.4988 17.0772 13.4132 16.9691 14.3534 16.9752C14.4743 16.9673 14.5777 16.9901 14.6636 17.0436C14.7498 17.097 14.8245 17.1702 14.8878 17.2631C14.9513 17.3562 14.9954 17.4581 15.0201 17.569C15.0448 17.6797 15.0355 17.7954 14.992 17.9163C14.9268 18.15 14.8745 18.3833 14.8349 18.6161C14.7953 18.8488 14.7755 19.082 14.7755 19.3156C14.7755 19.7204 14.8196 20.1216 14.9078 20.5192C14.996 20.9168 15.1243 21.3041 15.2928 21.6809C15.3502 21.8016 15.3754 21.9282 15.3684 22.0609C15.3615 22.1934 15.3332 22.3061 15.2836 22.3992C15.2342 22.4921 15.1575 22.5727 15.0536 22.6409C14.9498 22.7092 14.8374 22.7434 14.7166 22.7434H9.89323ZM14.252 15.9425C13.3009 15.9425 12.4964 15.6136 11.8384 14.9556C11.1805 14.2977 10.8516 13.4932 10.8516 12.5421C10.8516 11.591 11.1805 10.7885 11.8384 10.1346C12.4964 9.48058 13.3009 9.15356 14.252 9.15356C15.2031 9.15356 16.0076 9.48058 16.6655 10.1346C17.3234 10.7885 17.6524 11.591 17.6524 12.5421C17.6524 13.4932 17.3234 14.2977 16.6655 14.9556C16.0076 15.6136 15.2031 15.9425 14.252 15.9425ZM18.7611 17.4779L20.6524 18.6246L22.5436 17.4779L20.6524 16.3311L18.7611 17.4779ZM21.2701 21.91L23.1289 20.7959V18.659L21.2701 19.785V21.91ZM18.1759 20.7959L20.0347 21.91V19.785L18.1759 18.659V20.7959Z" fill="#12CBAD"/>
    </g>
    </svg>
    