<svg width="33" height="33" viewBox="0 0 33 33" fill="none" xmlns="http://www.w3.org/2000/svg">
    <rect x="0.75" y="0.714355" width="32" height="32" rx="16" fill="#FF628D" fill-opacity="0.15"/>
    <mask id="mask0_729_7400" style="mask-type:alpha" maskUnits="userSpaceOnUse" x="6" y="6" width="21" height="21">
    <rect x="6.75" y="6.71436" width="20" height="20" fill="#FF628D"/>
    </mask>
    <g mask="url(#mask0_729_7400)">
    <path d="M11.75 21.8556H16.75V21.3765C16.75 21.1316 16.6841 20.9048 16.5521 20.696C16.4202 20.4872 16.2361 20.3251 16 20.2098C15.7222 20.0987 15.441 20.0119 15.1563 19.9494C14.8716 19.8869 14.5695 19.8556 14.25 19.8556C13.9306 19.8556 13.6285 19.8869 13.3438 19.9494C13.0591 20.0119 12.7778 20.102 12.5 20.2196C12.2639 20.3242 12.0799 20.4815 11.9479 20.6917C11.816 20.9018 11.75 21.1301 11.75 21.3765V21.8556ZM19.5 20.8556H21C21.2084 20.8556 21.3854 20.7827 21.5313 20.6369C21.6771 20.491 21.75 20.314 21.75 20.1056C21.75 19.8973 21.6771 19.7202 21.5313 19.5744C21.3854 19.4285 21.2084 19.3556 21 19.3556H19.5C19.2917 19.3556 19.1146 19.4285 18.9688 19.5744C18.8229 19.7202 18.75 19.8973 18.75 20.1056C18.75 20.314 18.8229 20.491 18.9688 20.6369C19.1146 20.7827 19.2917 20.8556 19.5 20.8556ZM14.25 19.3556C14.5972 19.3556 14.8924 19.2341 15.1354 18.991C15.3785 18.748 15.5 18.4529 15.5 18.1056C15.5 17.7584 15.3785 17.4633 15.1354 17.2202C14.8924 16.9772 14.5972 16.8556 14.25 16.8556C13.9028 16.8556 13.6077 16.9772 13.3646 17.2202C13.1216 17.4633 13 17.7584 13 18.1056C13 18.4529 13.1216 18.748 13.3646 18.991C13.6077 19.2341 13.9028 19.3556 14.25 19.3556ZM19.5 18.3556H21C21.2084 18.3556 21.3854 18.2827 21.5313 18.1369C21.6771 17.991 21.75 17.814 21.75 17.6056C21.75 17.3973 21.6771 17.2202 21.5313 17.0744C21.3854 16.9285 21.2084 16.8556 21 16.8556H19.5C19.2917 16.8556 19.1146 16.9285 18.9688 17.0744C18.8229 17.2202 18.75 17.3973 18.75 17.6056C18.75 17.814 18.8229 17.991 18.9688 18.1369C19.1146 18.2827 19.2917 18.3556 19.5 18.3556ZM10.3913 25.1148C9.82183 25.1148 9.33919 24.9169 8.94336 24.521C8.54753 24.1252 8.34961 23.6426 8.34961 23.0731V14.3556C8.34961 13.7862 8.54753 13.3035 8.94336 12.9077C9.33919 12.5119 9.82183 12.314 10.3913 12.314H14.3496V10.0967C14.3496 9.57417 14.5161 9.14646 14.8492 8.81355C15.1821 8.48049 15.6098 8.31396 16.1323 8.31396H17.3677C17.8902 8.31396 18.3179 8.48049 18.6509 8.81355C18.9839 9.14646 19.1504 9.57417 19.1504 10.0967V12.314H23.1088C23.6782 12.314 24.1609 12.5119 24.5567 12.9077C24.9525 13.3035 25.1504 13.7862 25.1504 14.3556V23.0731C25.1504 23.6426 24.9525 24.1252 24.5567 24.521C24.1609 24.9169 23.6782 25.1148 23.1088 25.1148H10.3913ZM16.2736 13.9317H17.2265V10.2379H16.2736V13.9317Z" fill="#FF628D"/>
    </g>
    </svg>
    