<svg width="33" height="33" viewBox="0 0 33 33" fill="none" xmlns="http://www.w3.org/2000/svg">
    <rect x="0.75" y="0.142822" width="32" height="32" rx="16" fill="#63D66A" fill-opacity="0.1"/>
    <g clip-path="url(#clip0_729_7456)">
    <g filter="url(#filter0_d_729_7456)">
    </g>
    <mask id="mask0_729_7456" style="mask-type:alpha" maskUnits="userSpaceOnUse" x="6" y="6" width="21" height="21">
    <rect x="6.75" y="6.14282" width="20" height="20" fill="#D9D9D9"/>
    </mask>
    <g mask="url(#mask0_729_7456)">
    <path d="M18.5335 16.3122C19.461 15.5326 20.1935 14.7145 20.731 13.8578C21.2685 13.0013 21.5372 12.166 21.5372 11.352C21.5372 10.9843 21.4682 10.6929 21.3301 10.4776C21.1922 10.2623 20.9892 10.1547 20.721 10.1547C20.099 10.1547 19.5612 10.6166 19.1074 11.5405C18.6535 12.4644 18.4266 13.583 18.4266 14.8963C18.4266 15.1536 18.4375 15.3993 18.4593 15.6336C18.481 15.8679 18.5057 16.0941 18.5335 16.3122ZM10.3678 19.728C10.1678 19.9279 9.94707 20.0224 9.70554 20.0115C9.46402 20.0006 9.24332 19.8952 9.04346 19.6953C8.8436 19.4954 8.74367 19.2693 8.74367 19.017C8.74367 18.7645 8.8436 18.5383 9.04346 18.3384L9.78617 17.5957L9.01075 16.8203C8.81089 16.6204 8.71645 16.3943 8.72742 16.142C8.73825 15.8895 8.8436 15.6633 9.04346 15.4634C9.24332 15.2636 9.4695 15.1636 9.722 15.1636C9.97436 15.1636 10.2005 15.2636 10.4003 15.4634L11.143 16.2388L11.9185 15.4634C12.1183 15.2636 12.3445 15.1636 12.597 15.1636C12.8494 15.1636 13.0755 15.2636 13.2753 15.4634C13.4752 15.6633 13.5751 15.8895 13.5751 16.142C13.5751 16.3943 13.4752 16.6204 13.2753 16.8203L12.4999 17.5957L13.2753 18.3711C13.4752 18.571 13.5751 18.7917 13.5751 19.0332C13.5751 19.2747 13.4752 19.4954 13.2753 19.6953C13.0755 19.8952 12.8494 19.9951 12.597 19.9951C12.3445 19.9951 12.1183 19.8952 11.9185 19.6953L11.143 18.9526L10.3678 19.728ZM19.8678 20.5903C19.4258 20.5903 19.0214 20.4765 18.6549 20.2488C18.2884 20.0212 17.9596 19.7171 17.6685 19.3365C17.4637 19.4615 17.261 19.5777 17.0603 19.6849C16.8595 19.7921 16.6498 19.9013 16.4312 20.0124C16.1974 20.1428 15.9532 20.1695 15.6985 20.0926C15.4436 20.0155 15.2555 19.8577 15.1341 19.6193C15.0176 19.3855 15.0039 19.1435 15.0933 18.8932C15.1827 18.6429 15.3442 18.4526 15.5778 18.3222C15.7905 18.217 16.0001 18.1031 16.2066 17.9803C16.4131 17.8574 16.6235 17.7295 16.8378 17.5965C16.7231 17.2115 16.6351 16.7999 16.5739 16.3618C16.5125 15.9234 16.4818 15.4585 16.4818 14.967C16.4957 12.9567 16.8919 11.3314 17.6703 10.0911C18.4487 8.85085 19.4655 8.23071 20.721 8.23071C21.581 8.23071 22.2526 8.50946 22.736 9.06696C23.2193 9.62446 23.461 10.3665 23.461 11.2932C23.461 12.5021 23.0997 13.6984 22.3772 14.882C21.6547 16.0656 20.6247 17.1767 19.2872 18.2153C19.4079 18.3578 19.5321 18.4686 19.6599 18.5476C19.7876 18.6268 19.9326 18.6663 20.0951 18.6663C20.4285 18.6663 20.7838 18.5115 21.1612 18.2018C21.5387 17.8919 21.8914 17.4571 22.2193 16.8974C22.3304 16.6932 22.4964 16.556 22.7174 16.4857C22.9384 16.4153 23.1579 16.4229 23.376 16.5086C23.6018 16.6053 23.7568 16.7638 23.841 16.9843C23.9253 17.2045 23.9466 17.4361 23.9049 17.679C23.871 17.8417 23.8541 18.0009 23.8541 18.1565C23.8541 18.3122 23.8701 18.4399 23.9022 18.5395C23.9673 18.499 24.038 18.4413 24.1141 18.3661C24.1902 18.2909 24.2711 18.2173 24.3568 18.1455C24.5096 17.9456 24.6985 17.825 24.9235 17.7836C25.1485 17.7422 25.3717 17.7723 25.5933 17.8738C25.7992 17.9595 25.9362 18.1124 26.0041 18.3326C26.072 18.5527 26.0312 18.765 25.8818 18.9693C25.5217 19.4944 25.1549 19.8959 24.7814 20.1736C24.4079 20.4514 24.0369 20.5903 23.6685 20.5903C23.3448 20.5903 23.0464 20.4955 22.7733 20.3059C22.4999 20.1163 22.3037 19.8754 22.1847 19.583C21.7976 19.9466 21.4119 20.2054 21.0274 20.3593C20.6428 20.5133 20.2563 20.5903 19.8678 20.5903ZM10.3387 23.5432C10.0724 23.5432 9.84478 23.4502 9.65575 23.264C9.46672 23.0779 9.37221 22.8518 9.37221 22.5855C9.37221 22.3194 9.46527 22.0918 9.65138 21.9028C9.83749 21.7138 10.0637 21.6193 10.3299 21.6193C10.596 21.6193 10.8236 21.7123 11.0126 21.8984C11.2017 22.0845 11.2962 22.3106 11.2962 22.5768C11.2962 22.843 11.2031 23.0706 11.017 23.2597C10.8309 23.4487 10.6048 23.5432 10.3387 23.5432ZM13.5578 23.5432C13.2916 23.5432 13.0639 23.4502 12.8749 23.264C12.6859 23.0779 12.5914 22.8518 12.5914 22.5855C12.5914 22.3194 12.6844 22.0918 12.8705 21.9028C13.0567 21.7138 13.2828 21.6193 13.5491 21.6193C13.8153 21.6193 14.0429 21.7123 14.2318 21.8984C14.4208 22.0845 14.5153 22.3106 14.5153 22.5768C14.5153 22.843 14.4223 23.0706 14.2362 23.2597C14.0502 23.4487 13.8241 23.5432 13.5578 23.5432ZM16.7653 23.5432C16.4991 23.5432 16.2714 23.4502 16.0824 23.264C15.8934 23.0779 15.7989 22.8518 15.7989 22.5855C15.7989 22.3194 15.8919 22.0918 16.078 21.9028C16.2642 21.7138 16.4903 21.6193 16.7564 21.6193C17.0226 21.6193 17.2503 21.7123 17.4393 21.8984C17.6283 22.0845 17.7228 22.3106 17.7228 22.5768C17.7228 22.843 17.6298 23.0706 17.4437 23.2597C17.2576 23.4487 17.0314 23.5432 16.7653 23.5432ZM19.9845 23.5432C19.7183 23.5432 19.4906 23.4502 19.3016 23.264C19.1126 23.0779 19.018 22.8518 19.018 22.5855C19.018 22.3194 19.1111 22.0918 19.2972 21.9028C19.4833 21.7138 19.7095 21.6193 19.9758 21.6193C20.2419 21.6193 20.4694 21.7123 20.6585 21.8984C20.8475 22.0845 20.942 22.3106 20.942 22.5768C20.942 22.843 20.8489 23.0706 20.6628 23.2597C20.4769 23.4487 20.2508 23.5432 19.9845 23.5432ZM23.1918 23.5432C22.9257 23.5432 22.6981 23.4502 22.5091 23.264C22.3201 23.0779 22.2255 22.8518 22.2255 22.5855C22.2255 22.3194 22.3186 22.0918 22.5047 21.9028C22.6908 21.7138 22.9169 21.6193 23.183 21.6193C23.4493 21.6193 23.6769 21.7123 23.866 21.8984C24.055 22.0845 24.1495 22.3106 24.1495 22.5768C24.1495 22.843 24.0564 23.0706 23.8703 23.2597C23.6842 23.4487 23.458 23.5432 23.1918 23.5432Z" fill="#63D66A"/>
    </g>
    </g>
    <defs>
    <filter id="filter0_d_729_7456" x="-47.25" y="-49.8572" width="129" height="64" filterUnits="userSpaceOnUse" color-interpolation-filters="sRGB">
    <feFlood flood-opacity="0" result="BackgroundImageFix"/>
    <feColorMatrix in="SourceAlpha" type="matrix" values="0 0 0 0 0 0 0 0 0 0 0 0 0 0 0 0 0 0 127 0" result="hardAlpha"/>
    <feMorphology radius="4" operator="erode" in="SourceAlpha" result="effect1_dropShadow_729_7456"/>
    <feOffset dy="12"/>
    <feGaussianBlur stdDeviation="8"/>
    <feColorMatrix type="matrix" values="0 0 0 0 0.0627451 0 0 0 0 0.0941176 0 0 0 0 0.156863 0 0 0 0.08 0"/>
    <feBlend mode="normal" in2="BackgroundImageFix" result="effect1_dropShadow_729_7456"/>
    <feBlend mode="normal" in="SourceGraphic" in2="effect1_dropShadow_729_7456" result="shape"/>
    </filter>
    <clipPath id="clip0_729_7456">
    <rect width="20" height="20" fill="white" transform="translate(6.75 6.14282)"/>
    </clipPath>
    </defs>
    </svg>
    