<svg width="33" height="33" viewBox="0 0 33 33" fill="none" xmlns="http://www.w3.org/2000/svg">
    <rect x="0.25" y="0.857178" width="32" height="32" rx="16" fill="#5FBFF9" fill-opacity="0.1"/>
    <mask id="mask0_729_7501" style="mask-type:alpha" maskUnits="userSpaceOnUse" x="6" y="6" width="21" height="21">
    <rect x="6.25" y="6.85718" width="20" height="20" fill="#D9D9D9"/>
    </mask>
    <g mask="url(#mask0_729_7501)">
    <path d="M10.8893 25.2576C10.3199 25.2576 9.83724 25.0573 9.44141 24.6566C9.04557 24.2559 8.84766 23.7757 8.84766 23.216V12.4985C8.84766 11.9387 9.04557 11.4585 9.44141 11.0578C9.83724 10.6571 10.3199 10.4568 10.8893 10.4568H12.2481V9.33637C12.2481 9.09248 12.3352 8.88491 12.5095 8.71366C12.6838 8.54241 12.8923 8.45679 13.1349 8.45679C13.3776 8.45679 13.5856 8.54241 13.7589 8.71366C13.9322 8.88491 14.0189 9.09248 14.0189 9.33637V10.4568H18.4772V9.33637C18.4772 9.09248 18.5644 8.88491 18.7387 8.71366C18.913 8.54241 19.1215 8.45679 19.3641 8.45679C19.6068 8.45679 19.8147 8.54241 19.9881 8.71366C20.1614 8.88491 20.2481 9.09248 20.2481 9.33637V10.4568H21.6068C22.1763 10.4568 22.6589 10.6571 23.0547 11.0578C23.4506 11.4585 23.6485 11.9387 23.6485 12.4985V23.216C23.6485 23.7757 23.4506 24.2559 23.0547 24.6566C22.6589 25.0573 22.1763 25.2576 21.6068 25.2576H10.8893ZM10.8893 23.216H21.6068V15.8572H10.8893V23.216ZM16.2524 18.9514C16.0145 18.9514 15.8136 18.8709 15.6497 18.7099C15.4859 18.5489 15.4039 18.3495 15.4039 18.1116C15.4039 17.8737 15.4844 17.6728 15.6454 17.5089C15.8063 17.345 16.0058 17.263 16.2437 17.263C16.4816 17.263 16.6825 17.3435 16.8464 17.5045C17.0103 17.6655 17.0922 17.8649 17.0922 18.1028C17.0922 18.3407 17.0118 18.5416 16.8508 18.7055C16.6898 18.8694 16.4904 18.9514 16.2524 18.9514ZM13.0024 18.9514C12.7645 18.9514 12.5636 18.8709 12.3997 18.7099C12.2359 18.5489 12.1539 18.3495 12.1539 18.1116C12.1539 17.8737 12.2344 17.6728 12.3954 17.5089C12.5563 17.345 12.7558 17.263 12.9937 17.263C13.2316 17.263 13.4325 17.3435 13.5964 17.5045C13.7603 17.6655 13.8422 17.8649 13.8422 18.1028C13.8422 18.3407 13.7618 18.5416 13.6008 18.7055C13.4398 18.8694 13.2404 18.9514 13.0024 18.9514ZM19.5024 18.9514C19.2755 18.9514 19.0773 18.8709 18.9079 18.7099C18.7386 18.5489 18.6539 18.3495 18.6539 18.1116C18.6539 17.8737 18.7371 17.6728 18.9035 17.5089C19.07 17.345 19.2687 17.263 19.4995 17.263C19.7305 17.263 19.9287 17.3435 20.0941 17.5045C20.2595 17.6655 20.3422 17.8649 20.3422 18.1028C20.3422 18.3407 20.2618 18.5416 20.1008 18.7055C19.9398 18.8694 19.7404 18.9514 19.5024 18.9514ZM16.2524 21.9514C16.0145 21.9514 15.8136 21.8682 15.6497 21.7018C15.4859 21.5353 15.4039 21.3366 15.4039 21.1057C15.4039 20.8748 15.4844 20.6766 15.6454 20.5112C15.8063 20.3457 16.0058 20.263 16.2437 20.263C16.4816 20.263 16.6825 20.3435 16.8464 20.5045C17.0103 20.6655 17.0922 20.8649 17.0922 21.1028C17.0922 21.3298 17.0118 21.528 16.8508 21.6974C16.6898 21.8667 16.4904 21.9514 16.2524 21.9514ZM13.0024 21.9514C12.7645 21.9514 12.5636 21.8682 12.3997 21.7018C12.2359 21.5353 12.1539 21.3366 12.1539 21.1057C12.1539 20.8748 12.2344 20.6766 12.3954 20.5112C12.5563 20.3457 12.7558 20.263 12.9937 20.263C13.2316 20.263 13.4325 20.3435 13.5964 20.5045C13.7603 20.6655 13.8422 20.8649 13.8422 21.1028C13.8422 21.3298 13.7618 21.528 13.6008 21.6974C13.4398 21.8667 13.2404 21.9514 13.0024 21.9514ZM19.5024 21.9514C19.2755 21.9514 19.0773 21.8682 18.9079 21.7018C18.7386 21.5353 18.6539 21.3366 18.6539 21.1057C18.6539 20.8748 18.7371 20.6766 18.9035 20.5112C19.07 20.3457 19.2687 20.263 19.4995 20.263C19.7305 20.263 19.9287 20.3435 20.0941 20.5045C20.2595 20.6655 20.3422 20.8649 20.3422 21.1028C20.3422 21.3298 20.2618 21.528 20.1008 21.6974C19.9398 21.8667 19.7404 21.9514 19.5024 21.9514Z" fill="#53A0CE"/>
    </g>
    </svg>
    