<svg width="33" height="32" viewBox="0 0 33 32" fill="none" xmlns="http://www.w3.org/2000/svg">
    <rect x="0.25" width="32" height="32" rx="16" fill="#F7FAFF"/>
    <mask id="mask0_729_7388" style="mask-type:alpha" maskUnits="userSpaceOnUse" x="6" y="6" width="20" height="20">
    <rect x="6" y="6" width="20" height="20" fill="#D9D9D9"/>
    </mask>
    <g mask="url(#mask0_729_7388)">
    <path d="M17.1903 22.6504V23.4738C17.1903 23.7363 17.0993 23.9563 16.9172 24.134C16.735 24.3116 16.5147 24.4004 16.2564 24.4004C15.998 24.4004 15.7782 24.3116 15.597 24.134C15.4159 23.9563 15.3253 23.7363 15.3253 23.4738V19.9619C15.3253 19.6994 15.4137 19.4793 15.5905 19.3017C15.7673 19.1242 15.9864 19.0354 16.2476 19.0354C16.5059 19.0354 16.7277 19.1242 16.9128 19.3017C17.0978 19.4793 17.1903 19.6994 17.1903 19.9619V20.7854H22.4699C22.7321 20.7854 22.9531 20.8738 23.1328 21.0504C23.3125 21.2272 23.4024 21.4463 23.4024 21.7075C23.4024 21.966 23.3136 22.1877 23.1359 22.3727C22.9583 22.5579 22.7382 22.6504 22.4757 22.6504H17.1903ZM9.52823 22.6504C9.26573 22.6504 9.04566 22.5593 8.86802 22.3771C8.69038 22.195 8.60156 21.9747 8.60156 21.7163C8.60156 21.4579 8.69038 21.2382 8.86802 21.0571C9.04566 20.876 9.26573 20.7854 9.52823 20.7854H13.3986C13.6613 20.7854 13.8814 20.8738 14.0589 21.0504C14.2365 21.2272 14.3253 21.4463 14.3253 21.7075C14.3253 21.966 14.2339 22.1877 14.0509 22.3727C13.8679 22.5579 13.6466 22.6504 13.387 22.6504H9.52823ZM14.1895 14.4257H17.7853L18.3661 16.0379C18.4295 16.215 18.5318 16.3529 18.673 16.4515C18.8141 16.5502 18.9694 16.5996 19.1389 16.5996C19.4384 16.5996 19.6718 16.4778 19.8391 16.2342C20.0063 15.9904 20.0357 15.7299 19.9272 15.4525L17.1343 8.1494C17.0787 7.98093 16.9781 7.84718 16.8324 7.74815C16.6868 7.64912 16.522 7.59961 16.3378 7.59961H15.6661C15.482 7.59961 15.3171 7.64912 15.1716 7.74815C15.0259 7.84718 14.9252 7.98093 14.8697 8.1494L12.0659 15.4888C11.9629 15.7577 11.9918 16.01 12.1526 16.2459C12.3133 16.4817 12.5334 16.5996 12.813 16.5996C12.9866 16.5996 13.1493 16.5486 13.3009 16.4465C13.4525 16.3445 13.5577 16.2116 13.6168 16.0475L14.1895 14.4257ZM14.6922 12.9602L16.0436 9.31336H16.0201L17.2972 12.9602H14.6922Z" fill="#6D7380"/>
    </g>
    </svg>
    